<svg width="43" height="43" viewBox="0 0 43 43" fill="none" xmlns="http://www.w3.org/2000/svg">
<g clip-path="url(#clip0_562_6331)">
<path d="M7.9082 21.5312C7.9082 23.3085 8.25826 25.0683 8.93839 26.7103C9.61852 28.3523 10.6154 29.8442 11.8721 31.101C13.1288 32.3577 14.6208 33.3546 16.2628 34.0347C17.9047 34.7148 19.6646 35.0649 21.4419 35.0649C23.2191 35.0649 24.979 34.7148 26.621 34.0347C28.2629 33.3546 29.7549 32.3577 31.0116 31.101C32.2683 29.8442 33.2652 28.3523 33.9453 26.7103C34.6255 25.0683 34.9755 23.3085 34.9755 21.5312C34.9755 17.9419 33.5497 14.4995 31.0116 11.9615C28.4736 9.42342 25.0312 7.99756 21.4419 7.99756C17.8525 7.99756 14.4102 9.42342 11.8721 11.9615C9.33407 14.4995 7.9082 17.9419 7.9082 21.5312Z" stroke="white" stroke-width="2.94278" stroke-linecap="round" stroke-linejoin="round"/>
<path d="M8.8125 17.02H34.0753" stroke="white" stroke-width="2.94278" stroke-linecap="round" stroke-linejoin="round"/>
<path d="M8.8125 26.043H34.0753" stroke="white" stroke-width="2.94278" stroke-linecap="round" stroke-linejoin="round"/>
<path d="M20.6888 7.99756C18.1555 12.0571 16.8125 16.7461 16.8125 21.5312C16.8125 26.3163 18.1555 31.0054 20.6888 35.0649" stroke="white" stroke-width="2.94278" stroke-linecap="round" stroke-linejoin="round"/>
<path d="M22.1914 7.99756C24.7247 12.0571 26.0677 16.7461 26.0677 21.5312C26.0677 26.3163 24.7247 31.0054 22.1914 35.0649" stroke="white" stroke-width="2.94278" stroke-linecap="round" stroke-linejoin="round"/>
</g>
<defs>
<clipPath id="clip0_562_6331">
<rect width="36.0898" height="36.0898" fill="white" transform="translate(3.39648 3.48682)"/>
</clipPath>
</defs>
</svg>
