<svg width="58" height="17" viewBox="0 0 58 17" fill="none" xmlns="http://www.w3.org/2000/svg">
<path d="M1.53 1.15505H3.757L7.378 6.78205L10.999 1.15505H13.226V13.0551H11.135V4.52105L7.378 10.1311H7.31L3.587 4.55505V13.0551H1.53V1.15505ZM20.3518 11.4741C20.7711 11.4741 21.1451 11.4004 21.4738 11.2531C21.8138 11.0944 22.1028 10.8847 22.3408 10.6241C22.5788 10.3634 22.7601 10.0631 22.8848 9.72305C23.0095 9.37172 23.0718 9.00339 23.0718 8.61805V8.58405C23.0718 8.18739 23.0038 7.81339 22.8678 7.46205C22.7318 7.11072 22.5391 6.80472 22.2898 6.54405C22.0518 6.28339 21.7628 6.07939 21.4228 5.93205C21.0941 5.77339 20.7258 5.69405 20.3178 5.69405C19.9098 5.69405 19.5358 5.77339 19.1958 5.93205C18.8671 6.07939 18.5838 6.28339 18.3458 6.54405C18.1078 6.79339 17.9265 7.09372 17.8018 7.44505C17.6771 7.79639 17.6148 8.16472 17.6148 8.55005V8.58405C17.6148 8.98072 17.6828 9.35472 17.8188 9.70605C17.9548 10.0461 18.1418 10.3521 18.3798 10.6241C18.6291 10.8847 18.9181 11.0944 19.2468 11.2531C19.5868 11.4004 19.9551 11.4741 20.3518 11.4741ZM20.3178 13.2591C19.6378 13.2591 19.0031 13.1401 18.4138 12.9021C17.8358 12.6527 17.3315 12.3184 16.9008 11.8991C16.4815 11.4797 16.1528 10.9867 15.9148 10.4201C15.6768 9.85339 15.5578 9.25272 15.5578 8.61805V8.58405C15.5578 7.93805 15.6768 7.33172 15.9148 6.76505C16.1641 6.19839 16.4985 5.70539 16.9178 5.28605C17.3485 4.85539 17.8528 4.51539 18.4308 4.26605C19.0201 4.01672 19.6605 3.89205 20.3518 3.89205C21.0431 3.89205 21.6778 4.01672 22.2558 4.26605C22.8451 4.50405 23.3495 4.83839 23.7688 5.26905C24.1995 5.68839 24.5338 6.18139 24.7718 6.74805C25.0098 7.30339 25.1288 7.90405 25.1288 8.55005V8.58405C25.1288 9.21872 25.0041 9.81939 24.7548 10.3861C24.5168 10.9527 24.1825 11.4514 23.7518 11.8821C23.3325 12.3014 22.8281 12.6357 22.2388 12.8851C21.6495 13.1344 21.0091 13.2591 20.3178 13.2591ZM31.8476 11.4571C32.199 11.4571 32.5276 11.3891 32.8336 11.2531C33.151 11.1171 33.423 10.9301 33.6496 10.6921C33.8876 10.4427 34.0746 10.1424 34.2106 9.79105C34.3466 9.42839 34.4146 9.02605 34.4146 8.58405V8.55005C34.4146 8.11939 34.3466 7.72839 34.2106 7.37705C34.0746 7.01439 33.8876 6.70839 33.6496 6.45905C33.423 6.20972 33.151 6.01705 32.8336 5.88105C32.5276 5.74505 32.199 5.67705 31.8476 5.67705C31.4963 5.67705 31.162 5.74505 30.8446 5.88105C30.5273 6.01705 30.2496 6.21539 30.0116 6.47605C29.7736 6.72539 29.581 7.02572 29.4336 7.37705C29.2976 7.72839 29.2296 8.11939 29.2296 8.55005V8.58405C29.2296 9.01472 29.2976 9.41139 29.4336 9.77405C29.581 10.1254 29.7736 10.4257 30.0116 10.6751C30.2496 10.9244 30.5273 11.1171 30.8446 11.2531C31.162 11.3891 31.4963 11.4571 31.8476 11.4571ZM32.3236 13.2421C31.587 13.2421 30.975 13.0834 30.4876 12.7661C30.0003 12.4487 29.598 12.0804 29.2806 11.6611V13.0551H27.2236V0.645053H29.2806V5.57505C29.6093 5.09905 30.0173 4.70239 30.5046 4.38505C30.992 4.05639 31.5983 3.89205 32.3236 3.89205C32.8563 3.89205 33.372 3.99405 33.8706 4.19805C34.3693 4.40205 34.8113 4.70239 35.1966 5.09905C35.5933 5.49572 35.9106 5.98305 36.1486 6.56105C36.3866 7.13905 36.5056 7.80205 36.5056 8.55005V8.58405C36.5056 9.33205 36.3866 9.99505 36.1486 10.5731C35.922 11.1511 35.6103 11.6384 35.2136 12.0351C34.8283 12.4317 34.3806 12.7321 33.8706 12.9361C33.372 13.1401 32.8563 13.2421 32.3236 13.2421ZM38.7313 4.07905H40.7883V13.0551H38.7313V4.07905ZM38.6463 0.747053H40.8563V2.70205H38.6463V0.747053ZM43.5956 0.645053H45.6526V13.0551H43.5956V0.645053ZM54.4948 7.93805C54.4608 7.60939 54.3872 7.30339 54.2738 7.02005C54.1605 6.72539 54.0075 6.47605 53.8148 6.27205C53.6222 6.05672 53.3898 5.88672 53.1178 5.76205C52.8572 5.63739 52.5568 5.57505 52.2168 5.57505C51.5822 5.57505 51.0552 5.79605 50.6358 6.23805C50.2278 6.66872 49.9785 7.23539 49.8878 7.93805H54.4948ZM52.4548 13.2591C51.8088 13.2591 51.2025 13.1457 50.6358 12.9191C50.0805 12.6924 49.5932 12.3751 49.1738 11.9671C48.7658 11.5591 48.4428 11.0717 48.2048 10.5051C47.9668 9.92705 47.8478 9.29239 47.8478 8.60105V8.56705C47.8478 7.92105 47.9555 7.31472 48.1708 6.74805C48.3862 6.18139 48.6865 5.68839 49.0718 5.26905C49.4685 4.83839 49.9332 4.50405 50.4658 4.26605C50.9985 4.01672 51.5878 3.89205 52.2338 3.89205C52.9478 3.89205 53.5712 4.02239 54.1038 4.28305C54.6478 4.54372 55.0955 4.89505 55.4468 5.33705C55.8095 5.77905 56.0815 6.29472 56.2628 6.88405C56.4442 7.46205 56.5348 8.07405 56.5348 8.72005C56.5348 8.81072 56.5292 8.90705 56.5178 9.00905C56.5178 9.09972 56.5122 9.19605 56.5008 9.29805H49.9048C50.0182 10.0347 50.3072 10.6014 50.7718 10.9981C51.2478 11.3834 51.8202 11.5761 52.4888 11.5761C52.9988 11.5761 53.4408 11.4854 53.8148 11.3041C54.1888 11.1227 54.5572 10.8564 54.9198 10.5051L56.1268 11.5761C55.6962 12.0861 55.1805 12.4941 54.5798 12.8001C53.9905 13.1061 53.2822 13.2591 52.4548 13.2591Z" fill="#FEBC16"/>
</svg>
