<svg width="44" height="43" viewBox="0 0 44 43" fill="none" xmlns="http://www.w3.org/2000/svg">
<g clip-path="url(#clip0_562_6339)">
<g clip-path="url(#clip1_562_6339)">
<path d="M21.668 31.9131H21.6844" stroke="white" stroke-width="2.94278" stroke-linecap="round" stroke-linejoin="round"/>
<path d="M16.877 27.126C18.1467 25.8566 19.8686 25.1436 21.664 25.1436C23.4594 25.1436 25.1813 25.8566 26.451 27.126" stroke="white" stroke-width="2.94278" stroke-linecap="round" stroke-linejoin="round"/>
<path d="M12.0879 22.3376C13.3454 21.0801 14.8382 20.0825 16.4812 19.402C18.1243 18.7214 19.8852 18.3711 21.6636 18.3711C23.442 18.3711 25.203 18.7214 26.846 19.402C28.489 20.0825 29.9819 21.0801 31.2394 22.3376" stroke="white" stroke-width="2.94278" stroke-linecap="round" stroke-linejoin="round"/>
<path d="M7.30664 17.5504C15.2387 9.61665 28.1 9.61665 36.0829 17.5504" stroke="white" stroke-width="2.94278" stroke-linecap="round" stroke-linejoin="round"/>
</g>
</g>
<defs>
<clipPath id="clip0_562_6339">
<rect width="42.6899" height="42.6899" fill="white" transform="translate(0.367188 0.186523)"/>
</clipPath>
<clipPath id="clip1_562_6339">
<rect width="40.6253" height="40.6253" fill="white" transform="translate(1.34766 1.44385)"/>
</clipPath>
</defs>
</svg>
