<svg width="101" height="100" viewBox="0 0 101 100" fill="none" xmlns="http://www.w3.org/2000/svg">
<g clip-path="url(#clip0_1598_45741)">
<path d="M32.7992 60.8228V78.522M50.4984 60.8228V78.522M68.1975 60.8228V78.522M88.4453 43.1237H12.5514C11.5389 43.1151 10.5363 43.3238 9.61138 43.7356C8.68641 44.1475 7.86056 44.753 7.18954 45.5113C6.51852 46.2695 6.01795 47.1629 5.72161 48.1311C5.42528 49.0993 5.34007 50.1198 5.47173 51.1237L10.6399 90.0618C10.8645 91.7758 11.7085 93.3483 13.0127 94.4829C14.3168 95.6175 15.991 96.2358 17.7195 96.2211H83.1356C84.8642 96.2358 86.5384 95.6175 87.8425 94.4829C89.1466 93.3483 89.9906 91.7758 90.2153 90.0618L95.3834 51.1237C95.5136 50.1316 95.4319 49.1231 95.1439 48.1649C94.8558 47.2066 94.3679 46.3203 93.7124 45.5644C93.0568 44.8085 92.2484 44.2001 91.3405 43.7794C90.4326 43.3587 89.4459 43.1352 88.4453 43.1237ZM68.1975 13.0351C68.1975 14.1973 67.9686 15.348 67.5239 16.4217C67.0792 17.4954 66.4273 18.471 65.6055 19.2927C64.7838 20.1145 63.8082 20.7663 62.7345 21.2111C61.6609 21.6558 60.5101 21.8847 59.3479 21.8847H41.6488C39.3017 21.8847 37.0508 20.9523 35.3912 19.2927C33.7316 17.6331 32.7992 15.3822 32.7992 13.0351C32.7992 10.6881 33.7316 8.43714 35.3912 6.77753C37.0508 5.11791 39.3017 4.18555 41.6488 4.18555H59.3479C61.695 4.18555 63.9459 5.11791 65.6055 6.77753C67.2652 8.43714 68.1975 10.6881 68.1975 13.0351Z" stroke="#141B4D" stroke-width="6" stroke-linecap="round" stroke-linejoin="round"/>
<path d="M68.0595 11.5508C72.3004 12.2834 76.186 14.3811 79.1252 17.5249C82.0644 20.6686 83.8965 24.6862 84.3427 28.9667L85.9002 43.1261M15.1036 43.1261L16.6612 28.9667C17.1364 24.7116 18.9813 20.7261 21.9182 17.6105C24.855 14.4949 28.7247 12.4179 32.9444 11.6924" stroke="#141B4D" stroke-width="6" stroke-linecap="round" stroke-linejoin="round"/>
</g>
<defs>
<clipPath id="clip0_1598_45741">
<rect width="99.1152" height="99.1152" fill="white" transform="translate(0.942383 0.648438)"/>
</clipPath>
</defs>
</svg>
