<svg width="100" height="101" viewBox="0 0 100 101" fill="none" xmlns="http://www.w3.org/2000/svg">
<g clip-path="url(#clip0_1598_46029)">
<path d="M50 38.0879V54.7122" stroke="#E31D23" stroke-width="6" stroke-linecap="round" stroke-linejoin="round"/>
<path d="M43.1942 15.6085L9.50499 71.8569C8.81049 73.0596 8.44297 74.4232 8.439 75.812C8.43502 77.2008 8.79472 78.5665 9.48232 79.7732C10.1699 80.9798 11.1615 81.9854 12.3583 82.69C13.5552 83.3945 14.9156 83.7734 16.3043 83.789H83.6911C85.0792 83.773 86.439 83.394 87.6353 82.6897C88.8315 81.9854 89.8227 80.9803 90.5101 79.7742C91.1976 78.5682 91.5575 77.2032 91.5541 75.815C91.5506 74.4268 91.1839 73.0637 90.4905 71.8611L56.8012 15.6043C56.0924 14.4344 55.0939 13.467 53.9022 12.7956C52.7104 12.1242 51.3656 11.7715 49.9977 11.7715C48.6298 11.7715 47.2851 12.1242 46.0933 12.7956C44.9015 13.467 43.903 14.4344 43.1942 15.6043V15.6085Z" stroke="#E31D23" stroke-width="6" stroke-linecap="round" stroke-linejoin="round"/>
<path d="M50 67.1816H50.0411" stroke="#E31D23" stroke-width="6" stroke-linecap="round" stroke-linejoin="round"/>
</g>
<defs>
<clipPath id="clip0_1598_46029">
<rect width="99.746" height="99.746" fill="white" transform="translate(0.126953 0.683594)"/>
</clipPath>
</defs>
</svg>
