<svg width="100" height="101" viewBox="0 0 100 101" fill="none" xmlns="http://www.w3.org/2000/svg">
<g clip-path="url(#clip0_1598_45844)">
<path d="M12.5625 50.2539C12.5625 55.1662 13.53 60.0303 15.4099 64.5687C17.2897 69.107 20.045 73.2306 23.5185 76.7041C26.992 80.1776 31.1157 82.9329 35.654 84.8128C40.1923 86.6926 45.0565 87.6602 49.9688 87.6602C54.881 87.6602 59.7452 86.6926 64.2835 84.8128C68.8218 82.9329 72.9455 80.1776 76.419 76.7041C79.8925 73.2306 82.6478 69.107 84.5276 64.5687C86.4075 60.0303 87.375 55.1662 87.375 50.2539C87.375 45.3416 86.4075 40.4775 84.5276 35.9392C82.6478 31.4008 79.8925 27.2772 76.419 23.8037C72.9455 20.3302 68.8218 17.5749 64.2835 15.695C59.7452 13.8152 54.881 12.8477 49.9688 12.8477C45.0565 12.8477 40.1923 13.8152 35.654 15.695C31.1157 17.5749 26.992 20.3302 23.5185 23.8037C20.045 27.2772 17.2897 31.4008 15.4099 35.9392C13.53 40.4775 12.5625 45.3416 12.5625 50.2539Z" stroke="#00E02B" stroke-width="6" stroke-linecap="round" stroke-linejoin="round"/>
<path d="M37.5 50.2539L45.8125 58.5664L62.4375 41.9414" stroke="#00E02B" stroke-width="6" stroke-linecap="round" stroke-linejoin="round"/>
</g>
<defs>
<clipPath id="clip0_1598_45844">
<rect width="99.75" height="99.75" fill="white" transform="translate(0.09375 0.378906)"/>
</clipPath>
</defs>
</svg>
