<svg width="19" height="19" viewBox="0 0 19 19" fill="none" xmlns="http://www.w3.org/2000/svg">
<g clip-path="url(#clip0_47_1170)">
<path d="M10.0168 1.71759C8.02216 1.71759 6.1092 2.50996 4.69877 3.92039C3.28834 5.33082 2.49597 7.24377 2.49597 9.23842C2.49597 11.2331 3.28834 13.146 4.69877 14.5565C6.1092 15.9669 8.02216 16.7593 10.0168 16.7593C12.0115 16.7593 13.9244 15.9669 15.3348 14.5565C16.7453 13.146 17.5376 11.2331 17.5376 9.23842C17.5376 7.24377 16.7453 5.33082 15.3348 3.92039C13.9244 2.50996 12.0115 1.71759 10.0168 1.71759Z" fill="#039BE5"/>
<path d="M11.0147 11.2323H12.961L13.2666 9.25511H11.0143V8.17448C11.0143 7.35313 11.2827 6.62479 12.051 6.62479H13.2856V4.89936C13.0687 4.87006 12.6099 4.80594 11.7431 4.80594C9.93291 4.80594 8.87168 5.76188 8.87168 7.93975V9.25511H7.01086V11.2323H8.87168V16.6667C9.2402 16.7221 9.61347 16.7597 9.99663 16.7597C10.343 16.7597 10.681 16.728 11.0147 16.6829V11.2323Z" fill="white"/>
</g>
<defs>
<clipPath id="clip0_47_1170">
<rect width="18.0049" height="18.0049" fill="white" transform="translate(0.494141 0.733154)"/>
</clipPath>
</defs>
</svg>
