<svg width="19" height="19" viewBox="0 0 19 19" fill="none" xmlns="http://www.w3.org/2000/svg">
<g clip-path="url(#clip0_743_2009)">
<path d="M9.83984 16.4031H6.08984C5.69202 16.4031 5.31049 16.245 5.02918 15.9637C4.74788 15.6824 4.58984 15.3009 4.58984 14.9031V4.40308C4.58984 4.00525 4.74788 3.62372 5.02918 3.34242C5.31049 3.06111 5.69202 2.90308 6.08984 2.90308H12.0898C12.4877 2.90308 12.8692 3.06111 13.1505 3.34242C13.4318 3.62372 13.5898 4.00525 13.5898 4.40308V8.15308" stroke="#2A2A2A" stroke-width="1.2" stroke-linecap="round" stroke-linejoin="round"/>
<path d="M8.3418 3.65283H9.84239" stroke="#2A2A2A" stroke-width="1.2" stroke-linecap="round" stroke-linejoin="round"/>
<path d="M9.08984 13.4033V13.4109" stroke="#2A2A2A" stroke-width="1.2" stroke-linecap="round" stroke-linejoin="round"/>
<path d="M15.8398 11.9031H13.9648C13.6665 11.9031 13.3803 12.0216 13.1693 12.2326C12.9584 12.4436 12.8398 12.7297 12.8398 13.0281C12.8398 13.3264 12.9584 13.6126 13.1693 13.8236C13.3803 14.0345 13.6665 14.1531 13.9648 14.1531H14.7148C15.0132 14.1531 15.2994 14.2716 15.5103 14.4826C15.7213 14.6936 15.8398 14.9797 15.8398 15.2781C15.8398 15.5764 15.7213 15.8626 15.5103 16.0736C15.2994 16.2845 15.0132 16.4031 14.7148 16.4031H12.8398" stroke="#2A2A2A" stroke-width="1.2" stroke-linecap="round" stroke-linejoin="round"/>
<path d="M14.3398 16.4033V17.1533M14.3398 11.1533V11.9033" stroke="#2A2A2A" stroke-width="1.12744" stroke-linecap="round" stroke-linejoin="round"/>
</g>
<defs>
<clipPath id="clip0_743_2009">
<rect width="18" height="18" fill="white" transform="translate(0.0898438 0.65332)"/>
</clipPath>
</defs>
</svg>
