<svg width="28" height="28" viewBox="0 0 28 28" fill="none" xmlns="http://www.w3.org/2000/svg">
<g clip-path="url(#clip0_743_2214)">
<path d="M12.067 14.0169L8.65362 10.6035H6.37803C6.07627 10.6035 5.78686 10.7234 5.57349 10.9368C5.36011 11.1501 5.24023 11.4395 5.24023 11.7413V16.2925C5.24023 16.5942 5.36011 16.8837 5.57349 17.097C5.78686 17.3104 6.07627 17.4303 6.37803 17.4303H8.65362L12.067 14.0169Z" stroke="#2A2A2A" stroke-width="1.73" stroke-linecap="round" stroke-linejoin="round"/>
<path d="M15.6562 14.0169L19.0696 10.6035H21.3452C21.647 10.6035 21.9364 10.7234 22.1498 10.9368C22.3631 11.1501 22.483 11.4395 22.483 11.7413V16.2925C22.483 16.5942 22.3631 16.8837 22.1498 17.097C21.9364 17.3104 21.647 17.4303 21.3452 17.4303H19.0696L15.6562 14.0169Z" stroke="#2A2A2A" stroke-width="1.73" stroke-linecap="round" stroke-linejoin="round"/>
<path d="M13.9856 16.4336L10.5723 19.847V22.1226C10.5723 22.4243 10.6921 22.7137 10.9055 22.9271C11.1189 23.1405 11.4083 23.2604 11.7101 23.2604H16.2612C16.563 23.2604 16.8524 23.1405 17.0658 22.9271C17.2792 22.7137 17.399 22.4243 17.399 22.1226V19.847L13.9856 16.4336Z" stroke="#2A2A2A" stroke-width="1.73" stroke-linecap="round" stroke-linejoin="round"/>
<path d="M13.9856 11.8492L10.5723 8.43584V6.16026C10.5723 5.85849 10.6921 5.56909 10.9055 5.35571C11.1189 5.14234 11.4083 5.02246 11.7101 5.02246H16.2612C16.563 5.02246 16.8524 5.14234 17.0658 5.35571C17.2792 5.56909 17.399 5.85849 17.399 6.16026V8.43584L13.9856 11.8492Z" stroke="#2A2A2A" stroke-width="1.73" stroke-linecap="round" stroke-linejoin="round"/>
</g>
<defs>
<clipPath id="clip0_743_2214">
<rect width="27.3071" height="27.3071" fill="white" transform="translate(0.332031 0.363281)"/>
</clipPath>
</defs>
</svg>
