<svg width="115" height="26" viewBox="0 0 115 26" fill="none" xmlns="http://www.w3.org/2000/svg">
<path d="M60.2935 25.9281C53.1479 25.9281 47.334 20.1168 47.334 12.9698C47.334 5.82487 53.1479 0.0107422 60.2935 0.0107422C67.4372 0.0107422 73.2513 5.82297 73.2513 12.9698C73.2513 20.1168 67.4372 25.9281 60.2935 25.9281ZM60.2935 5.34305C56.0863 5.34305 52.6634 8.76402 52.6634 12.9698C52.6634 17.1779 56.0866 20.6005 60.2935 20.6005C64.499 20.6005 67.9219 17.1776 67.9219 12.9698C67.9219 8.76402 64.4988 5.34305 60.2935 5.34305Z" fill="url(#paint0_linear_562_5245)"/>
<path d="M80.8795 25.9281C73.7358 25.9281 67.9219 20.1168 67.9219 12.9698C67.9219 5.82487 73.7351 0.0107422 80.8795 0.0107422C88.0272 0.0107422 93.8385 5.82297 93.8385 12.9698C93.8392 20.1168 88.0272 25.9281 80.8795 25.9281ZM80.8795 5.54484C76.7846 5.54484 73.4541 8.87708 73.4541 12.9695C73.4541 17.066 76.7866 20.3968 80.8795 20.3968C84.9745 20.3968 88.3051 17.066 88.3051 12.9695C88.3051 8.87708 84.9745 5.54484 80.8795 5.54484Z" fill="url(#paint1_linear_562_5245)"/>
<path opacity="0.44" d="M73.013 15.4908C73.3126 13.6687 73.8007 12.3499 73.9085 11.7397C74.6493 7.7935 77.6011 5.56302 81.2766 5.55419V0.0126953C76.6828 0.0210438 72.3268 2.55803 70.0772 6.38594C70.0772 6.38594 68.1196 9.40476 68.0989 12.0624C68.0738 12.3935 68.2587 13.3517 68.1323 13.9924C67.4701 18.4922 63.8199 21.1475 59.2266 20.4906V25.8527C64.739 26.3641 68.3548 23.981 70.8057 20.768C70.8054 20.7666 72.4945 18.5857 73.013 15.4908Z" fill="#CB0000"/>
<path d="M0.425781 12.7767C0.425781 5.38157 5.69368 0.00537109 12.944 0.00537109C17.4166 0.00537109 20.123 1.70298 21.7097 3.57734C22.1791 4.15529 22.431 4.73301 22.431 5.30882C22.431 6.78841 21.2415 7.83555 19.9052 7.83555C19.2929 7.83555 18.7526 7.58343 18.3192 7.29385C16.6941 6.2126 15.6131 5.05693 12.871 5.05693C9.11991 5.05693 6.16168 8.3033 6.16168 12.8108C6.16168 17.3204 9.19146 20.567 13.0146 20.567C15.7925 20.567 16.946 19.341 18.4628 18.3296C18.8953 18.042 19.437 17.7879 20.051 17.7879C21.3858 17.7879 22.5395 18.8348 22.5395 20.3156C22.5395 20.8933 22.3229 21.4703 21.8545 22.0445C20.3012 23.9582 17.5602 25.6183 12.871 25.6183C5.656 25.6181 0.425781 20.2078 0.425781 12.7767Z" fill="#171717"/>
<path d="M45.1937 2.89277V24.03C45.1937 24.788 44.7245 25.2577 44.002 25.2577H40.6122C39.8539 25.2577 39.3864 24.7878 39.3864 24.03V15.7719H29.97V24.03C29.97 24.788 29.5006 25.2577 28.7793 25.2577H25.3877C24.6306 25.2577 24.1621 24.7878 24.1621 24.03V2.89277C24.1621 1.30464 25.4609 0.00561527 27.0493 0.00561527C28.6355 0.00561527 29.9707 1.30464 29.9707 2.89277V10.5407H39.3871V2.89277C39.3871 1.30464 40.6855 0.00561527 42.2726 0.00561527C43.8581 0.00537674 45.1937 1.3044 45.1937 2.89277Z" fill="#171717"/>
<path d="M102.729 5.77988V10.6485H110.484C112.071 10.6485 113.37 11.7665 113.37 13.3527C113.37 14.9389 112.071 16.0576 110.484 16.0576H102.729V24.0299C102.729 24.788 102.259 25.2577 101.537 25.2577H98.1484C97.3894 25.2577 96.9219 24.7878 96.9219 24.0299V3.18159C96.9219 1.30461 98.2192 0.367188 99.7713 0.367188H99.8062H112.108C113.695 0.367188 114.995 1.48517 114.995 3.07234C114.995 4.66047 113.695 5.77845 112.108 5.77845H102.729L102.729 5.77988Z" fill="#171717"/>
<defs>
<linearGradient id="paint0_linear_562_5245" x1="54.9176" y1="21.949" x2="65.9742" y2="3.47942" gradientUnits="userSpaceOnUse">
<stop offset="0.0012" stop-color="#CB0000"/>
<stop offset="0.2173" stop-color="#C60000"/>
<stop offset="0.4912" stop-color="#B60000"/>
<stop offset="0.7746" stop-color="#9E0000"/>
<stop offset="0.9974" stop-color="#720000"/>
</linearGradient>
<linearGradient id="paint1_linear_562_5245" x1="85.0249" y1="2.31231" x2="77.1089" y2="22.6677" gradientUnits="userSpaceOnUse">
<stop offset="0.0012" stop-color="#CB0000"/>
<stop offset="0.2173" stop-color="#C60000"/>
<stop offset="0.4912" stop-color="#B60000"/>
<stop offset="0.7746" stop-color="#9E0000"/>
<stop offset="0.9974" stop-color="#720000"/>
</linearGradient>
</defs>
</svg>
