<svg width="25" height="25" viewBox="0 0 25 25" fill="none" xmlns="http://www.w3.org/2000/svg">
<path d="M3.02344 12.3506C3.02344 13.5325 3.25623 14.7028 3.70852 15.7947C4.16081 16.8867 4.82375 17.8788 5.65948 18.7145C6.4952 19.5503 7.48736 20.2132 8.57929 20.6655C9.67122 21.1178 10.8415 21.3506 12.0234 21.3506C13.2053 21.3506 14.3757 21.1178 15.4676 20.6655C16.5595 20.2132 17.5517 19.5503 18.3874 18.7145C19.2231 17.8788 19.8861 16.8867 20.3384 15.7947C20.7906 14.7028 21.0234 13.5325 21.0234 12.3506C21.0234 11.1687 20.7906 9.99837 20.3384 8.90644C19.8861 7.8145 19.2231 6.82235 18.3874 5.98662C17.5517 5.1509 16.5595 4.48796 15.4676 4.03567C14.3757 3.58338 13.2053 3.35059 12.0234 3.35059C10.8415 3.35059 9.67122 3.58338 8.57929 4.03567C7.48736 4.48796 6.4952 5.1509 5.65948 5.98662C4.82375 6.82235 4.16081 7.8145 3.70852 8.90644C3.25623 9.99837 3.02344 11.1687 3.02344 12.3506Z" stroke="white" stroke-width="1.5" stroke-linecap="round" stroke-linejoin="round"/>
<path d="M12.0234 17.3506V17.3606" stroke="white" stroke-width="1.5" stroke-linecap="round" stroke-linejoin="round"/>
<path d="M12.0234 13.8505C12.005 13.5259 12.0926 13.2041 12.273 12.9335C12.4533 12.663 12.7167 12.4584 13.0234 12.3505C13.3993 12.2068 13.7367 11.9777 14.009 11.6815C14.2813 11.3852 14.4812 11.0297 14.5928 10.6431C14.7044 10.2565 14.7247 9.8492 14.6522 9.45337C14.5796 9.05754 14.4162 8.68396 14.1748 8.36202C13.9333 8.04009 13.6204 7.77859 13.2607 7.59813C12.901 7.41766 12.5044 7.32315 12.102 7.32203C11.6995 7.32092 11.3024 7.41323 10.9417 7.59169C10.581 7.77016 10.2667 8.02992 10.0234 8.35051" stroke="white" stroke-width="1.5" stroke-linecap="round" stroke-linejoin="round"/>
</svg>
