<svg width="33" height="33" viewBox="0 0 33 33" fill="none" xmlns="http://www.w3.org/2000/svg">
<g clip-path="url(#clip0_686_240)">
<path d="M16.2647 4.68865C16.4407 4.68865 16.6154 4.68865 16.7887 4.68865C15.0758 6.28026 13.9748 8.42177 13.6771 10.7409C13.3793 13.0601 13.9037 15.4103 15.159 17.383C16.4143 19.3556 18.3212 20.826 20.5482 21.5386C22.7751 22.2512 25.1814 22.1608 27.3487 21.2833C26.515 23.2893 25.1524 25.0314 23.4063 26.3237C21.6601 27.616 19.5959 28.41 17.4339 28.6212C15.2718 28.8323 13.093 28.4526 11.1299 27.5225C9.16671 26.5924 7.49283 25.1469 6.2868 23.3401C5.08077 21.5333 4.38782 19.433 4.28186 17.2633C4.17591 15.0935 4.66093 12.9357 5.68518 11.02C6.70943 9.10429 8.2345 7.50254 10.0977 6.38562C11.9609 5.2687 14.0924 4.6785 16.2647 4.67798V4.68865Z" stroke="white" stroke-width="1.5" stroke-linecap="round" stroke-linejoin="round"/>
</g>
<defs>
<clipPath id="clip0_686_240">
<rect width="32" height="32" fill="white" transform="translate(0.265625 0.688721)"/>
</clipPath>
</defs>
</svg>
