<svg width="33" height="33" viewBox="0 0 33 33" fill="none" xmlns="http://www.w3.org/2000/svg">
<g clip-path="url(#clip0_830_430)">
<path d="M16.0235 4.85051C16.1995 4.85051 16.3741 4.85051 16.5475 4.85051C14.8346 6.44212 13.7336 8.58364 13.4359 10.9028C13.1381 13.222 13.6625 15.5722 14.9178 17.5448C16.1731 19.5175 18.08 20.9879 20.3069 21.7005C22.5339 22.413 24.9402 22.3227 27.1075 21.4452C26.2738 23.4512 24.9112 25.1932 23.1651 26.4855C21.4189 27.7778 19.3547 28.5719 17.1927 28.783C15.0306 28.9942 12.8518 28.6144 10.8887 27.6844C8.9255 26.7543 7.25162 25.3088 6.04559 23.502C4.83956 21.6952 4.14661 19.5949 4.04065 17.4251C3.9347 15.2554 4.41971 13.0976 5.44397 11.1819C6.46822 9.26615 7.99329 7.66441 9.85649 6.54749C11.7197 5.43057 13.8511 4.84037 16.0235 4.83984V4.85051Z" stroke="#2A2A2A" stroke-width="1.5" stroke-linecap="round" stroke-linejoin="round"/>
</g>
<defs>
<clipPath id="clip0_830_430">
<rect width="32" height="32" fill="white" transform="translate(0.0234375 0.850586)"/>
</clipPath>
</defs>
</svg>
