<svg width="201" height="40" viewBox="0 0 201 40" fill="none" xmlns="http://www.w3.org/2000/svg">
<path d="M200.484 8.60142C200.484 11.4953 198.126 13.7462 195.339 13.7462C192.552 13.7462 190.194 11.3882 190.194 8.60142C190.194 5.81468 192.552 3.45667 195.339 3.45667C198.233 3.45667 200.484 5.81468 200.484 8.60142ZM192.338 25.1075C192.231 33.039 185.8 39.4699 177.868 39.3627C170.044 39.2556 163.613 32.9318 163.613 25.1075C163.613 33.039 157.075 39.4699 149.143 39.4699C141.319 39.4699 134.888 33.039 134.781 25.2147C134.781 33.1462 128.35 39.5771 120.418 39.5771C116.346 39.5771 112.487 37.8622 109.807 34.8611C108.092 32.9318 106.806 30.5738 106.378 28.0014H84.9411L85.2626 28.8589C86.3345 31.0025 88.3709 32.5031 90.7289 32.9318C91.4792 33.039 92.1223 33.1462 92.8726 33.1462H93.1941C94.6947 33.1462 96.0881 32.7174 97.4814 31.9672L98.1245 31.5384C98.5533 31.2169 99.0892 31.1097 99.6251 31.4313L103.484 33.5749C103.805 33.7893 104.02 34.1108 104.127 34.5395C104.127 34.8611 104.02 35.2898 103.805 35.5042L102.841 36.4688L102.733 36.576C100.268 38.5053 97.1599 39.5771 93.4085 39.6843C93.1941 39.6843 93.087 39.6843 92.8726 39.6843C92.4439 39.6843 92.0151 39.6843 91.5864 39.6843L90.5146 39.4699C83.2262 38.7197 77.6527 32.3959 77.7599 25.0003C77.7599 23.2854 78.0814 21.5705 78.7245 19.9627L78.6173 19.8556C76.9024 17.9263 74.33 16.8545 71.7577 17.176C67.7919 17.4976 64.6836 20.8202 64.7908 24.786V37.755C64.7908 38.6125 64.0405 39.3627 63.1831 39.3627H60.0748C59.2173 39.3627 58.4671 38.6125 58.4671 37.755V25.429C58.3599 33.3605 51.7146 39.6843 43.7831 39.5771C35.9588 39.4699 29.635 33.039 29.635 25.2147C29.635 33.1462 23.2041 39.5771 15.2726 39.5771C7.34109 39.5771 0.910156 33.1462 0.910156 25.2147C0.910156 17.2832 7.34109 10.8523 15.2726 10.8523C23.2041 10.8523 29.635 17.2832 29.635 25.2147C29.635 17.2832 36.066 10.8523 43.9974 10.8523C51.8218 10.8523 58.2527 17.176 58.3599 25.0003V12.7815C58.3599 11.9241 59.1102 11.1738 59.9676 11.1738H63.0759C63.9334 11.1738 64.6836 11.9241 64.6836 12.7815V13.5318C66.6129 12.0313 68.8637 11.0666 71.2218 10.7451C75.2947 10.3163 79.2604 11.8169 82.1544 14.7108C87.9422 9.24452 97.0527 9.56606 102.519 15.2467C104.341 17.176 105.627 19.6412 106.163 22.2136C107.771 14.3893 115.274 9.3517 123.098 10.9594C124.813 11.281 126.313 11.9241 127.814 12.7815L128.136 12.9959V2.27767C128.136 1.20584 128.993 0.455566 129.958 0.455566H132.744C133.816 0.455566 134.567 1.31303 134.567 2.27767V25.0003C134.567 17.0688 140.997 10.6379 149.036 10.6379C156.968 10.6379 163.399 17.0688 163.399 25.1075C163.506 17.176 169.937 10.7451 177.868 10.8523C186.014 10.8523 192.338 17.2832 192.338 25.1075ZM23.0969 25.1075C23.0969 20.713 19.5599 17.176 15.1654 17.176C10.7709 17.176 7.23391 20.713 7.23391 25.1075C7.23391 29.502 10.7709 33.039 15.1654 33.039C19.5599 33.039 23.0969 29.502 23.0969 25.1075ZM51.9289 25.1075C51.9289 20.713 48.3919 17.176 43.9974 17.176C39.603 17.176 36.066 20.713 36.066 25.1075C36.066 29.502 39.603 33.039 43.9974 33.039C48.3919 33.039 51.9289 29.502 51.9289 25.1075ZM99.4107 22.1064C97.6958 18.1406 93.1941 16.2114 89.1212 17.8191C87.1919 18.5694 85.6914 20.1771 84.8339 21.9992L99.4107 22.1064ZM128.243 25.1075C128.243 20.713 124.706 17.176 120.311 17.176H120.204C116.024 17.2832 112.594 20.713 112.487 24.8931C112.38 29.2876 115.917 32.8246 120.311 32.9318C124.706 33.039 128.243 29.6092 128.243 25.1075ZM157.075 25.1075C157.075 20.713 153.538 17.176 149.143 17.176C144.749 17.176 141.212 20.713 141.212 25.1075C141.212 29.502 144.749 33.039 149.143 33.039C153.538 33.039 157.075 29.502 157.075 25.1075ZM185.907 25.1075C185.907 20.713 182.37 17.176 177.975 17.176C173.581 17.176 170.044 20.713 170.044 25.1075C170.044 29.502 173.581 33.039 177.975 33.039C182.37 33.039 185.907 29.502 185.907 25.1075Z" fill="#E31E24"/>
</svg>
