<svg width="201" height="40" viewBox="0 0 201 40" fill="none" xmlns="http://www.w3.org/2000/svg">
<path d="M200.085 8.60142C200.085 11.4953 197.727 13.7462 194.94 13.7462C192.154 13.7462 189.796 11.3882 189.796 8.60142C189.796 5.81468 192.154 3.45667 194.94 3.45667C197.834 3.45667 200.085 5.81468 200.085 8.60142ZM191.939 25.1075C191.832 33.039 185.401 39.4699 177.47 39.3627C169.645 39.2556 163.214 32.9318 163.214 25.1075C163.214 33.039 156.676 39.4699 148.745 39.4699C140.921 39.4699 134.49 33.039 134.382 25.2147C134.382 33.1462 127.951 39.5771 120.02 39.5771C115.947 39.5771 112.089 37.8622 109.409 34.8611C107.694 32.9318 106.408 30.5738 105.979 28.0014H84.5427L84.8642 28.8589C85.936 31.0025 87.9725 32.5031 90.3305 32.9318C91.0808 33.039 91.7239 33.1462 92.4741 33.1462H92.7957C94.2962 33.1462 95.6896 32.7174 97.083 31.9672L97.7261 31.5384C98.1548 31.2169 98.6907 31.1097 99.2266 31.4313L103.085 33.5749C103.407 33.7893 103.621 34.1108 103.728 34.5395C103.728 34.8611 103.621 35.2898 103.407 35.5042L102.442 36.4688L102.335 36.576C99.8697 38.5053 96.7614 39.5771 93.0101 39.6843C92.7957 39.6843 92.6885 39.6843 92.4741 39.6843C92.0454 39.6843 91.6167 39.6843 91.188 39.6843L90.1161 39.4699C82.8277 38.7197 77.2543 32.3959 77.3614 25.0003C77.3614 23.2854 77.683 21.5705 78.3261 19.9627L78.2189 19.8556C76.504 17.9263 73.9316 16.8545 71.3592 17.176C67.3935 17.4976 64.2852 20.8202 64.3924 24.786V37.755C64.3924 38.6125 63.6421 39.3627 62.7846 39.3627H59.6764C58.8189 39.3627 58.0686 38.6125 58.0686 37.755V25.429C57.9614 33.3605 51.3161 39.6843 43.3846 39.5771C35.5603 39.4699 29.2366 33.039 29.2366 25.2147C29.2366 33.1462 22.8056 39.5771 14.8741 39.5771C6.94266 39.5771 0.511719 33.1462 0.511719 25.2147C0.511719 17.2832 6.94266 10.8523 14.8741 10.8523C22.8056 10.8523 29.2366 17.2832 29.2366 25.2147C29.2366 17.2832 35.6675 10.8523 43.599 10.8523C51.4233 10.8523 57.8543 17.176 57.9614 25.0003V12.7815C57.9614 11.9241 58.7117 11.1738 59.5692 11.1738H62.6775C63.5349 11.1738 64.2852 11.9241 64.2852 12.7815V13.5318C66.2145 12.0313 68.4653 11.0666 70.8233 10.7451C74.8962 10.3163 78.862 11.8169 81.7559 14.7108C87.5438 9.24452 96.6543 9.56606 102.121 15.2467C103.943 17.176 105.229 19.6412 105.765 22.2136C107.372 14.3893 114.875 9.3517 122.7 10.9594C124.414 11.281 125.915 11.9241 127.416 12.7815L127.737 12.9959V2.27767C127.737 1.20584 128.595 0.455566 129.559 0.455566H132.346C133.418 0.455566 134.168 1.31303 134.168 2.27767V25.0003C134.168 17.0688 140.599 10.6379 148.638 10.6379C156.569 10.6379 163 17.0688 163 25.1075C163.107 17.176 169.538 10.7451 177.47 10.8523C185.616 10.8523 191.939 17.2832 191.939 25.1075ZM22.6985 25.1075C22.6985 20.713 19.1614 17.176 14.767 17.176C10.3725 17.176 6.83548 20.713 6.83548 25.1075C6.83548 29.502 10.3725 33.039 14.767 33.039C19.1614 33.039 22.6985 29.502 22.6985 25.1075ZM51.5305 25.1075C51.5305 20.713 47.9935 17.176 43.599 17.176C39.2045 17.176 35.6675 20.713 35.6675 25.1075C35.6675 29.502 39.2045 33.039 43.599 33.039C47.9935 33.039 51.5305 29.502 51.5305 25.1075ZM99.0123 22.1064C97.2974 18.1406 92.7957 16.2114 88.7228 17.8191C86.7935 18.5694 85.2929 20.1771 84.4355 21.9992L99.0123 22.1064ZM127.844 25.1075C127.844 20.713 124.307 17.176 119.913 17.176H119.806C115.626 17.2832 112.196 20.713 112.089 24.8931C111.981 29.2876 115.518 32.8246 119.913 32.9318C124.307 33.039 127.844 29.6092 127.844 25.1075ZM156.676 25.1075C156.676 20.713 153.139 17.176 148.745 17.176C144.35 17.176 140.813 20.713 140.813 25.1075C140.813 29.502 144.35 33.039 148.745 33.039C153.139 33.039 156.676 29.502 156.676 25.1075ZM185.508 25.1075C185.508 20.713 181.971 17.176 177.577 17.176C173.182 17.176 169.645 20.713 169.645 25.1075C169.645 29.502 173.182 33.039 177.577 33.039C181.971 33.039 185.508 29.502 185.508 25.1075Z" fill="white"/>
</svg>
