<svg width="33" height="33" viewBox="0 0 33 33" fill="none" xmlns="http://www.w3.org/2000/svg">
<path d="M10.9316 16.6888C10.9316 18.1033 11.4935 19.4598 12.4937 20.46C13.4939 21.4602 14.8505 22.0221 16.265 22.0221C17.6795 22.0221 19.036 21.4602 20.0362 20.46C21.0364 19.4598 21.5983 18.1033 21.5983 16.6888C21.5983 15.2743 21.0364 13.9178 20.0362 12.9176C19.036 11.9174 17.6795 11.3555 16.265 11.3555C14.8505 11.3555 13.4939 11.9174 12.4937 12.9176C11.4935 13.9178 10.9316 15.2743 10.9316 16.6888Z" stroke="#2A2A2A" stroke-width="1.5" stroke-linecap="round" stroke-linejoin="round"/>
<path d="M4.26562 16.6887H5.59896M16.2656 4.68872V6.02205M26.9323 16.6887H28.2656M16.2656 27.3554V28.6887M7.73229 8.15539L8.66563 9.08872M24.799 8.15539L23.8656 9.08872M23.8656 24.2887L24.799 25.2221M8.66563 24.2887L7.73229 25.2221" stroke="#2A2A2A" stroke-width="1.5" stroke-linecap="round" stroke-linejoin="round"/>
</svg>
