<svg width="29" height="28" viewBox="0 0 29 28" fill="none" xmlns="http://www.w3.org/2000/svg">
<g clip-path="url(#clip0_562_5267)">
<path d="M23.3993 4.84546L21.0859 7.15879" stroke="white" stroke-width="2" stroke-linecap="round" stroke-linejoin="round"/>
<path d="M25.712 12.3637L22.8203 11.7854" stroke="white" stroke-width="2" stroke-linecap="round" stroke-linejoin="round"/>
<path d="M15.8809 2.53198L16.4592 5.42365" stroke="white" stroke-width="2" stroke-linecap="round" stroke-linejoin="round"/>
<path d="M6.04966 4.84546H10.6763L12.9897 10.6288L10.098 12.3638C11.3367 14.8755 13.3696 16.9084 15.8813 18.1471L17.6163 15.2555L23.3997 17.5688V22.1955C23.3997 22.809 23.1559 23.3974 22.7221 23.8312C22.2883 24.2651 21.6999 24.5088 21.0863 24.5088C11.7497 23.942 4.30309 16.4954 3.73633 7.15879C3.73633 6.54526 3.98005 5.95685 4.41389 5.52302C4.84772 5.08918 5.43613 4.84546 6.04966 4.84546Z" stroke="white" stroke-width="2" stroke-linecap="round" stroke-linejoin="round"/>
</g>
<defs>
<clipPath id="clip0_562_5267">
<rect width="27.76" height="27.76" fill="white" transform="translate(0.265625 0.21875)"/>
</clipPath>
</defs>
</svg>
