<svg width="19" height="19" viewBox="0 0 19 19" fill="none" xmlns="http://www.w3.org/2000/svg">
<rect x="1.49512" y="1.9111" width="16" height="16" rx="8" fill="#E31C24"/>
<path d="M14.4951 8.1111C14.4951 7.6161 13.6618 6.7611 13.6618 6.7611C13.6618 6.7611 12.8285 7.6161 12.8285 8.1111C12.8285 8.4261 12.9951 8.7411 13.2451 8.8761V10.8111H12.4118V9.9111C12.4118 9.5061 12.1201 9.1461 11.7868 9.0561C11.9118 8.7861 11.9951 8.5161 11.9951 8.1561C11.9951 7.5711 11.7451 7.0311 11.2868 6.7161L9.49512 5.4111L7.70345 6.6711C7.28678 7.0311 6.99512 7.5711 6.99512 8.1561C6.99512 8.4711 7.07845 8.7861 7.24512 9.0561C6.87012 9.1461 6.57845 9.5061 6.57845 9.9111V10.8111H5.74512V8.8761C5.99512 8.7411 6.16178 8.4261 6.16178 8.1111C6.16178 7.6161 5.32845 6.7611 5.32845 6.7611C5.32845 6.7611 4.49512 7.6161 4.49512 8.1111C4.49512 8.4261 4.66178 8.7411 4.91178 8.8761V14.4111H9.07845V12.6111C9.07845 12.3861 9.24512 12.1611 9.49512 12.1611C9.74512 12.1611 9.91178 12.3861 9.91178 12.6111V14.4111H14.0785V8.8761C14.3285 8.7411 14.4951 8.4261 14.4951 8.1111ZM8.20345 7.4361L9.49512 6.4911L10.7868 7.4361C11.0368 7.6161 11.1618 7.8411 11.1618 8.1561C11.1618 8.6061 10.7868 9.0111 10.3701 9.0111H8.62012C8.20345 9.0111 7.82845 8.6061 7.82845 8.1561C7.82845 7.8411 7.95345 7.6161 8.20345 7.4361ZM13.2451 13.5111H10.7451V12.6111C10.7451 11.8911 10.1618 11.2611 9.49512 11.2611C8.82845 11.2611 8.24512 11.8911 8.24512 12.6111V13.5111H5.74512V11.7111H7.41178V9.9111H11.5785V11.7111H13.2451V13.5111Z" fill="white"/>
</svg>
