<svg width="19" height="19" viewBox="0 0 19 19" fill="none" xmlns="http://www.w3.org/2000/svg">
<g clip-path="url(#clip0_121_286)">
<path d="M15.9989 1.81613H2.9989C2.70394 1.81313 2.41983 1.92726 2.20892 2.13348C1.99801 2.33971 1.87753 2.62117 1.8739 2.91613V15.9686C1.87818 16.2631 1.99896 16.544 2.2098 16.7497C2.42064 16.9553 2.70437 17.0691 2.9989 17.0661H15.9989C16.2939 17.0685 16.5778 16.9539 16.7886 16.7476C16.9994 16.5412 17.1199 16.2598 17.1239 15.9649V2.91238C17.1186 2.61829 16.9975 2.33816 16.7869 2.13289C16.5762 1.92761 16.293 1.81378 15.9989 1.81613Z" fill="#0076B2"/>
<path d="M4.13142 7.53238H6.39517V14.8161H4.13142V7.53238ZM5.26392 3.90738C5.52356 3.90738 5.77737 3.98439 5.99323 4.12866C6.2091 4.27294 6.37732 4.478 6.47663 4.7179C6.57593 4.9578 6.60185 5.22176 6.5511 5.4764C6.50036 5.73103 6.37523 5.96489 6.19155 6.1484C6.00787 6.33191 5.77389 6.45681 5.51921 6.50731C5.26452 6.55781 5.00058 6.53164 4.76078 6.43211C4.52097 6.33258 4.31607 6.16416 4.172 5.94816C4.02794 5.73215 3.95117 5.47827 3.95142 5.21863C3.95175 4.87075 4.09017 4.53723 4.33628 4.29136C4.58239 4.04549 4.91604 3.90738 5.26392 3.90738ZM7.81517 7.53238H9.98517V8.53238H10.0152C10.3177 7.95988 11.0552 7.35613 12.1564 7.35613C14.4489 7.35113 14.8739 8.85988 14.8739 10.8161V14.8161H12.6102V11.2724C12.6102 10.4286 12.5952 9.34238 11.4339 9.34238C10.2727 9.34238 10.0752 10.2624 10.0752 11.2174V14.8161H7.81517V7.53238Z" fill="white"/>
</g>
<defs>
<clipPath id="clip0_121_286">
<rect width="16" height="16" fill="white" transform="translate(1.4989 1.44113)"/>
</clipPath>
</defs>
</svg>
