<svg width="206" height="61" viewBox="0 0 206 61" fill="none" xmlns="http://www.w3.org/2000/svg">
<path d="M124.659 59.2519C123.946 58.4678 123.591 57.3888 123.591 56.0147V50.4992C123.591 50.3555 123.639 50.2391 123.73 50.1576C123.826 50.0722 123.938 50.0295 124.073 50.0295H125.887C126.023 50.0295 126.135 50.0761 126.23 50.1653C126.326 50.2585 126.37 50.3672 126.37 50.4992V55.8983C126.37 57.5091 127.087 58.3126 128.527 58.3126C129.224 58.3126 129.779 58.0952 130.189 57.6643C130.6 57.2335 130.803 56.6435 130.803 55.8983V50.4992C130.803 50.3555 130.851 50.2391 130.943 50.1576C131.039 50.0722 131.15 50.0295 131.286 50.0295H133.08C133.227 50.0295 133.347 50.0722 133.435 50.1576C133.522 50.243 133.566 50.3555 133.566 50.4992V59.7642C133.566 59.8962 133.522 60.0049 133.435 60.098C133.347 60.1912 133.231 60.2339 133.08 60.2339H131.405C131.27 60.2339 131.158 60.1873 131.062 60.098C130.967 60.0049 130.923 59.8962 130.923 59.7642V58.9608C130.185 59.9428 129.069 60.4318 127.578 60.4318C126.342 60.4318 125.365 60.0398 124.655 59.2558L124.659 59.2519Z" fill="black"/>
<path d="M137.258 59.9777C136.573 59.6749 136.066 59.3256 135.735 58.9258C135.404 58.526 135.241 58.1845 135.241 57.8972C135.241 57.7653 135.285 57.6605 135.372 57.5828C135.46 57.5052 135.564 57.4664 135.683 57.4664H137.338C137.446 57.4664 137.541 57.5207 137.621 57.6216C137.689 57.676 137.84 57.8002 138.076 57.9943C138.311 58.1922 138.578 58.3436 138.881 58.4562C139.184 58.5687 139.515 58.6231 139.878 58.6231C140.416 58.6231 140.851 58.5222 141.189 58.3203C141.524 58.1185 141.692 57.8274 141.692 57.447C141.692 57.1869 141.616 56.9734 141.461 56.8104C141.305 56.6474 141.03 56.496 140.635 56.3602C140.241 56.2243 139.643 56.0691 138.849 55.8983C137.705 55.6615 136.864 55.3044 136.317 54.8192C135.771 54.334 135.5 53.6936 135.5 52.894C135.5 52.37 135.66 51.8771 135.982 51.4113C136.305 50.9455 136.784 50.569 137.426 50.274C138.064 49.979 138.825 49.8315 139.714 49.8315C140.603 49.8315 141.413 49.9713 142.075 50.2546C142.732 50.538 143.235 50.8718 143.578 51.2638C143.921 51.6558 144.092 52.0013 144.092 52.304C144.092 52.4205 144.048 52.5253 143.96 52.6068C143.873 52.6883 143.769 52.7349 143.649 52.7349H142.138C141.991 52.7349 141.875 52.6844 141.795 52.5796C141.7 52.5136 141.548 52.3933 141.341 52.2148C141.134 52.0362 140.902 51.8965 140.647 51.7917C140.392 51.6869 140.081 51.6364 139.718 51.6364C139.22 51.6364 138.837 51.7412 138.57 51.9508C138.303 52.1604 138.167 52.436 138.167 52.7737C138.167 53.0105 138.231 53.2045 138.359 53.3637C138.486 53.5189 138.745 53.6664 139.136 53.8062C139.527 53.942 140.109 54.0856 140.89 54.2292C143.311 54.6873 144.519 55.7158 144.519 57.3111C144.519 58.2388 144.104 58.9918 143.279 59.5701C142.453 60.1446 141.301 60.4318 139.822 60.4318C138.801 60.4318 137.948 60.2805 137.262 59.9816L137.258 59.9777Z" fill="black"/>
<path d="M146.636 48.2207C146.541 48.1276 146.497 48.0189 146.497 47.8869V46.4547C146.497 46.3111 146.545 46.1946 146.636 46.1015C146.728 46.0083 146.844 45.9656 146.979 45.9656H148.833C148.981 45.9656 149.1 46.0122 149.196 46.1015C149.292 46.1946 149.335 46.3111 149.335 46.4547V47.8869C149.335 48.0189 149.284 48.1276 149.184 48.2207C149.084 48.3139 148.965 48.3566 148.833 48.3566H146.979C146.844 48.3566 146.732 48.31 146.636 48.2207ZM146.716 60.0942C146.62 60.001 146.576 59.8923 146.576 59.7603V50.4953C146.576 50.3517 146.624 50.2352 146.716 50.1537C146.812 50.0683 146.923 50.0256 147.059 50.0256H148.773C148.909 50.0256 149.02 50.0722 149.116 50.1615C149.212 50.2546 149.256 50.3633 149.256 50.4953V59.7603C149.256 59.8923 149.208 60.001 149.116 60.0942C149.02 60.1873 148.909 60.23 148.773 60.23H147.059C146.923 60.23 146.812 60.1834 146.716 60.0942Z" fill="black"/>
<path d="M152.058 60.0942C151.962 60.001 151.919 59.8923 151.919 59.7603V50.4953C151.919 50.3517 151.966 50.2352 152.058 50.1537C152.154 50.0683 152.265 50.0256 152.401 50.0256H154.075C154.223 50.0256 154.343 50.0683 154.43 50.1537C154.518 50.2391 154.562 50.3517 154.562 50.4953V51.2987C155.383 50.3167 156.504 49.8277 157.931 49.8277C159.167 49.8277 160.148 50.2197 160.873 51.0038C161.599 51.7878 161.962 52.8669 161.962 54.2409V59.7565C161.962 59.8884 161.918 59.9971 161.83 60.0903C161.742 60.1834 161.627 60.2261 161.475 60.2261H159.661C159.526 60.2261 159.414 60.1795 159.318 60.0903C159.223 59.9971 159.179 59.8884 159.179 59.7565V54.3573C159.179 53.6005 158.987 53.0066 158.605 52.5796C158.222 52.1527 157.676 51.9431 156.962 51.9431C156.248 51.9431 155.726 52.1604 155.307 52.5913C154.889 53.0221 154.681 53.6121 154.681 54.3573V59.7565C154.681 59.8884 154.638 59.9971 154.55 60.0903C154.462 60.1834 154.347 60.2261 154.199 60.2261H152.405C152.269 60.2261 152.158 60.1795 152.062 60.0903L152.058 60.0942Z" fill="black"/>
<path d="M165.072 59.1704C164.191 58.332 163.725 57.1403 163.673 55.5994L163.653 55.1103C163.653 53.4762 164.091 52.1876 164.972 51.2444C165.854 50.3012 167.074 49.8315 168.633 49.8315C170.191 49.8315 171.467 50.3012 172.332 51.2444C173.198 52.1876 173.632 53.4413 173.632 55.0133V55.4247C173.632 55.5567 173.584 55.6654 173.493 55.7585C173.397 55.8517 173.277 55.8944 173.13 55.8944H166.436V56.0497C166.464 56.7833 166.667 57.3888 167.05 57.8662C167.432 58.3436 167.959 58.5843 168.633 58.5843C169.398 58.5843 170.024 58.2815 170.506 57.6799C170.626 57.5363 170.722 57.447 170.789 57.4159C170.857 57.3849 170.973 57.3655 171.132 57.3655H172.907C173.026 57.3655 173.13 57.3965 173.218 57.4625C173.305 57.5285 173.349 57.6178 173.349 57.7381C173.349 58.0525 173.158 58.4212 172.775 58.8482C172.392 59.2752 171.846 59.6439 171.132 59.9583C170.419 60.2727 169.593 60.4279 168.652 60.4279C167.145 60.4279 165.953 60.0088 165.072 59.1704ZM170.849 54.2254V54.1866C170.849 53.4141 170.65 52.797 170.255 52.3312C169.86 51.8654 169.318 51.6325 168.633 51.6325C167.947 51.6325 167.409 51.8654 167.018 52.3312C166.627 52.797 166.432 53.4141 166.432 54.1866V54.2254H170.845H170.849Z" fill="black"/>
<path d="M177.2 59.9777C176.514 59.6749 176.008 59.3256 175.677 58.9258C175.346 58.526 175.182 58.1845 175.182 57.8972C175.182 57.7653 175.226 57.6605 175.314 57.5828C175.402 57.5052 175.505 57.4664 175.625 57.4664H177.28C177.387 57.4664 177.483 57.5207 177.563 57.6216C177.63 57.676 177.782 57.8002 178.017 57.9943C178.252 58.1922 178.52 58.3436 178.823 58.4562C179.126 58.5687 179.457 58.6231 179.819 58.6231C180.358 58.6231 180.792 58.5222 181.131 58.3203C181.466 58.1185 181.633 57.8274 181.633 57.447C181.633 57.1869 181.558 56.9734 181.402 56.8104C181.247 56.6474 180.972 56.496 180.577 56.3602C180.182 56.2243 179.584 56.0691 178.791 55.8983C177.646 55.6615 176.805 55.3044 176.259 54.8192C175.713 54.334 175.442 53.6936 175.442 52.894C175.442 52.37 175.601 51.8771 175.924 51.4113C176.247 50.9455 176.725 50.569 177.367 50.274C178.005 49.979 178.767 49.8315 179.656 49.8315C180.545 49.8315 181.354 49.9713 182.016 50.2546C182.674 50.538 183.176 50.8718 183.519 51.2638C183.862 51.6558 184.034 52.0013 184.034 52.304C184.034 52.4205 183.99 52.5253 183.902 52.6068C183.814 52.6883 183.711 52.7349 183.591 52.7349H182.08C181.932 52.7349 181.817 52.6844 181.737 52.5796C181.641 52.5136 181.49 52.3933 181.283 52.2148C181.075 52.0362 180.844 51.8965 180.589 51.7917C180.334 51.6869 180.023 51.6364 179.66 51.6364C179.161 51.6364 178.779 51.7412 178.512 51.9508C178.244 52.1604 178.109 52.436 178.109 52.7737C178.109 53.0105 178.173 53.2045 178.3 53.3637C178.428 53.5189 178.687 53.6664 179.078 53.8062C179.468 53.942 180.051 54.0856 180.832 54.2292C183.252 54.6873 184.46 55.7158 184.46 57.3111C184.46 58.2388 184.046 58.9918 183.22 59.5701C182.395 60.1446 181.243 60.4318 179.763 60.4318C178.743 60.4318 177.89 60.2805 177.204 59.9816L177.2 59.9777Z" fill="black"/>
<path d="M187.945 59.9777C187.259 59.6749 186.753 59.3256 186.422 58.9258C186.091 58.526 185.928 58.1845 185.928 57.8972C185.928 57.7653 185.972 57.6605 186.059 57.5828C186.147 57.5052 186.251 57.4664 186.37 57.4664H188.025C188.133 57.4664 188.228 57.5207 188.308 57.6216C188.376 57.676 188.527 57.8002 188.762 57.9943C188.998 58.1922 189.265 58.3436 189.568 58.4562C189.871 58.5687 190.202 58.6231 190.565 58.6231C191.103 58.6231 191.537 58.5222 191.876 58.3203C192.211 58.1185 192.379 57.8274 192.379 57.447C192.379 57.1869 192.303 56.9734 192.147 56.8104C191.992 56.6474 191.717 56.496 191.322 56.3602C190.927 56.2243 190.329 56.0691 189.536 55.8983C188.392 55.6615 187.55 55.3044 187.004 54.8192C186.458 54.334 186.187 53.6936 186.187 52.894C186.187 52.37 186.346 51.8771 186.669 51.4113C186.992 50.9455 187.471 50.569 188.113 50.274C188.75 49.979 189.512 49.8315 190.401 49.8315C191.29 49.8315 192.1 49.9713 192.761 50.2546C193.419 50.538 193.922 50.8718 194.264 51.2638C194.607 51.6558 194.779 52.0013 194.779 52.304C194.779 52.4205 194.735 52.5253 194.647 52.6068C194.559 52.6883 194.456 52.7349 194.336 52.7349H192.825C192.678 52.7349 192.562 52.6844 192.482 52.5796C192.387 52.5136 192.235 52.3933 192.028 52.2148C191.82 52.0362 191.589 51.8965 191.334 51.7917C191.079 51.6869 190.768 51.6364 190.405 51.6364C189.907 51.6364 189.524 51.7412 189.257 51.9508C188.99 52.1604 188.854 52.436 188.854 52.7737C188.854 53.0105 188.918 53.2045 189.046 53.3637C189.173 53.5189 189.432 53.6664 189.823 53.8062C190.214 53.942 190.796 54.0856 191.577 54.2292C193.997 54.6873 195.205 55.7158 195.205 57.3111C195.205 58.2388 194.791 58.9918 193.965 59.5701C193.14 60.1446 191.988 60.4318 190.509 60.4318C189.488 60.4318 188.635 60.2805 187.949 59.9816L187.945 59.9777Z" fill="black"/>
<path d="M111.056 46.606L111.068 55.0754C111.068 58.0253 113.532 60.428 116.562 60.428C118.105 60.428 119.588 59.7914 120.629 58.6774C121.685 57.5518 122.184 56.0924 122.04 54.5669C121.865 52.7116 120.693 51.062 118.986 50.2663C117.268 49.4628 115.29 49.556 113.695 50.5147L113.552 50.6001L113.544 46.606C113.544 46.2257 113.225 45.9151 112.834 45.9151H111.766C111.375 45.9151 111.056 46.2257 111.056 46.606ZM114.445 52.9911C115.015 52.4438 115.765 52.1449 116.562 52.1449C116.578 52.1449 116.59 52.1449 116.606 52.1449C118.189 52.1682 119.548 53.4879 119.572 55.0327C119.584 55.8245 119.277 56.5737 118.703 57.1365C118.133 57.6993 117.371 58.0098 116.562 58.0098C114.899 58.0098 113.548 56.694 113.548 55.0754C113.548 54.2875 113.867 53.5461 114.445 52.9872V52.9911Z" fill="black"/>
<path d="M205.056 9.06061C205.056 11.9135 202.68 14.223 199.754 14.223C196.827 14.223 194.451 11.9096 194.451 9.06061C194.451 6.21161 196.823 3.89826 199.754 3.89826C202.684 3.89826 205.056 6.21161 205.056 9.06061ZM196.732 25.4909C196.732 33.4013 190.121 39.8368 181.996 39.8368C173.87 39.8368 167.292 33.4362 167.256 25.5569C167.22 33.4362 160.626 39.8368 152.52 39.8368C144.415 39.8368 137.808 33.4324 137.78 25.5452C137.749 33.4324 131.154 39.8368 123.053 39.8368C118.918 39.8368 114.943 38.1251 112.148 35.1402C110.31 33.1762 109.102 30.8318 108.588 28.3088L86.6517 28.2972L87.0105 29.1472C88.1628 31.2665 90.2041 32.7453 92.6042 33.1956C93.3059 33.3237 94.0355 33.3858 94.7691 33.3858L95.132 33.378C96.6988 33.3353 98.1979 32.9278 99.4658 32.198L100.167 31.7633C100.674 31.4218 101.168 31.3907 101.679 31.6624L105.598 33.7662C105.957 33.9602 106.2 34.3096 106.244 34.6977C106.287 35.0781 106.148 35.4391 105.861 35.6914L104.82 36.6035C104.78 36.6385 104.741 36.6579 104.705 36.6773L104.665 36.7006C102.169 38.6723 98.9674 39.7242 95.1599 39.8213C94.9844 39.8329 94.825 39.8368 94.6495 39.8368C94.187 39.8368 93.7485 39.8213 93.3099 39.7941L92.5006 39.732C84.9732 38.9208 79.3476 32.7415 79.4114 25.3589C79.4273 23.5812 79.7941 21.8695 80.44 20.2897L80.3403 20.1771C78.614 18.2248 76.0025 17.2233 73.3671 17.4912C69.1888 17.9104 66.2743 21.0466 66.2743 25.1221L66.1388 38.1173C66.1388 39.0217 65.3813 39.7592 64.4523 39.7592H61.2348C60.3258 39.7592 59.5842 39.0372 59.5842 38.1522V25.7665C59.4287 33.5488 52.8861 39.8368 44.8604 39.8368C36.8346 39.8368 30.1485 33.4324 30.1166 25.5491C30.0847 33.4324 23.4903 39.8368 15.3888 39.8368C7.28727 39.8368 0.644997 33.4013 0.644997 25.4909C0.644997 17.5804 7.25936 11.145 15.3888 11.145C23.5182 11.145 30.0807 17.5455 30.1166 25.4249C30.1525 17.5455 36.7509 11.145 44.8604 11.145C52.9699 11.145 59.4247 17.4291 59.5802 25.2114V13.1672C59.5802 12.2628 60.3338 11.5253 61.2627 11.5253H64.4802C65.3892 11.5253 66.1308 12.2473 66.1308 13.1323V13.8853C68.1961 12.29 70.5244 11.339 72.8728 11.1333C77.1348 10.7607 81.1736 12.1968 84.0801 15.0885C86.5959 12.7713 89.929 11.2847 93.5691 11.1488C97.6079 10.9975 101.443 12.4181 104.362 15.1506C106.563 17.2117 108.018 19.8045 108.6 22.6419C109.501 18.2869 112.443 14.5218 116.554 12.6044C121.163 10.4541 126.465 10.7025 130.736 13.272L131.114 13.501L131.134 2.79592C131.134 1.77509 131.987 0.944458 133.036 0.944458H135.907C136.955 0.944458 137.808 1.77509 137.808 2.79592L137.776 25.4016C137.832 17.5339 144.423 11.1527 152.516 11.1527C160.61 11.1527 167.224 17.561 167.252 25.4482C167.28 17.561 173.882 11.1527 181.992 11.1527C190.101 11.1527 196.728 17.5882 196.728 25.4986L196.732 25.4909ZM23.4504 25.4909C23.4504 21.1553 19.8302 17.627 15.3768 17.627C10.9234 17.627 7.29525 21.1553 7.29525 25.4909C7.29525 29.8265 10.9194 33.3547 15.3768 33.3547C19.8342 33.3547 23.4504 29.8265 23.4504 25.4909ZM52.918 25.4909C52.918 21.1553 49.2979 17.627 44.8484 17.627C40.399 17.627 36.7708 21.1553 36.7708 25.4909C36.7708 29.8265 40.395 33.3547 44.8484 33.3547C49.3019 33.3547 52.918 29.8265 52.918 25.4909ZM101.563 22.4556C100.327 19.5173 97.4285 17.627 94.1432 17.627C90.8579 17.627 87.9634 19.5134 86.7075 22.4362L101.559 22.4517L101.563 22.4556ZM131.13 25.4909C131.13 23.3755 130.273 21.3882 128.722 19.8977C127.195 18.4344 125.186 17.6309 123.049 17.6309C123.009 17.6309 122.969 17.6309 122.929 17.6309C118.683 17.6891 115.043 21.2368 114.979 25.3744C114.947 27.4976 115.772 29.5004 117.303 31.0142C118.834 32.5241 120.872 33.3586 123.045 33.3586C127.502 33.3586 131.126 29.8304 131.126 25.4948L131.13 25.4909ZM160.586 25.4909C160.586 21.1553 156.966 17.627 152.516 17.627C148.067 17.627 144.443 21.1553 144.443 25.4909C144.443 29.8265 148.063 33.3547 152.516 33.3547C156.97 33.3547 160.586 29.8265 160.586 25.4909ZM190.065 25.4909C190.065 21.1553 186.445 17.627 181.996 17.627C177.546 17.627 173.922 21.1553 173.922 25.4909C173.922 29.8265 177.542 33.3547 181.996 33.3547C186.449 33.3547 190.065 29.8265 190.065 25.4909Z" fill="#E4170F"/>
</svg>
