<svg width="19" height="19" viewBox="0 0 19 19" fill="none" xmlns="http://www.w3.org/2000/svg">
<g clip-path="url(#clip0_47_1149)">
<g clip-path="url(#clip1_47_1149)">
<path d="M18.4382 4.75554C18.3349 4.36363 18.1335 4.00634 17.854 3.71925C17.5745 3.43215 17.2267 3.22527 16.8452 3.11921C15.4483 2.72791 9.82657 2.72791 9.82657 2.72791C9.82657 2.72791 4.20452 2.73975 2.80769 3.13105C2.42614 3.23712 2.0783 3.44401 1.79881 3.73112C1.51932 4.01823 1.31793 4.37554 1.21469 4.76746C0.792183 7.31676 0.628285 11.2013 1.22629 13.6486C1.32954 14.0405 1.53093 14.3978 1.81042 14.6849C2.08992 14.972 2.43775 15.1789 2.81929 15.285C4.21612 15.6763 9.83803 15.6763 9.83803 15.6763C9.83803 15.6763 15.4599 15.6763 16.8566 15.285C17.2382 15.1789 17.586 14.972 17.8655 14.6849C18.145 14.3978 18.3464 14.0405 18.4497 13.6486C18.8953 11.0957 19.0327 7.21356 18.4382 4.75554Z" fill="#FF0000"/>
<path d="M8.03723 11.9767L12.7009 9.20206L8.03723 6.42743V11.9767Z" fill="white"/>
</g>
</g>
<defs>
<clipPath id="clip0_47_1149">
<rect width="18.0049" height="18.0049" fill="white" transform="translate(0.834717 0.0498047)"/>
</clipPath>
<clipPath id="clip1_47_1149">
<rect width="18" height="13" fill="white" transform="translate(0.835693 2.72791)"/>
</clipPath>
</defs>
</svg>
