<svg width="19" height="18" viewBox="0 0 19 18" fill="none" xmlns="http://www.w3.org/2000/svg">
<g clip-path="url(#clip0_562_15207)">
<path d="M10.5938 15.7512H6.84375C6.44593 15.7512 6.06439 15.5932 5.78309 15.3119C5.50179 15.0306 5.34375 14.649 5.34375 14.2512V3.75122C5.34375 3.3534 5.50179 2.97187 5.78309 2.69056C6.06439 2.40926 6.44593 2.25122 6.84375 2.25122H12.8438C13.2416 2.25122 13.6231 2.40926 13.9044 2.69056C14.1857 2.97187 14.3438 3.3534 14.3438 3.75122V7.50122" stroke="#CDCDCD" stroke-width="1.2" stroke-linecap="round" stroke-linejoin="round"/>
<path d="M9.0957 3.00098H10.5963" stroke="#CDCDCD" stroke-width="1.2" stroke-linecap="round" stroke-linejoin="round"/>
<path d="M9.84375 12.7515V12.759" stroke="#CDCDCD" stroke-width="1.2" stroke-linecap="round" stroke-linejoin="round"/>
<path d="M16.5938 11.2512H14.7188C14.4204 11.2512 14.1342 11.3697 13.9233 11.5807C13.7123 11.7917 13.5938 12.0779 13.5938 12.3762C13.5938 12.6746 13.7123 12.9607 13.9233 13.1717C14.1342 13.3827 14.4204 13.5012 14.7188 13.5012H15.4688C15.7671 13.5012 16.0533 13.6197 16.2642 13.8307C16.4752 14.0417 16.5938 14.3279 16.5938 14.6262C16.5938 14.9246 16.4752 15.2107 16.2642 15.4217C16.0533 15.6327 15.7671 15.7512 15.4688 15.7512H13.5938" stroke="#CDCDCD" stroke-width="1.2" stroke-linecap="round" stroke-linejoin="round"/>
<path d="M15.0938 15.7515V16.5015M15.0938 10.5015V11.2515" stroke="#CDCDCD" stroke-width="1.12744" stroke-linecap="round" stroke-linejoin="round"/>
</g>
<defs>
<clipPath id="clip0_562_15207">
<rect width="18" height="18" fill="white" transform="translate(0.84375 0.00146484)"/>
</clipPath>
</defs>
</svg>
