<svg width="41" height="41" viewBox="0 0 41 41" fill="none" xmlns="http://www.w3.org/2000/svg">
<g clip-path="url(#clip0_1598_15707)">
<path d="M20.0639 20.7549C19.1494 22.5302 17.9232 24.1267 16.4439 25.4682C15.5117 26.4008 14.3238 27.0359 13.0305 27.2933C11.7372 27.5507 10.3967 27.4188 9.17841 26.9143C7.96012 26.4097 6.91881 25.5552 6.18618 24.4589C5.45354 23.3625 5.0625 22.0735 5.0625 20.7549C5.0625 19.4362 5.45354 18.1472 6.18618 17.0509C6.91881 15.9545 7.96012 15.1 9.17841 14.5955C10.3967 14.091 11.7372 13.959 13.0305 14.2164C14.3238 14.4738 15.5117 15.109 16.4439 16.0415C17.9232 17.3831 19.1494 18.9796 20.0639 20.7549ZM20.0639 20.7549C20.9785 18.9796 22.2046 17.3831 23.6839 16.0415C24.6162 15.109 25.8041 14.4738 27.0973 14.2164C28.3906 13.959 29.7311 14.091 30.9494 14.5955C32.1677 15.1 33.209 15.9545 33.9417 17.0509C34.6743 18.1472 35.0653 19.4362 35.0653 20.7549C35.0653 22.0735 34.6743 23.3625 33.9417 24.4589C33.209 25.5552 32.1677 26.4097 30.9494 26.9143C29.7311 27.4188 28.3906 27.5507 27.0973 27.2933C25.8041 27.0359 24.6162 26.4008 23.6839 25.4682C22.2046 24.1267 20.9785 22.5302 20.0639 20.7549Z" stroke="white" stroke-width="2.5" stroke-linecap="round" stroke-linejoin="round"/>
</g>
<defs>
<clipPath id="clip0_1598_15707">
<rect width="40" height="40" fill="white" transform="translate(0.0625 0.754883)"/>
</clipPath>
</defs>
</svg>
