<svg width="29" height="29" viewBox="0 0 29 29" fill="none" xmlns="http://www.w3.org/2000/svg">
<g clip-path="url(#clip0_562_15266)">
<path d="M3.92969 14.7796C3.92969 16.1467 4.19895 17.5003 4.7221 18.7633C5.24525 20.0263 6.01204 21.1739 6.9787 22.1406C7.94535 23.1072 9.09294 23.874 10.3559 24.3971C11.6189 24.9203 12.9726 25.1896 14.3397 25.1896C15.7067 25.1896 17.0604 24.9203 18.3234 24.3971C19.5864 23.874 20.734 23.1072 21.7006 22.1406C22.6673 21.1739 23.4341 20.0263 23.9572 18.7633C24.4804 17.5003 24.7496 16.1467 24.7496 14.7796C24.7496 12.0187 23.6529 9.37088 21.7006 7.41864C19.7484 5.46639 17.1005 4.36963 14.3397 4.36963C11.5788 4.36963 8.93094 5.46639 6.9787 7.41864C5.02645 9.37088 3.92969 12.0187 3.92969 14.7796Z" stroke="#CDCDCD" stroke-width="1.73499" stroke-linecap="round" stroke-linejoin="round"/>
<path d="M4.625 11.3098H24.0569" stroke="#CDCDCD" stroke-width="1.73499" stroke-linecap="round" stroke-linejoin="round"/>
<path d="M4.625 18.2505H24.0569" stroke="#CDCDCD" stroke-width="1.73499" stroke-linecap="round" stroke-linejoin="round"/>
<path d="M13.7629 4.36963C11.8143 7.49217 10.7813 11.0989 10.7812 14.7796C10.7813 18.4603 11.8143 22.067 13.7629 25.1896" stroke="#CDCDCD" stroke-width="1.73499" stroke-linecap="round" stroke-linejoin="round"/>
<path d="M14.918 4.36963C16.8666 7.49217 17.8996 11.0989 17.8996 14.7796C17.8996 18.4603 16.8666 22.067 14.918 25.1896" stroke="#CDCDCD" stroke-width="1.73499" stroke-linecap="round" stroke-linejoin="round"/>
</g>
<defs>
<clipPath id="clip0_562_15266">
<rect width="27.7599" height="27.7599" fill="white" transform="translate(0.460938 0.899902)"/>
</clipPath>
</defs>
</svg>
