<svg width="28" height="29" viewBox="0 0 28 29" fill="none" xmlns="http://www.w3.org/2000/svg">
<g clip-path="url(#clip0_562_15418)">
<path d="M11.8209 14.365L8.40752 10.9517H6.13194C5.83017 10.9517 5.54077 11.0715 5.32739 11.2849C5.11402 11.4983 4.99414 11.7877 4.99414 12.0895V16.6406C4.99414 16.9424 5.11402 17.2318 5.32739 17.4452C5.54077 17.6586 5.83017 17.7784 6.13194 17.7784H8.40752L11.8209 14.365Z" stroke="#CDCDCD" stroke-width="1.73" stroke-linecap="round" stroke-linejoin="round"/>
<path d="M15.4102 14.365L18.8235 10.9517H21.0991C21.4009 10.9517 21.6903 11.0715 21.9037 11.2849C22.117 11.4983 22.2369 11.7877 22.2369 12.0895V16.6406C22.2369 16.9424 22.117 17.2318 21.9037 17.4452C21.6903 17.6586 21.4009 17.7784 21.0991 17.7784H18.8235L15.4102 14.365Z" stroke="#CDCDCD" stroke-width="1.73" stroke-linecap="round" stroke-linejoin="round"/>
<path d="M13.7396 16.7817L10.3262 20.1951V22.4707C10.3262 22.7725 10.446 23.0619 10.6594 23.2753C10.8728 23.4886 11.1622 23.6085 11.464 23.6085H16.0151C16.3169 23.6085 16.6063 23.4886 16.8197 23.2753C17.0331 23.0619 17.1529 22.7725 17.1529 22.4707V20.1951L13.7396 16.7817Z" stroke="#CDCDCD" stroke-width="1.73" stroke-linecap="round" stroke-linejoin="round"/>
<path d="M13.7396 12.1974L10.3262 8.78399V6.5084C10.3262 6.20664 10.446 5.91724 10.6594 5.70386C10.8728 5.49048 11.1622 5.37061 11.464 5.37061H16.0151C16.3169 5.37061 16.6063 5.49048 16.8197 5.70386C17.0331 5.91724 17.1529 6.20664 17.1529 6.5084V8.78399L13.7396 12.1974Z" stroke="#CDCDCD" stroke-width="1.73" stroke-linecap="round" stroke-linejoin="round"/>
</g>
<defs>
<clipPath id="clip0_562_15418">
<rect width="27.3071" height="27.3071" fill="white" transform="translate(0.0859375 0.711426)"/>
</clipPath>
</defs>
</svg>
