<svg width="28" height="29" viewBox="0 0 28 29" fill="none" xmlns="http://www.w3.org/2000/svg">
<g clip-path="url(#clip0_562_15364)">
<path d="M7.07617 6.40488C7.07617 5.79135 7.3199 5.20294 7.75373 4.76911C8.18756 4.33528 8.77597 4.09155 9.3895 4.09155H18.6428C19.2563 4.09155 19.8447 4.33528 20.2786 4.76911C20.7124 5.20294 20.9561 5.79135 20.9561 6.40488V22.5982C20.9561 23.2117 20.7124 23.8001 20.2786 24.2339C19.8447 24.6678 19.2563 24.9115 18.6428 24.9115H9.3895C8.77597 24.9115 8.18756 24.6678 7.75373 24.2339C7.3199 23.8001 7.07617 23.2117 7.07617 22.5982V6.40488Z" stroke="#CDCDCD" stroke-width="1.73499" stroke-linecap="round" stroke-linejoin="round"/>
<path d="M12.8613 5.24805H15.1756" stroke="#CDCDCD" stroke-width="1.73499" stroke-linecap="round" stroke-linejoin="round"/>
<path d="M14.0176 20.2849V20.2972" stroke="#CDCDCD" stroke-width="1.73499" stroke-linecap="round" stroke-linejoin="round"/>
</g>
<defs>
<clipPath id="clip0_562_15364">
<rect width="27.7599" height="27.7599" fill="white" transform="translate(0.140625 0.621582)"/>
</clipPath>
</defs>
</svg>
