<svg width="19" height="19" viewBox="0 0 19 19" fill="none" xmlns="http://www.w3.org/2000/svg">
<g clip-path="url(#clip0_743_2176)">
<path d="M4.45117 3.95605H7.45117L8.95117 7.70605L7.07617 8.83105C7.87939 10.4597 9.19752 11.7778 10.8262 12.5811L11.9512 10.7061L15.7012 12.2061V15.2061C15.7012 15.6039 15.5431 15.9854 15.2618 16.2667C14.9805 16.548 14.599 16.7061 14.2012 16.7061C11.2756 16.5283 8.51629 15.2859 6.44379 13.2134C4.3713 11.1409 3.12896 8.38161 2.95117 5.45605C2.95117 5.05823 3.10921 4.6767 3.39051 4.39539C3.67182 4.11409 4.05335 3.95605 4.45117 3.95605Z" stroke="#2A2A2A" stroke-width="1.2" stroke-linecap="round" stroke-linejoin="round"/>
<path d="M11.9512 6.20605C12.349 6.20605 12.7305 6.36409 13.0118 6.64539C13.2931 6.9267 13.4512 7.30823 13.4512 7.70605" stroke="#2A2A2A" stroke-width="1.2" stroke-linecap="round" stroke-linejoin="round"/>
<path d="M11.9512 3.20605C13.1446 3.20605 14.2892 3.68016 15.1332 4.52407C15.9771 5.36799 16.4512 6.51258 16.4512 7.70605" stroke="#2A2A2A" stroke-width="1.2" stroke-linecap="round" stroke-linejoin="round"/>
</g>
<defs>
<clipPath id="clip0_743_2176">
<rect width="18" height="18" fill="white" transform="translate(0.701172 0.956055)"/>
</clipPath>
</defs>
</svg>
