<svg width="19" height="19" viewBox="0 0 19 19" fill="none" xmlns="http://www.w3.org/2000/svg">
<g clip-path="url(#clip0_743_2198)">
<path d="M14.2012 3.79688C14.7979 3.79688 15.3702 4.03393 15.7922 4.45588C16.2141 4.87784 16.4512 5.45014 16.4512 6.04688V12.0469C16.4512 12.6436 16.2141 13.2159 15.7922 13.6379C15.3702 14.0598 14.7979 14.2969 14.2012 14.2969H10.4512L6.70117 16.5469V14.2969H5.20117C4.60443 14.2969 4.03214 14.0598 3.61018 13.6379C3.18822 13.2159 2.95117 12.6436 2.95117 12.0469V6.04688C2.95117 5.45014 3.18822 4.87784 3.61018 4.45588C4.03214 4.03393 4.60443 3.79688 5.20117 3.79688H14.2012Z" stroke="#2A2A2A" stroke-width="1.2" stroke-linecap="round" stroke-linejoin="round"/>
<path d="M6.46272 10.385C6.18888 10.385 5.9592 10.3452 5.7737 10.2657C5.59113 10.1833 5.45127 10.0773 5.3541 9.94772C5.25987 9.81522 5.20982 9.67683 5.20393 9.53254C5.20393 9.50604 5.21276 9.48396 5.23043 9.46629C5.2481 9.44862 5.27018 9.43979 5.29668 9.43979H5.68978C5.72806 9.43979 5.75603 9.44862 5.7737 9.46629C5.79431 9.48101 5.81197 9.50015 5.8267 9.52371C5.84436 9.57966 5.87823 9.6356 5.92828 9.69155C5.97834 9.74455 6.04607 9.78872 6.13146 9.82405C6.21979 9.85939 6.33021 9.87706 6.46272 9.87706C6.67472 9.87706 6.83226 9.84172 6.93532 9.77105C7.04132 9.70038 7.09432 9.60469 7.09432 9.48396C7.09432 9.39857 7.06635 9.33084 7.0104 9.28079C6.95446 9.22778 6.86759 9.18067 6.74981 9.13945C6.63497 9.09528 6.48186 9.04964 6.29046 9.00253C6.06962 8.94953 5.88412 8.88622 5.73394 8.8126C5.58672 8.73605 5.47482 8.64035 5.39827 8.52551C5.32465 8.41067 5.28785 8.26492 5.28785 8.08825C5.28785 7.91746 5.33349 7.76582 5.42477 7.63332C5.51899 7.50081 5.6515 7.39628 5.82228 7.31972C5.99601 7.24316 6.20213 7.20489 6.44063 7.20489C6.63203 7.20489 6.80134 7.23139 6.94857 7.28439C7.09579 7.33444 7.21799 7.40217 7.31516 7.48756C7.41233 7.57001 7.48595 7.65982 7.536 7.75699C7.589 7.85121 7.61698 7.94396 7.61992 8.03525C7.61992 8.0588 7.61109 8.08089 7.59342 8.1015C7.5787 8.11916 7.55661 8.128 7.52717 8.128H7.11641C7.09285 8.128 7.06929 8.12211 7.04574 8.11033C7.02218 8.09855 7.00304 8.07647 6.98832 8.04408C6.97065 7.9528 6.91323 7.87477 6.81606 7.80999C6.71889 7.74521 6.59375 7.71282 6.44063 7.71282C6.28163 7.71282 6.15354 7.74226 6.05637 7.80115C5.9592 7.86005 5.91062 7.95133 5.91062 8.075C5.91062 8.15744 5.93417 8.22664 5.98129 8.28259C6.03134 8.33559 6.10937 8.3827 6.21538 8.42392C6.32432 8.46515 6.46713 8.50932 6.64381 8.55643C6.89409 8.61238 7.09874 8.67716 7.25774 8.75077C7.41675 8.82438 7.53306 8.91861 7.60667 9.03344C7.68029 9.14534 7.71709 9.28815 7.71709 9.46188C7.71709 9.65621 7.66409 9.82258 7.55809 9.96097C7.45503 10.0964 7.30927 10.201 7.12082 10.2746C6.93237 10.3482 6.713 10.385 6.46272 10.385ZM8.42202 10.3408C8.38963 10.3408 8.36313 10.3305 8.34252 10.3099C8.32191 10.2893 8.3116 10.2643 8.3116 10.2348V7.35947C8.3116 7.32708 8.32191 7.30058 8.34252 7.27997C8.36313 7.25936 8.38963 7.24905 8.42202 7.24905H8.77095C8.81217 7.24905 8.84309 7.26083 8.8637 7.28439C8.88431 7.305 8.89757 7.32119 8.90345 7.33297L9.7559 8.92302L10.6172 7.33297C10.6231 7.32119 10.6363 7.305 10.6569 7.28439C10.6775 7.26083 10.7085 7.24905 10.7497 7.24905H11.0942C11.1266 7.24905 11.1531 7.25936 11.1737 7.27997C11.1943 7.30058 11.2046 7.32708 11.2046 7.35947V10.2348C11.2046 10.2643 11.1943 10.2893 11.1737 10.3099C11.1531 10.3305 11.1266 10.3408 11.0942 10.3408H10.7232C10.6908 10.3408 10.6643 10.3305 10.6437 10.3099C10.626 10.2893 10.6172 10.2643 10.6172 10.2348V8.32234L9.99882 9.50163C9.9841 9.52813 9.96496 9.55168 9.9414 9.5723C9.91785 9.58996 9.88693 9.5988 9.84865 9.5988H9.66756C9.62634 9.5988 9.59395 9.58996 9.57039 9.5723C9.54978 9.55168 9.53211 9.52813 9.51739 9.50163L8.89904 8.32234V10.2348C8.89904 10.2643 8.88873 10.2893 8.86812 10.3099C8.84751 10.3305 8.82248 10.3408 8.79303 10.3408H8.42202ZM13.0533 10.385C12.7794 10.385 12.5497 10.3452 12.3642 10.2657C12.1817 10.1833 12.0418 10.0773 11.9446 9.94772C11.8504 9.81522 11.8004 9.67683 11.7945 9.53254C11.7945 9.50604 11.8033 9.48396 11.821 9.46629C11.8386 9.44862 11.8607 9.43979 11.8872 9.43979H12.2803C12.3186 9.43979 12.3466 9.44862 12.3642 9.46629C12.3848 9.48101 12.4025 9.50015 12.4172 9.52371C12.4349 9.57966 12.4688 9.6356 12.5188 9.69155C12.5689 9.74455 12.6366 9.78872 12.722 9.82405C12.8103 9.85939 12.9207 9.87706 13.0533 9.87706C13.2653 9.87706 13.4228 9.84172 13.5259 9.77105C13.6319 9.70038 13.6849 9.60469 13.6849 9.48396C13.6849 9.39857 13.6569 9.33084 13.6009 9.28079C13.545 9.22778 13.4581 9.18067 13.3403 9.13945C13.2255 9.09528 13.0724 9.04964 12.881 9.00253C12.6602 8.94953 12.4747 8.88622 12.3245 8.8126C12.1773 8.73605 12.0654 8.64035 11.9888 8.52551C11.9152 8.41067 11.8784 8.26492 11.8784 8.08825C11.8784 7.91746 11.924 7.76582 12.0153 7.63332C12.1095 7.50081 12.242 7.39628 12.4128 7.31972C12.5865 7.24316 12.7927 7.20489 13.0312 7.20489C13.2226 7.20489 13.3919 7.23139 13.5391 7.28439C13.6863 7.33444 13.8085 7.40217 13.9057 7.48756C14.0029 7.57001 14.0765 7.65982 14.1265 7.75699C14.1795 7.85121 14.2075 7.94396 14.2105 8.03525C14.2105 8.0588 14.2016 8.08089 14.184 8.1015C14.1692 8.11916 14.1472 8.128 14.1177 8.128H13.7069C13.6834 8.128 13.6598 8.12211 13.6363 8.11033C13.6127 8.09855 13.5936 8.07647 13.5789 8.04408C13.5612 7.9528 13.5038 7.87477 13.4066 7.80999C13.3094 7.74521 13.1843 7.71282 13.0312 7.71282C12.8722 7.71282 12.7441 7.74226 12.6469 7.80115C12.5497 7.86005 12.5012 7.95133 12.5012 8.075C12.5012 8.15744 12.5247 8.22664 12.5718 8.28259C12.6219 8.33559 12.6999 8.3827 12.8059 8.42392C12.9149 8.46515 13.0577 8.50932 13.2343 8.55643C13.4846 8.61238 13.6893 8.67716 13.8483 8.75077C14.0073 8.82438 14.1236 8.91861 14.1972 9.03344C14.2708 9.14534 14.3076 9.28815 14.3076 9.46188C14.3076 9.65621 14.2546 9.82258 14.1486 9.96097C14.0456 10.0964 13.8998 10.201 13.7114 10.2746C13.5229 10.3482 13.3035 10.385 13.0533 10.385Z" fill="#2A2A2A"/>
</g>
<defs>
<clipPath id="clip0_743_2198">
<rect width="18" height="18" fill="white" transform="translate(0.701172 0.796875)"/>
</clipPath>
</defs>
</svg>
