<svg width="19" height="19" viewBox="0 0 19 19" fill="none" xmlns="http://www.w3.org/2000/svg">
<g clip-path="url(#clip0_121_269)">
<g clip-path="url(#clip1_121_269)">
<path d="M6.80957 14.0569C7.30708 14.7203 7.7599 15.4191 8.16477 16.1483C8.51043 16.8341 8.65452 17.2991 8.90713 18.1254C9.06205 18.5819 9.20207 18.7181 9.5031 18.7181C9.83113 18.7181 9.97996 18.4863 10.0949 18.1279C10.3337 17.3475 10.5211 16.752 10.8167 16.1893C11.3967 15.1029 12.1175 14.1375 12.8256 13.2097C13.0174 12.9471 14.2569 11.4173 14.815 10.2103C14.815 10.2103 15.5009 8.8843 15.5009 7.03245C15.5009 5.30024 14.8244 4.09885 14.8244 4.09885L12.877 4.64454L11.6944 7.90371L11.4018 8.35312L11.3433 8.43454L11.2655 8.53646L11.1289 8.69924L10.9337 8.90342L9.88054 9.80117L7.24757 11.3918L6.80957 14.0569Z" fill="#34A853"/>
<path d="M4.09204 9.98736C4.73465 11.5232 5.97384 12.8732 6.81224 14.058L11.2654 8.53859C11.2654 8.53859 10.638 9.39709 9.50001 9.39709C8.23237 9.39709 7.20829 8.33794 7.20829 7.00241C7.20829 6.08656 7.73488 5.4574 7.73488 5.4574L4.71196 6.30492L4.09204 9.98736Z" fill="#FBBC04"/>
<path d="M11.3152 1.00674C12.7942 1.50569 14.0601 2.55317 14.8258 4.09779L11.2668 8.5354C11.2668 8.5354 11.7934 7.89486 11.7934 6.98471C11.7934 5.61808 10.6935 4.59713 9.5054 4.59713C8.38185 4.59713 7.73657 5.45422 7.73657 5.45422V2.65858L11.3152 1.00674Z" fill="#4285F4"/>
<path d="M4.90784 2.96751C5.7912 1.86166 7.34557 0.7229 9.48851 0.7229C10.5282 0.7229 11.3115 1.0085 11.3115 1.0085L7.73323 5.45666H5.19799L4.90784 2.96751Z" fill="#1A73E8"/>
<path d="M4.09204 9.98735C4.09204 9.98735 3.50085 8.77601 3.50085 7.02113C3.50085 5.36253 4.11707 3.91272 4.90781 2.9675L7.73521 5.45704L4.09204 9.98735Z" fill="#EA4335"/>
</g>
</g>
<defs>
<clipPath id="clip0_121_269">
<rect width="18" height="18" fill="white" transform="translate(0.498901 0.441132)"/>
</clipPath>
<clipPath id="clip1_121_269">
<rect width="12" height="18" fill="white" transform="translate(3.50085 0.7229)"/>
</clipPath>
</defs>
</svg>
