<svg width="304" height="155" viewBox="0 0 304 155" fill="none" xmlns="http://www.w3.org/2000/svg">
<g clip-path="url(#clip0_2042_14247)">
<path d="M197.993 35.3307C202.501 37.2539 209.634 40.2012 214.633 42.7503C206.683 41.5208 198.133 40.3536 192.02 40.3095C189.293 41.2363 181.497 44.8957 172.587 48.7698C106.445 78.944 72.1049 86.1067 16.6509 86.9766C10.905 86.6628 6.34083 86.2866 0.690276 85.8094L0.216797 85.3598C49.1852 85.7103 92.2718 77.3492 170.06 42.0383C174.503 40.0177 177.711 38.5349 181.631 36.9438C184.277 36.3675 190.884 35.6775 194.628 35.6371L182.705 32.8642C205.951 23.6442 218.874 18.891 235.756 17.0503C239.685 12.4935 243.526 8.35335 246.156 5.89786C249.329 3.92136 255.294 0.790527 255.294 0.790527C250.52 7.80096 247.327 15.261 245.14 21.0253C229.57 22.0879 212.495 28.3478 197.992 35.3325L197.993 35.3307Z" fill="white"/>
<path d="M296.863 26.5828C290.566 25.1128 277.795 23.0298 272.078 23.2794C270.755 24.9127 268.828 27.0452 268.008 27.5921C267.138 28.2051 263.934 28.5226 260.208 28.585C266.281 24.3273 271.425 21.9085 271.425 21.9085C263.879 20.5762 253.271 20.0917 246.398 20.8588L252.062 16.0524C259.302 16.0359 268.668 17.0655 275.605 18.8529C274.772 19.9265 272.519 22.6371 272.519 22.6371C272.519 22.6371 278.373 21.3029 281.285 20.6276C286.505 21.1836 292.146 23.7749 295.985 25.4982C296.373 25.8652 296.699 26.291 296.863 26.5809V26.5828Z" fill="white"/>
<path d="M135.942 141.065C135.942 131.698 130.258 126.43 122.741 126.43C114.609 126.43 108.682 132.095 108.682 140.568C108.682 149.041 114.91 154.699 123.914 154.699C126.544 154.699 129.003 154.238 131.1 153.366L134.94 146.967L134.429 146.694C131.13 148.421 127.659 149.311 124.521 149.311C119.878 149.311 115.865 146.951 115.413 142.917H135.942V141.063V141.065ZM115.413 137.874C115.92 133.998 118.388 131.478 122.37 131.478C126.579 131.478 129.161 133.946 129.214 137.874H115.413ZM262.599 126.43C254.455 126.43 248.534 132.095 248.534 140.568C248.534 149.041 254.765 154.699 263.768 154.699C266.396 154.699 268.855 154.238 270.946 153.366L274.79 146.967L274.282 146.694C270.984 148.421 267.51 149.311 264.37 149.311C259.729 149.311 255.723 146.951 255.269 142.917H275.792C276.686 132.366 271.015 126.428 262.597 126.428L262.599 126.43ZM255.271 137.874C255.767 133.998 258.244 131.478 262.219 131.478C266.431 131.478 269.013 133.946 269.068 137.874H255.271ZM168.533 126.43C160.403 126.43 154.477 132.095 154.477 140.568C154.477 149.041 160.706 154.699 169.707 154.699C172.341 154.699 174.798 154.238 176.898 153.366L180.728 146.967L180.219 146.694C176.921 148.421 173.453 149.311 170.315 149.311C165.674 149.311 161.66 146.951 161.209 142.917H181.741C182.631 132.366 176.958 126.428 168.533 126.428V126.43ZM161.209 137.874C161.713 133.998 164.182 131.478 168.16 131.478C172.37 131.478 174.956 133.946 175.006 137.874H161.209ZM29.4455 133.104V132.99C33.5435 131.757 36.344 128.788 36.344 124.297C36.344 117.063 30.1686 114.314 24.1804 114.314H9.66585V114.308H3.88867V114.901L5.9239 116.631C8.37204 118.624 8.68586 119.012 8.68586 120.814V154.031H22.9985C30.5081 154.031 38.0306 151.339 38.0306 142.695C38.0306 137.597 34.4317 133.664 29.4437 133.106L29.4455 133.104ZM15.7624 120.372H21.5909C25.5384 120.372 26.7551 120.915 27.9517 122.051C28.8619 122.911 29.2767 124.095 29.2785 125.475C29.2785 126.758 28.8399 127.905 27.9058 128.795C26.7386 129.915 25.1347 130.465 22.2057 130.465H15.7624V120.372ZM22.2644 147.969H15.7624V136.527H22.5471C28.2673 136.527 30.9614 137.982 30.9614 142.137C30.9614 147.356 25.9073 147.969 22.2644 147.969ZM51.3944 117.96C51.3944 120.258 49.4821 121.999 47.0175 121.999C44.5528 121.999 42.7543 120.089 42.7543 117.96C42.7543 115.831 44.5455 113.915 47.0175 113.915C49.4895 113.915 51.3944 115.657 51.3944 117.96ZM40.0841 127.105H50.4383V154.029H43.7013V132.844H43.6958C43.6958 130.617 43.5747 130.261 41.1577 128.395L40.0841 127.545V127.103V127.105ZM93.668 112.647V113.141L95.7748 114.501C97.6981 115.723 97.9899 116.308 97.9899 118.021V130.524H97.8229C96.4226 128.786 93.7249 126.43 88.6781 126.43C80.9924 126.43 75.663 132.598 75.663 140.568C75.663 148.538 80.6584 154.699 88.9608 154.699C92.7174 154.699 96.2538 153.242 98.2175 149.995H98.3276L99.0323 154.029H104.723V112.645H93.668V112.647ZM90.306 148.641C85.3693 148.641 82.3908 144.774 82.3908 140.57C82.3908 136.365 85.3693 132.489 90.306 132.489C95.2426 132.489 98.2193 136.36 98.2193 140.57C98.2193 144.78 95.2463 148.641 90.306 148.641ZM233.297 112.647V113.141L234.234 113.765C237.479 115.815 237.879 116.409 237.879 119.918V130.522H237.712C236.303 128.784 233.614 126.428 228.569 126.428C220.883 126.428 215.552 132.596 215.552 140.566C215.552 148.536 220.546 154.697 228.843 154.697C232.605 154.697 236.141 153.24 238.099 149.993H238.209L238.923 154.027H244.605V112.644H233.297V112.647ZM230.19 148.641C225.257 148.641 222.28 144.774 222.28 140.57C222.28 136.365 225.257 132.489 230.19 132.489C235.123 132.489 238.099 136.36 238.099 140.57C238.099 144.78 235.126 148.641 230.19 148.641ZM297.374 126.82V133.33C296.251 133.045 295.192 132.821 294.119 132.821C287.783 132.821 286.886 138.155 286.886 139.615V154.031H280.155V134.132C280.155 130.746 279.975 130.238 277.237 128.505L275.548 127.386L275.528 127.09H286.886V131.366H287.004C288.455 128.281 291.428 126.43 294.965 126.43C295.805 126.43 296.591 126.597 297.374 126.819V126.82ZM147.902 126.993H154.154V132.733H147.902V154.029H141.146V135.059C141.146 132.801 140.693 132.304 138.014 130.188L134.582 127.399V126.991H141.146V122.076C141.146 114.767 145.909 110.133 156.23 112.19L157.79 117.89L157.465 118.155C152.075 116.037 147.902 117.391 147.902 122.097V126.991V126.993ZM211.704 137.026V154.031H204.969V139.05C204.969 136.083 204.216 132.489 199.503 132.489C195.071 132.489 193.332 135.741 193.332 139.333V154.033H186.608V134.134C186.608 130.748 186.426 130.239 183.684 128.507L181.998 127.388V127.092H187.259V127.109H192.998V131.21H193.108C195.325 127.911 198.694 126.433 201.676 126.433C208.035 126.433 211.706 130.788 211.706 137.03L211.704 137.026ZM73.5764 148.621L73.7984 148.758C73.7984 148.758 70.4529 154.113 70.4584 154.113C64.9711 155.596 58.8031 154.018 58.8031 145.215V132.821L58.7939 134.302C58.7939 132.568 58.5149 132.654 54.7381 129.542L52.2937 127.43V127.109H58.8324L61.2879 119.305H65.5621V127.109H72.7597V132.823H65.5621V145.031C65.5621 149.894 68.8856 150.006 73.5745 148.624L73.5764 148.621Z" fill="white"/>
<path d="M298.876 113.694H297.223V118.783H297.401V116.399H298.876C298.909 116.399 298.939 116.395 298.966 116.386L298.988 116.382L299.001 116.401L300.533 118.783H300.757L299.181 116.368L299.234 116.364C299.41 116.347 299.581 116.309 299.741 116.25C299.897 116.193 300.034 116.111 300.155 116.004C300.278 115.898 300.374 115.764 300.44 115.606C300.511 115.448 300.546 115.268 300.546 115.05C300.546 114.624 300.412 114.286 300.144 114.048C299.876 113.811 299.449 113.692 298.876 113.692V113.694ZM300.372 115.05C300.372 115.309 300.315 115.52 300.203 115.679C300.095 115.835 299.953 115.953 299.785 116.03C299.618 116.107 299.438 116.158 299.238 116.182C299.051 116.204 298.867 116.217 298.678 116.217H297.401V113.866H298.856C299.043 113.866 299.232 113.883 299.416 113.916C299.601 113.949 299.759 114.008 299.902 114.094C300.043 114.184 300.157 114.305 300.242 114.455C300.326 114.608 300.372 114.808 300.372 115.05Z" fill="white"/>
<path d="M302.779 117.89C303.013 117.356 303.13 116.773 303.13 116.152C303.13 115.532 303.011 114.949 302.779 114.415C302.548 113.881 302.229 113.405 301.829 113.003C301.434 112.607 300.963 112.289 300.421 112.053C299.885 111.82 299.302 111.702 298.685 111.702C298.069 111.702 297.485 111.821 296.951 112.053C296.413 112.288 295.94 112.609 295.545 113.003C295.143 113.411 294.822 113.881 294.593 114.415C294.36 114.949 294.242 115.534 294.242 116.152C294.242 116.771 294.361 117.355 294.593 117.89C294.824 118.423 295.143 118.9 295.545 119.3C295.942 119.698 296.415 120.016 296.951 120.247C297.487 120.476 298.07 120.592 298.685 120.592C299.3 120.592 299.885 120.476 300.421 120.247C300.963 120.014 301.436 119.696 301.829 119.3C302.229 118.9 302.55 118.426 302.779 117.89ZM300.346 120.093C299.827 120.313 299.271 120.425 298.685 120.425C298.1 120.425 297.533 120.315 297.017 120.093C296.498 119.872 296.043 119.566 295.659 119.182C295.274 118.795 294.967 118.336 294.749 117.824C294.528 117.305 294.418 116.742 294.418 116.152C294.418 115.563 294.528 115.011 294.749 114.495C294.969 113.976 295.275 113.519 295.659 113.135C296.041 112.754 296.496 112.445 297.017 112.218C297.531 111.994 298.092 111.88 298.685 111.88C299.278 111.88 299.829 111.992 300.346 112.218C300.862 112.444 301.317 112.752 301.699 113.135C302.082 113.521 302.39 113.978 302.614 114.493C302.838 115.013 302.954 115.569 302.954 116.152C302.954 116.736 302.84 117.305 302.614 117.824C302.394 118.335 302.086 118.791 301.699 119.182C301.313 119.566 300.858 119.872 300.346 120.093Z" fill="white"/>
</g>
<defs>
<clipPath id="clip0_2042_14247">
<rect width="302.915" height="153.916" fill="white" transform="translate(0.21875 0.786133)"/>
</clipPath>
</defs>
</svg>
