<svg width="117" height="105" viewBox="0 0 117 105" fill="none" xmlns="http://www.w3.org/2000/svg">
<path d="M35.706 44.0594C35.6453 44.0103 35.6109 43.9568 35.6029 43.899C35.5991 43.836 35.6181 43.7786 35.6599 43.7269L39.7582 38.6615C39.8042 38.6046 39.8564 38.5741 39.9146 38.5698C39.977 38.5604 40.0386 38.5803 40.0993 38.6294L40.4801 38.9376C40.5464 38.9911 40.5835 39.0469 40.5915 39.1047C40.6037 39.1573 40.6063 39.1936 40.5993 39.2136L40.1473 45.3938L43.2854 41.5152C43.3314 41.4583 43.3835 41.4278 43.4417 41.4235C43.5041 41.4141 43.5657 41.434 43.6264 41.4831L44.0238 41.8047C44.0846 41.8538 44.1168 41.9099 44.1207 41.9729C44.1342 42.0351 44.1179 42.0947 44.0719 42.1516L39.9799 47.2093C39.9381 47.261 39.8832 47.2893 39.8153 47.2942C39.7529 47.3036 39.6941 47.286 39.6389 47.2414L39.2414 46.9198C39.1807 46.8707 39.1463 46.8172 39.1383 46.7594C39.1358 46.706 39.1333 46.6697 39.1306 46.6504L39.5594 40.5158L36.4465 44.3633C36.4047 44.415 36.3498 44.4433 36.2819 44.4483C36.2236 44.4525 36.1642 44.4301 36.1034 44.3809L35.706 44.0594ZM42.8576 49.9739C42.4381 49.6345 42.1483 49.2759 41.9881 48.8982C41.8279 48.5205 41.78 48.1395 41.8444 47.7551C41.9129 47.3656 42.077 46.9935 42.3366 46.6388C42.4022 46.5464 42.4894 46.433 42.5982 46.2986C42.7111 46.1589 42.8039 46.05 42.8763 45.9717C43.1732 45.6386 43.5029 45.4005 43.8653 45.2573C44.2332 45.1186 44.6186 45.0882 45.0215 45.166C45.4243 45.2438 45.8327 45.4501 46.2467 45.7851C46.6607 46.12 46.9478 46.4764 47.1079 46.8541C47.2681 47.2318 47.316 47.6129 47.2517 47.9972C47.1928 48.386 47.0315 48.7603 46.7678 49.1202C46.7063 49.2074 46.6191 49.3208 46.5062 49.4604C46.3974 49.5949 46.3047 49.7038 46.228 49.7873C45.9353 50.1152 45.6056 50.3533 45.239 50.5017C44.8766 50.6448 44.494 50.6775 44.0911 50.5997C43.6883 50.5219 43.2771 50.3133 42.8576 49.9739ZM43.3409 49.3766C43.6831 49.6535 44.0379 49.7737 44.4053 49.7373C44.7769 49.6957 45.13 49.485 45.4645 49.1054C45.5328 49.0323 45.6151 48.9363 45.7113 48.8173C45.8075 48.6984 45.8843 48.5979 45.9415 48.5159C46.243 48.1094 46.3731 47.7228 46.3321 47.3558C46.2952 46.9838 46.1057 46.6593 45.7634 46.3824C45.4212 46.1055 45.0616 45.9856 44.6844 46.0228C44.317 46.0592 43.9688 46.2695 43.6398 46.6536C43.5715 46.7267 43.4892 46.8227 43.393 46.9417C43.2968 47.0606 43.22 47.1611 43.1628 47.2431C42.8559 47.6451 42.7208 48.0321 42.7577 48.4042C42.8043 48.7756 42.9987 49.0997 43.3409 49.3766ZM47.4546 53.6933C47.1014 53.4074 46.8591 53.0916 46.7279 52.7459C46.6064 52.3994 46.5888 52.0429 46.6752 51.6765C46.7617 51.31 46.943 50.9561 47.2191 50.6148L48.989 48.4273C49.0308 48.3756 49.0808 48.3476 49.1391 48.3434C49.207 48.3385 49.2685 48.3583 49.3237 48.403L49.7377 48.7379C49.7929 48.7826 49.8224 48.8364 49.8263 48.8994C49.8398 48.9617 49.8257 49.0187 49.7838 49.0704L48.0453 51.2191C47.4219 51.9897 47.469 52.6652 48.1866 53.2458C48.5288 53.5227 48.8836 53.6429 49.251 53.6065C49.6281 53.5693 49.9631 53.3697 50.256 53.0077L51.9945 50.859C52.0363 50.8073 52.0864 50.7793 52.1446 50.7751C52.2125 50.7701 52.2741 50.79 52.3293 50.8347L52.735 51.1629C52.7957 51.212 52.828 51.2681 52.8318 51.3311C52.8398 51.3889 52.8229 51.4437 52.781 51.4954L49.8062 55.1723C49.7643 55.224 49.7122 55.2545 49.6498 55.264C49.5916 55.2682 49.5321 55.2457 49.4714 55.1966L49.0905 54.8885C49.0353 54.8438 49.001 54.7903 48.9874 54.728C48.9836 54.6651 49.0026 54.6077 49.0445 54.556L49.3206 54.2147C49.0251 54.2751 48.7258 54.2725 48.4227 54.2069C48.1251 54.1458 47.8024 53.9746 47.4546 53.6933ZM52.3905 57.5584C52.3077 57.4914 52.2561 57.4197 52.2357 57.3433C52.2208 57.2714 52.2226 57.1958 52.241 57.1166L53.6214 52.278C53.6313 52.2432 53.6467 52.2129 53.6676 52.187C53.7053 52.1405 53.7532 52.1151 53.8114 52.1109C53.8697 52.1066 53.9236 52.1246 53.9733 52.1648L54.3707 52.4864C54.4314 52.5355 54.4658 52.589 54.4738 52.6468C54.4818 52.7046 54.4781 52.7487 54.4627 52.779L53.2567 56.8602L56.988 54.8222C57.02 54.8052 57.0623 54.7924 57.115 54.7837C57.1732 54.7795 57.2327 54.8019 57.2934 54.8511L57.6991 55.1793C57.7433 55.215 57.7694 55.2618 57.7774 55.3196C57.7909 55.3819 57.7789 55.4363 57.7412 55.4829C57.7203 55.5087 57.6939 55.5301 57.6619 55.547L53.2098 57.9004C53.1417 57.9394 53.0681 57.9569 52.9892 57.9529C52.9157 57.9534 52.8348 57.9179 52.7465 57.8464L52.3905 57.5584ZM56.9739 61.3951C56.4054 60.9351 56.0846 60.406 56.0114 59.8077C55.9425 59.2044 56.1216 58.6048 56.5487 58.0092C56.5976 57.9375 56.6639 57.8499 56.7476 57.7465C56.8354 57.6379 56.9093 57.5522 56.9692 57.4895C57.2884 57.1402 57.6389 56.8932 58.0207 56.7486C58.4067 56.5989 58.7984 56.5607 59.1957 56.634C59.5986 56.7118 59.9877 56.9025 60.363 57.2062C60.7825 57.5456 61.0661 57.912 61.2137 58.3052C61.3668 58.7029 61.3945 59.1146 61.2967 59.5403C61.1988 59.966 60.9846 60.3831 60.6541 60.7917L60.5474 60.9235C60.5014 60.9804 60.4465 61.0087 60.3828 61.0085C60.3245 61.0127 60.2678 60.9925 60.2126 60.9479L57.3479 58.6301C57.3437 58.6352 57.3353 58.6456 57.3228 58.6611C57.3102 58.6766 57.2998 58.6895 57.2914 58.6999C57.1309 58.9208 57.0195 59.1601 56.9572 59.4178C56.899 59.6702 56.9067 59.9203 56.9803 60.1681C57.0538 60.4158 57.2065 60.6335 57.4383 60.821C57.6371 60.9818 57.8257 61.0873 58.0042 61.1376C58.1827 61.1879 58.3405 61.213 58.4777 61.2127C58.6191 61.2073 58.7182 61.1977 58.7751 61.1838C58.8792 61.1568 58.9492 61.1492 58.9851 61.1612C59.0253 61.168 59.0757 61.196 59.1364 61.2451L59.5339 61.5667C59.5891 61.6113 59.6207 61.6626 59.6287 61.7204C59.6464 61.7775 59.6316 61.8297 59.5842 61.877C59.5159 61.9501 59.3944 62.01 59.2195 62.0568C59.0489 62.0984 58.8423 62.111 58.5999 62.0945C58.3575 62.0781 58.0966 62.0167 57.8172 61.9105C57.542 61.7991 57.2609 61.6273 56.9739 61.3951ZM57.7809 58.0948L60.0495 59.9303L60.0684 59.907C60.2567 59.6743 60.3771 59.4295 60.4297 59.1726C60.4878 58.9201 60.4732 58.673 60.3857 58.4311C60.3025 58.1841 60.1422 57.9645 59.9048 57.7725C59.6675 57.5805 59.4193 57.4695 59.1604 57.4397C58.9111 57.4091 58.6691 57.4486 58.4343 57.5582C58.1995 57.6677 57.988 57.8388 57.7997 58.0716L57.7809 58.0948ZM61.0936 64.7282C60.8176 64.5049 60.6083 64.25 60.4657 63.9635C60.3231 63.6769 60.2539 63.3899 60.2582 63.1025C60.2624 62.815 60.3545 62.5601 60.5344 62.3377C60.8231 61.9809 61.2078 61.8215 61.6884 61.8595C62.1691 61.8976 62.685 62.084 63.2362 62.4187L64.6017 63.2539L64.7837 63.029C64.9845 62.7807 65.0641 62.5243 65.0225 62.2596C64.9865 61.9994 64.7973 61.7309 64.4551 61.454C64.2067 61.253 63.9676 61.1366 63.7377 61.1046C63.5134 61.0771 63.3123 61.1112 63.1344 61.2069C63.0385 61.2576 62.9492 61.2495 62.8664 61.1825L62.4938 60.8811C62.4331 60.832 62.3987 60.7785 62.3907 60.7207C62.3924 60.6621 62.4121 60.6096 62.4497 60.5631C62.5125 60.4855 62.6202 60.4144 62.773 60.3497C62.9313 60.2896 63.1206 60.2588 63.3409 60.2573C63.5613 60.2559 63.8029 60.3016 64.0657 60.3945C64.3382 60.4866 64.6235 60.6532 64.9215 60.8944C65.2527 61.1624 65.498 61.4293 65.6574 61.6951C65.8209 61.9558 65.9118 62.2047 65.9299 62.4419C65.9536 62.6835 65.924 62.912 65.8412 63.1273C65.7638 63.3471 65.654 63.5449 65.5117 63.7207L63.4783 66.234C63.4364 66.2857 63.3816 66.3141 63.3136 66.319C63.2554 66.3232 63.1987 66.303 63.1435 66.2584L62.7626 65.9502C62.7019 65.9011 62.6676 65.8476 62.6595 65.7898C62.6557 65.7268 62.6747 65.6694 62.7166 65.6177L62.9864 65.2842C62.8394 65.3192 62.6675 65.3341 62.4707 65.329C62.2781 65.3186 62.0657 65.2708 61.8333 65.1855C61.6051 65.095 61.3586 64.9426 61.0936 64.7282ZM61.7382 64.2871C61.9645 64.4702 62.2071 64.5937 62.4659 64.6576C62.7289 64.7164 62.9902 64.6925 63.2499 64.586C63.5151 64.484 63.7648 64.2882 63.9992 63.9986L64.1749 63.7814L63.1077 63.1362C62.674 62.8709 62.3076 62.7198 62.0084 62.6832C61.7135 62.6414 61.4907 62.7135 61.3401 62.8997C61.2229 63.0445 61.1688 63.2017 61.1776 63.3715C61.1961 63.5405 61.2555 63.7041 61.3559 63.8623C61.4617 64.0249 61.5892 64.1665 61.7382 64.2871ZM66.0677 68.7526C65.7144 68.4668 65.4722 68.151 65.3409 67.8052C65.2194 67.4588 65.2019 67.1023 65.2883 66.7358C65.3747 66.3694 65.556 66.0155 65.8322 65.6742L67.602 63.4867C67.6439 63.435 67.6939 63.407 67.7521 63.4028C67.82 63.3978 67.8816 63.4177 67.9368 63.4623L68.3508 63.7973C68.406 63.8419 68.4355 63.8958 68.4393 63.9588C68.4529 64.021 68.4387 64.078 68.3969 64.1298L66.6584 66.2785C66.035 67.049 66.082 67.7246 66.7996 68.3051C67.1418 68.582 67.4967 68.7023 67.8641 68.6658C68.2412 68.6287 68.5762 68.4291 68.8691 68.0671L70.6075 65.9184C70.6494 65.8666 70.6994 65.8387 70.7576 65.8344C70.8256 65.8295 70.8871 65.8494 70.9423 65.894L71.348 66.2223C71.4087 66.2714 71.441 66.3274 71.4448 66.3904C71.4529 66.4483 71.4359 66.503 71.3941 66.5547L68.4192 70.2316C68.3774 70.2833 68.3253 70.3139 68.2629 70.3233C68.2046 70.3275 68.1452 70.3051 68.0845 70.256L67.7036 69.9478C67.6484 69.9032 67.614 69.8497 67.6005 69.7874C67.5967 69.7244 67.6157 69.667 67.6575 69.6153L67.9337 69.274C67.6382 69.3344 67.3389 69.3319 67.0357 69.2663C66.7381 69.2052 66.4154 69.034 66.0677 68.7526Z" fill="white"/>
<path d="M11.0372 24.0906C10.1042 23.1519 10.68 21.6358 11.9696 21.6358L50.9492 21.6357C51.3621 21.6357 51.7673 21.8061 52.067 22.1058L90.6387 60.6773C90.9319 60.9705 91.0983 61.3616 91.0996 61.7601L91.192 91.4479L91.122 101.248C91.1128 102.529 89.5511 103.081 88.611 102.135L11.0372 24.0906Z" fill="#F1C400"/>
</svg>
