<svg width="115" height="26" viewBox="0 0 115 26" fill="none" xmlns="http://www.w3.org/2000/svg">
<path d="M59.8951 25.9281C52.7495 25.9281 46.9355 20.1168 46.9355 12.9698C46.9355 5.82487 52.7495 0.0107422 59.8951 0.0107422C67.0388 0.0107422 72.8529 5.82297 72.8529 12.9698C72.8529 20.1168 67.0388 25.9281 59.8951 25.9281ZM59.8951 5.34305C55.6879 5.34305 52.265 8.76402 52.265 12.9698C52.265 17.1779 55.6881 20.6005 59.8951 20.6005C64.1006 20.6005 67.5234 17.1776 67.5234 12.9698C67.5234 8.76402 64.1003 5.34305 59.8951 5.34305Z" fill="url(#paint0_linear_562_15107)"/>
<path d="M80.481 25.9281C73.3373 25.9281 67.5234 20.1168 67.5234 12.9698C67.5234 5.82487 73.3366 0.0107422 80.481 0.0107422C87.6288 0.0107422 93.44 5.82297 93.44 12.9698C93.4408 20.1168 87.6288 25.9281 80.481 25.9281ZM80.481 5.54484C76.3862 5.54484 73.0556 8.87708 73.0556 12.9695C73.0556 17.066 76.3881 20.3968 80.481 20.3968C84.5761 20.3968 87.9067 17.066 87.9067 12.9695C87.9067 8.87708 84.5761 5.54484 80.481 5.54484Z" fill="url(#paint1_linear_562_15107)"/>
<path opacity="0.44" d="M72.6146 15.4908C72.9142 13.6687 73.4022 12.3499 73.51 11.7397C74.2509 7.7935 77.2027 5.56302 80.8782 5.55419V0.0126953C76.2844 0.0210438 71.9284 2.55803 69.6788 6.38594C69.6788 6.38594 67.7212 9.40476 67.7004 12.0624C67.6754 12.3935 67.8602 13.3517 67.7338 13.9924C67.0717 18.4922 63.4215 21.1475 58.8281 20.4906V25.8527C64.3405 26.3641 67.9564 23.981 70.4072 20.768C70.407 20.7666 72.096 18.5857 72.6146 15.4908Z" fill="#CB0000"/>
<path d="M0.0273438 12.7767C0.0273438 5.38157 5.29524 0.00537109 12.5456 0.00537109C17.0182 0.00537109 19.7246 1.70298 21.3112 3.57734C21.7807 4.15529 22.0326 4.73301 22.0326 5.30882C22.0326 6.78841 20.843 7.83555 19.5068 7.83555C18.8945 7.83555 18.3542 7.58343 17.9208 7.29385C16.2957 6.2126 15.2147 5.05693 12.4726 5.05693C8.72147 5.05693 5.76324 8.3033 5.76324 12.8108C5.76324 17.3204 8.79303 20.567 12.6162 20.567C15.3941 20.567 16.5476 19.341 18.0644 18.3296C18.4969 18.042 19.0386 17.7879 19.6525 17.7879C20.9873 17.7879 22.1411 18.8348 22.1411 20.3156C22.1411 20.8933 21.9245 21.4703 21.456 22.0445C19.9027 23.9582 17.1618 25.6183 12.4726 25.6183C5.25756 25.6181 0.0273438 20.2078 0.0273438 12.7767Z" fill="white"/>
<path d="M44.7952 2.89277V24.03C44.7952 24.788 44.326 25.2577 43.6035 25.2577H40.2138C39.4555 25.2577 38.988 24.7878 38.988 24.03V15.7719H29.5716V24.03C29.5716 24.788 29.1022 25.2577 28.3809 25.2577H24.9892C24.2321 25.2577 23.7637 24.7878 23.7637 24.03V2.89277C23.7637 1.30464 25.0625 0.00561527 26.6508 0.00561527C28.237 0.00561527 29.5723 1.30464 29.5723 2.89277V10.5407H38.9887V2.89277C38.9887 1.30464 40.287 0.00561527 41.8742 0.00561527C43.4597 0.00537674 44.7952 1.3044 44.7952 2.89277Z" fill="white"/>
<path d="M102.331 5.77988V10.6485H110.085C111.672 10.6485 112.972 11.7665 112.972 13.3527C112.972 14.9389 111.673 16.0576 110.085 16.0576H102.331V24.0299C102.331 24.788 101.86 25.2577 101.139 25.2577H97.75C96.991 25.2577 96.5234 24.7878 96.5234 24.0299V3.18159C96.5234 1.30461 97.8208 0.367188 99.3729 0.367188H99.4077H111.71C113.297 0.367188 114.596 1.48517 114.596 3.07234C114.596 4.66047 113.297 5.77845 111.71 5.77845H102.33L102.331 5.77988Z" fill="white"/>
<defs>
<linearGradient id="paint0_linear_562_15107" x1="54.5192" y1="21.949" x2="65.5758" y2="3.47942" gradientUnits="userSpaceOnUse">
<stop offset="0.0012" stop-color="#CB0000"/>
<stop offset="0.2173" stop-color="#C60000"/>
<stop offset="0.4912" stop-color="#B60000"/>
<stop offset="0.7746" stop-color="#9E0000"/>
<stop offset="0.9974" stop-color="#720000"/>
</linearGradient>
<linearGradient id="paint1_linear_562_15107" x1="84.6265" y1="2.31231" x2="76.7105" y2="22.6677" gradientUnits="userSpaceOnUse">
<stop offset="0.0012" stop-color="#CB0000"/>
<stop offset="0.2173" stop-color="#C60000"/>
<stop offset="0.4912" stop-color="#B60000"/>
<stop offset="0.7746" stop-color="#9E0000"/>
<stop offset="0.9974" stop-color="#720000"/>
</linearGradient>
</defs>
</svg>
