<svg width="206" height="61" viewBox="0 0 206 61" fill="none" xmlns="http://www.w3.org/2000/svg">
<path d="M124.658 59.1368C123.945 58.3527 123.59 57.2737 123.59 55.8997V50.3841C123.59 50.2405 123.638 50.124 123.729 50.0425C123.825 49.9571 123.937 49.9144 124.072 49.9144H125.886C126.022 49.9144 126.134 49.961 126.229 50.0503C126.325 50.1434 126.369 50.2521 126.369 50.3841V55.7832C126.369 57.394 127.086 58.1975 128.526 58.1975C129.223 58.1975 129.778 57.9801 130.188 57.5493C130.599 57.1184 130.802 56.5285 130.802 55.7832V50.3841C130.802 50.2405 130.85 50.124 130.942 50.0425C131.037 49.9571 131.149 49.9144 131.285 49.9144H133.079C133.226 49.9144 133.346 49.9571 133.434 50.0425C133.521 50.1279 133.565 50.2405 133.565 50.3841V59.6492C133.565 59.7811 133.521 59.8898 133.434 59.983C133.346 60.0761 133.23 60.1188 133.079 60.1188H131.404C131.269 60.1188 131.157 60.0722 131.061 59.983C130.966 59.8898 130.922 59.7811 130.922 59.6492V58.8457C130.184 59.8277 129.068 60.3168 127.577 60.3168C126.341 60.3168 125.364 59.9247 124.654 59.1407L124.658 59.1368Z" fill="white"/>
<path d="M137.258 59.8626C136.572 59.5599 136.066 59.2105 135.735 58.8107C135.404 58.4109 135.24 58.0694 135.24 57.7822C135.24 57.6502 135.284 57.5454 135.372 57.4678C135.46 57.3901 135.563 57.3513 135.683 57.3513H137.337C137.445 57.3513 137.541 57.4056 137.62 57.5066C137.688 57.5609 137.84 57.6851 138.075 57.8792C138.31 58.0771 138.577 58.2285 138.88 58.3411C139.183 58.4536 139.514 58.508 139.877 58.508C140.415 58.508 140.85 58.4071 141.189 58.2052C141.524 58.0034 141.691 57.7123 141.691 57.3319C141.691 57.0718 141.615 56.8584 141.46 56.6953C141.304 56.5323 141.029 56.3809 140.635 56.2451C140.24 56.1092 139.642 55.954 138.848 55.7832C137.704 55.5464 136.863 55.1893 136.317 54.7041C135.771 54.219 135.499 53.5785 135.499 52.7789C135.499 52.2549 135.659 51.762 135.982 51.2962C136.305 50.8304 136.783 50.4539 137.425 50.1589C138.063 49.864 138.825 49.7165 139.714 49.7165C140.603 49.7165 141.412 49.8562 142.074 50.1395C142.732 50.4229 143.234 50.7567 143.577 51.1487C143.92 51.5407 144.091 51.8862 144.091 52.189C144.091 52.3054 144.047 52.4102 143.96 52.4917C143.872 52.5732 143.768 52.6198 143.649 52.6198H142.138C141.99 52.6198 141.875 52.5693 141.795 52.4645C141.699 52.3986 141.548 52.2782 141.34 52.0997C141.133 51.9211 140.902 51.7814 140.647 51.6766C140.391 51.5718 140.08 51.5213 139.718 51.5213C139.219 51.5213 138.836 51.6261 138.569 51.8357C138.302 52.0453 138.167 52.3209 138.167 52.6586C138.167 52.8954 138.23 53.0895 138.358 53.2486C138.486 53.4039 138.745 53.5513 139.136 53.6911C139.526 53.8269 140.108 53.9705 140.89 54.1142C143.31 54.5722 144.518 55.6008 144.518 57.196C144.518 58.1237 144.103 58.8767 143.278 59.4551C142.453 60.0295 141.3 60.3168 139.821 60.3168C138.801 60.3168 137.947 60.1654 137.262 59.8665L137.258 59.8626Z" fill="white"/>
<path d="M146.636 48.1057C146.54 48.0125 146.496 47.9038 146.496 47.7719V46.3396C146.496 46.196 146.544 46.0795 146.636 45.9864C146.727 45.8932 146.843 45.8505 146.979 45.8505H148.832C148.98 45.8505 149.1 45.8971 149.195 45.9864C149.291 46.0795 149.335 46.196 149.335 46.3396V47.7719C149.335 47.9038 149.283 48.0125 149.183 48.1057C149.084 48.1988 148.964 48.2415 148.832 48.2415H146.979C146.843 48.2415 146.731 48.1949 146.636 48.1057ZM146.715 59.9791C146.62 59.8859 146.576 59.7772 146.576 59.6453V50.3802C146.576 50.2366 146.624 50.1201 146.715 50.0386C146.811 49.9532 146.923 49.9105 147.058 49.9105H148.773C148.908 49.9105 149.02 49.9571 149.116 50.0464C149.211 50.1395 149.255 50.2482 149.255 50.3802V59.6453C149.255 59.7772 149.207 59.8859 149.116 59.9791C149.02 60.0722 148.908 60.1149 148.773 60.1149H147.058C146.923 60.1149 146.811 60.0683 146.715 59.9791Z" fill="white"/>
<path d="M152.058 59.9791C151.962 59.8859 151.918 59.7772 151.918 59.6453V50.3802C151.918 50.2366 151.966 50.1201 152.058 50.0386C152.153 49.9532 152.265 49.9105 152.4 49.9105H154.075C154.222 49.9105 154.342 49.9532 154.43 50.0386C154.517 50.124 154.561 50.2366 154.561 50.3802V51.1837C155.383 50.2017 156.503 49.7126 157.93 49.7126C159.166 49.7126 160.147 50.1046 160.873 50.8887C161.598 51.6727 161.961 52.7518 161.961 54.1258V59.6414C161.961 59.7734 161.917 59.882 161.83 59.9752C161.742 60.0683 161.626 60.111 161.475 60.111H159.661C159.525 60.111 159.413 60.0645 159.318 59.9752C159.222 59.882 159.178 59.7734 159.178 59.6414V54.2423C159.178 53.4854 158.987 52.8915 158.604 52.4645C158.221 52.0376 157.675 51.828 156.961 51.828C156.248 51.828 155.726 52.0454 155.307 52.4762C154.888 52.907 154.681 53.497 154.681 54.2423V59.6414C154.681 59.7734 154.637 59.882 154.549 59.9752C154.462 60.0683 154.346 60.111 154.199 60.111H152.404C152.269 60.111 152.157 60.0645 152.061 59.9752L152.058 59.9791Z" fill="white"/>
<path d="M165.072 59.0553C164.191 58.2169 163.724 57.0253 163.672 55.4843L163.652 54.9953C163.652 53.3612 164.091 52.0725 164.972 51.1293C165.853 50.1861 167.073 49.7165 168.632 49.7165C170.191 49.7165 171.467 50.1861 172.332 51.1293C173.197 52.0725 173.632 53.3262 173.632 54.8982V55.3097C173.632 55.4416 173.584 55.5503 173.492 55.6435C173.396 55.7366 173.277 55.7793 173.129 55.7793H166.435V55.9346C166.463 56.6682 166.666 57.2737 167.049 57.7511C167.432 58.2285 167.958 58.4692 168.632 58.4692C169.398 58.4692 170.024 58.1664 170.506 57.5648C170.626 57.4212 170.721 57.3319 170.789 57.3008C170.857 57.2698 170.972 57.2504 171.132 57.2504H172.906C173.026 57.2504 173.129 57.2814 173.217 57.3474C173.305 57.4134 173.349 57.5027 173.349 57.623C173.349 57.9374 173.157 58.3062 172.775 58.7331C172.392 59.1601 171.846 59.5288 171.132 59.8432C170.418 60.1576 169.593 60.3129 168.652 60.3129C167.145 60.3129 165.953 59.8937 165.072 59.0553ZM170.849 54.1103V54.0715C170.849 53.2991 170.649 52.6819 170.255 52.2161C169.86 51.7503 169.318 51.5175 168.632 51.5175C167.946 51.5175 167.408 51.7503 167.017 52.2161C166.627 52.6819 166.431 53.2991 166.431 54.0715V54.1103H170.845H170.849Z" fill="white"/>
<path d="M177.199 59.8626C176.513 59.5599 176.007 59.2105 175.676 58.8107C175.345 58.4109 175.182 58.0694 175.182 57.7822C175.182 57.6502 175.226 57.5454 175.313 57.4678C175.401 57.3901 175.505 57.3513 175.624 57.3513H177.279C177.386 57.3513 177.482 57.4056 177.562 57.5066C177.63 57.5609 177.781 57.6851 178.016 57.8792C178.252 58.0771 178.519 58.2285 178.822 58.3411C179.125 58.4536 179.456 58.508 179.818 58.508C180.357 58.508 180.791 58.4071 181.13 58.2052C181.465 58.0034 181.633 57.7123 181.633 57.3319C181.633 57.0718 181.557 56.8584 181.401 56.6953C181.246 56.5323 180.971 56.3809 180.576 56.2451C180.181 56.1092 179.583 55.954 178.79 55.7832C177.646 55.5464 176.804 55.1893 176.258 54.7041C175.712 54.219 175.441 53.5785 175.441 52.7789C175.441 52.2549 175.6 51.762 175.923 51.2962C176.246 50.8304 176.725 50.4539 177.367 50.1589C178.004 49.864 178.766 49.7165 179.655 49.7165C180.544 49.7165 181.353 49.8562 182.015 50.1395C182.673 50.4229 183.176 50.7567 183.518 51.1487C183.861 51.5407 184.033 51.8862 184.033 52.189C184.033 52.3054 183.989 52.4102 183.901 52.4917C183.813 52.5732 183.71 52.6198 183.59 52.6198H182.079C181.932 52.6198 181.816 52.5693 181.736 52.4645C181.641 52.3986 181.489 52.2782 181.282 52.0997C181.074 51.9211 180.843 51.7814 180.588 51.6766C180.333 51.5718 180.022 51.5213 179.659 51.5213C179.161 51.5213 178.778 51.6261 178.511 51.8357C178.244 52.0453 178.108 52.3209 178.108 52.6586C178.108 52.8954 178.172 53.0895 178.299 53.2486C178.427 53.4039 178.686 53.5513 179.077 53.6911C179.468 53.8269 180.05 53.9705 180.831 54.1142C183.251 54.5722 184.459 55.6008 184.459 57.196C184.459 58.1237 184.045 58.8767 183.219 59.4551C182.394 60.0295 181.242 60.3168 179.763 60.3168C178.742 60.3168 177.889 60.1654 177.203 59.8665L177.199 59.8626Z" fill="white"/>
<path d="M187.945 59.8626C187.259 59.5599 186.753 59.2105 186.422 58.8107C186.091 58.4109 185.928 58.0694 185.928 57.7822C185.928 57.6502 185.972 57.5454 186.059 57.4678C186.147 57.3901 186.251 57.3513 186.37 57.3513H188.025C188.133 57.3513 188.228 57.4056 188.308 57.5066C188.376 57.5609 188.527 57.6851 188.762 57.8792C188.998 58.0771 189.265 58.2285 189.568 58.3411C189.871 58.4536 190.202 58.508 190.565 58.508C191.103 58.508 191.537 58.4071 191.876 58.2052C192.211 58.0034 192.379 57.7123 192.379 57.3319C192.379 57.0718 192.303 56.8584 192.147 56.6953C191.992 56.5323 191.717 56.3809 191.322 56.2451C190.927 56.1092 190.329 55.954 189.536 55.7832C188.392 55.5464 187.55 55.1893 187.004 54.7041C186.458 54.219 186.187 53.5785 186.187 52.7789C186.187 52.2549 186.346 51.762 186.669 51.2962C186.992 50.8304 187.471 50.4539 188.113 50.1589C188.75 49.864 189.512 49.7165 190.401 49.7165C191.29 49.7165 192.1 49.8562 192.761 50.1395C193.419 50.4229 193.922 50.7567 194.264 51.1487C194.607 51.5407 194.779 51.8862 194.779 52.189C194.779 52.3054 194.735 52.4102 194.647 52.4917C194.56 52.5732 194.456 52.6198 194.336 52.6198H192.825C192.678 52.6198 192.562 52.5693 192.482 52.4645C192.387 52.3986 192.235 52.2782 192.028 52.0997C191.82 51.9211 191.589 51.7814 191.334 51.6766C191.079 51.5718 190.768 51.5213 190.405 51.5213C189.907 51.5213 189.524 51.6261 189.257 51.8357C188.99 52.0453 188.854 52.3209 188.854 52.6586C188.854 52.8954 188.918 53.0895 189.046 53.2486C189.173 53.4039 189.432 53.5513 189.823 53.6911C190.214 53.8269 190.796 53.9705 191.577 54.1142C193.997 54.5722 195.205 55.6008 195.205 57.196C195.205 58.1237 194.791 58.8767 193.965 59.4551C193.14 60.0295 191.988 60.3168 190.509 60.3168C189.488 60.3168 188.635 60.1654 187.949 59.8665L187.945 59.8626Z" fill="white"/>
<path d="M111.055 46.4909L111.067 54.9603C111.067 57.9102 113.531 60.3129 116.561 60.3129C118.104 60.3129 119.587 59.6763 120.627 58.5623C121.684 57.4367 122.182 55.9773 122.039 54.4518C121.863 52.5965 120.691 50.9469 118.985 50.1512C117.266 49.3477 115.289 49.4409 113.694 50.3996L113.551 50.485L113.543 46.4909C113.543 46.1106 113.224 45.8 112.833 45.8H111.764C111.374 45.8 111.055 46.1106 111.055 46.4909ZM114.444 52.876C115.014 52.3287 115.763 52.0298 116.561 52.0298C116.577 52.0298 116.589 52.0298 116.605 52.0298C118.187 52.0531 119.547 53.3728 119.571 54.9176C119.583 55.7094 119.276 56.4586 118.702 57.0214C118.132 57.5842 117.37 57.8947 116.561 57.8947C114.898 57.8947 113.547 56.5789 113.547 54.9603C113.547 54.1724 113.865 53.431 114.444 52.8721V52.876Z" fill="white"/>
<path d="M205.056 8.9455C205.056 11.7984 202.68 14.1079 199.753 14.1079C196.827 14.1079 194.451 11.7945 194.451 8.9455C194.451 6.0965 196.823 3.78314 199.753 3.78314C202.684 3.78314 205.056 6.0965 205.056 8.9455ZM196.731 25.3758C196.731 33.2862 190.121 39.7217 181.995 39.7217C173.87 39.7217 167.291 33.3211 167.256 25.4417C167.22 33.3211 160.625 39.7217 152.52 39.7217C144.414 39.7217 137.808 33.3172 137.78 25.4301C137.748 33.3172 131.154 39.7217 123.052 39.7217C118.918 39.7217 114.943 38.0099 112.148 35.0251C110.31 33.0611 109.102 30.7167 108.587 28.1937L86.6512 28.1821L87.01 29.0321C88.1623 31.1514 90.2036 32.6302 92.6038 33.0805C93.3055 33.2086 94.0351 33.2707 94.7687 33.2707L95.1315 33.2629C96.6984 33.2202 98.1975 32.8127 99.4653 32.0829L100.167 31.6482C100.673 31.3066 101.168 31.2756 101.678 31.5473L105.597 33.6511C105.956 33.8451 106.199 34.1945 106.243 34.5826C106.287 34.963 106.147 35.324 105.86 35.5763L104.82 36.4884C104.78 36.5233 104.74 36.5428 104.704 36.5622L104.664 36.5854C102.168 38.5572 98.9669 39.6091 95.1594 39.7061C94.984 39.7178 94.8245 39.7217 94.6491 39.7217C94.1866 39.7217 93.748 39.7061 93.3095 39.679L92.5001 39.6169C84.9727 38.8056 79.3471 32.6263 79.4109 25.2438C79.4269 23.4661 79.7937 21.7543 80.4396 20.1746L80.3399 20.062C78.6135 18.1096 76.0021 17.1082 73.3667 17.376C69.1883 17.7952 66.2739 20.9315 66.2739 25.007L66.1383 38.0022C66.1383 38.9066 65.3808 39.644 64.4518 39.644H61.2344C60.3253 39.644 59.5838 38.9221 59.5838 38.0371V25.6513C59.4283 33.4337 52.8857 39.7217 44.8599 39.7217C36.8342 39.7217 30.148 33.3172 30.1161 25.434C30.0842 33.3172 23.4898 39.7217 15.3883 39.7217C7.2868 39.7217 0.644531 33.2862 0.644531 25.3758C0.644531 17.4653 7.2589 11.0298 15.3883 11.0298C23.5177 11.0298 30.0803 17.4304 30.1161 25.3098C30.152 17.4304 36.7504 11.0298 44.8599 11.0298C52.9694 11.0298 59.4243 17.3139 59.5798 25.0963V13.0521C59.5798 12.1477 60.3333 11.4102 61.2623 11.4102H64.4797C65.3888 11.4102 66.1303 12.1322 66.1303 13.0172V13.7702C68.1956 12.1749 70.524 11.2239 72.8723 11.0182C77.1344 10.6456 81.1731 12.0817 84.0796 14.9734C86.5954 12.6562 89.9285 11.1696 93.5686 11.0337C97.6074 10.8824 101.443 12.303 104.361 15.0355C106.562 17.0966 108.017 19.6894 108.599 22.5268C109.501 18.1718 112.443 14.4067 116.553 12.4893C121.162 10.3389 126.465 10.5874 130.735 13.1569L131.114 13.3859L131.134 2.68081C131.134 1.65998 131.987 0.829346 133.036 0.829346H135.906C136.955 0.829346 137.808 1.65998 137.808 2.68081L137.776 25.2865C137.832 17.4187 144.422 11.0376 152.516 11.0376C160.609 11.0376 167.224 17.4459 167.252 25.3331C167.28 17.4459 173.882 11.0376 181.991 11.0376C190.101 11.0376 196.727 17.4731 196.727 25.3835L196.731 25.3758ZM23.4499 25.3758C23.4499 21.0402 19.8298 17.5119 15.3763 17.5119C10.9229 17.5119 7.29478 21.0402 7.29478 25.3758C7.29478 29.7114 10.9189 33.2396 15.3763 33.2396C19.8338 33.2396 23.4499 29.7114 23.4499 25.3758ZM52.9176 25.3758C52.9176 21.0402 49.2974 17.5119 44.848 17.5119C40.3985 17.5119 36.7704 21.0402 36.7704 25.3758C36.7704 29.7114 40.3945 33.2396 44.848 33.2396C49.3014 33.2396 52.9176 29.7114 52.9176 25.3758ZM101.562 22.3405C100.326 19.4022 97.428 17.5119 94.1427 17.5119C90.8575 17.5119 87.9629 19.3983 86.7071 22.321L101.558 22.3366L101.562 22.3405ZM131.13 25.3758C131.13 23.2604 130.273 21.273 128.722 19.7826C127.195 18.3192 125.185 17.5158 123.048 17.5158C123.008 17.5158 122.968 17.5158 122.929 17.5158C118.682 17.574 115.042 21.1217 114.979 25.2593C114.947 27.3825 115.772 29.3853 117.303 30.8991C118.834 32.409 120.871 33.2435 123.044 33.2435C127.502 33.2435 131.126 29.7152 131.126 25.3796L131.13 25.3758ZM160.585 25.3758C160.585 21.0402 156.965 17.5119 152.516 17.5119C148.066 17.5119 144.442 21.0402 144.442 25.3758C144.442 29.7114 148.062 33.2396 152.516 33.2396C156.969 33.2396 160.585 29.7114 160.585 25.3758ZM190.065 25.3758C190.065 21.0402 186.445 17.5119 181.995 17.5119C177.546 17.5119 173.922 21.0402 173.922 25.3758C173.922 29.7114 177.542 33.2396 181.995 33.2396C186.449 33.2396 190.065 29.7114 190.065 25.3758Z" fill="white"/>
</svg>
