<svg width="29" height="28" viewBox="0 0 29 28" fill="none" xmlns="http://www.w3.org/2000/svg">
<g clip-path="url(#clip0_562_5291)">
<path d="M15.3037 24.5087H9.52036C8.90682 24.5087 8.31842 24.2649 7.88459 23.8311C7.45076 23.3973 7.20703 22.8089 7.20703 22.1953V6.00205C7.20703 5.38851 7.45076 4.80011 7.88459 4.36628C8.31842 3.93245 8.90682 3.68872 9.52036 3.68872H18.7737C19.3872 3.68872 19.9756 3.93245 20.4094 4.36628C20.8433 4.80011 21.087 5.38851 21.087 6.00205V11.7854" stroke="white" stroke-width="1.73499" stroke-linecap="round" stroke-linejoin="round"/>
<path d="M12.9922 4.84521H15.3064" stroke="white" stroke-width="1.73499" stroke-linecap="round" stroke-linejoin="round"/>
<path d="M14.1465 19.8816V19.8938" stroke="white" stroke-width="1.73499" stroke-linecap="round" stroke-linejoin="round"/>
<path d="M24.5544 17.5684H21.6627C21.2026 17.5684 20.7613 17.7512 20.4359 18.0765C20.1105 18.4019 19.9277 18.8432 19.9277 19.3034C19.9277 19.7635 20.1105 20.2048 20.4359 20.5302C20.7613 20.8556 21.2026 21.0383 21.6627 21.0383H22.8194C23.2795 21.0383 23.7208 21.2211 24.0462 21.5465C24.3716 21.8719 24.5544 22.3132 24.5544 22.7733C24.5544 23.2335 24.3716 23.6748 24.0462 24.0002C23.7208 24.3255 23.2795 24.5083 22.8194 24.5083H19.9277" stroke="white" stroke-width="1.73499" stroke-linecap="round" stroke-linejoin="round"/>
<path d="M22.2422 24.5085V25.6652M22.2422 16.4119V17.5685" stroke="white" stroke-width="1.73499" stroke-linecap="round" stroke-linejoin="round"/>
</g>
<defs>
<clipPath id="clip0_562_5291">
<rect width="27.7599" height="27.7599" fill="white" transform="translate(0.265625 0.21875)"/>
</clipPath>
</defs>
</svg>
