<svg width="25" height="25" viewBox="0 0 25 25" fill="none" xmlns="http://www.w3.org/2000/svg">
<path d="M3.26563 12.6887C3.26562 13.8706 3.49842 15.0409 3.95071 16.1329C4.403 17.2248 5.06594 18.217 5.90166 19.0527C6.73739 19.8884 7.72954 20.5513 8.82147 21.0036C9.9134 21.4559 11.0837 21.6887 12.2656 21.6887C13.4475 21.6887 14.6178 21.4559 15.7098 21.0036C16.8017 20.5513 17.7939 19.8884 18.6296 19.0527C19.4653 18.217 20.1282 17.2248 20.5805 16.1329C21.0328 15.0409 21.2656 13.8706 21.2656 12.6887C21.2656 11.5068 21.0328 10.3365 20.5805 9.24457C20.1282 8.15264 19.4653 7.16049 18.6296 6.32476C17.7939 5.48903 16.8017 4.8261 15.7098 4.37381C14.6178 3.92151 13.4475 3.68872 12.2656 3.68872C11.0837 3.68872 9.9134 3.92151 8.82147 4.37381C7.72954 4.8261 6.73739 5.48903 5.90166 6.32476C5.06594 7.16049 4.403 8.15264 3.95071 9.24457C3.49842 10.3365 3.26562 11.5068 3.26563 12.6887Z" stroke="#2A2A2A" stroke-width="1.5" stroke-linecap="round" stroke-linejoin="round"/>
<path d="M12.2656 17.6887V17.6987" stroke="#2A2A2A" stroke-width="1.5" stroke-linecap="round" stroke-linejoin="round"/>
<path d="M12.2656 14.1886C12.2472 13.864 12.3348 13.5422 12.5151 13.2717C12.6955 13.0011 12.9589 12.7965 13.2656 12.6886C13.6415 12.5449 13.9789 12.3159 14.2512 12.0196C14.5235 11.7233 14.7233 11.3679 14.8349 10.9812C14.9466 10.5946 14.9669 10.1873 14.8944 9.79151C14.8218 9.39568 14.6584 9.02209 14.4169 8.70016C14.1755 8.37822 13.8626 8.11673 13.5029 7.93626C13.1432 7.75579 12.7466 7.66128 12.3442 7.66017C11.9417 7.65905 11.5445 7.75136 11.1839 7.92983C10.8232 8.1083 10.5089 8.36805 10.2656 8.68864" stroke="#2A2A2A" stroke-width="1.5" stroke-linecap="round" stroke-linejoin="round"/>
</svg>
