<svg width="29" height="29" viewBox="0 0 29 29" fill="none" xmlns="http://www.w3.org/2000/svg">
<g clip-path="url(#clip0_562_5276)">
<path d="M7.20549 4.04248H17.0372L22.2422 9.24748V23.7058C22.2422 24.0126 22.1203 24.3068 21.9034 24.5237C21.6865 24.7406 21.3923 24.8625 21.0855 24.8625H7.20549C6.89873 24.8625 6.60453 24.7406 6.38761 24.5237C6.17069 24.3068 6.04883 24.0126 6.04883 23.7058V5.19915C6.04883 4.89238 6.17069 4.59818 6.38761 4.38126C6.60453 4.16434 6.89873 4.04248 7.20549 4.04248Z" stroke="white" stroke-width="2" stroke-linecap="round" stroke-linejoin="round"/>
<path d="M10.6758 13.2959H14.1458V20.2359" stroke="white" stroke-width="2" stroke-linecap="round" stroke-linejoin="round"/>
<path d="M17.6152 20.2358V20.2474" stroke="white" stroke-width="2" stroke-linecap="round" stroke-linejoin="round"/>
<path d="M17.6152 16.7659V16.7774" stroke="white" stroke-width="2" stroke-linecap="round" stroke-linejoin="round"/>
<path d="M17.6152 13.2959V13.3075" stroke="white" stroke-width="2" stroke-linecap="round" stroke-linejoin="round"/>
<path d="M10.6758 16.7659V16.7774" stroke="white" stroke-width="2" stroke-linecap="round" stroke-linejoin="round"/>
<path d="M10.6758 20.2358V20.2474" stroke="white" stroke-width="2" stroke-linecap="round" stroke-linejoin="round"/>
</g>
<defs>
<clipPath id="clip0_562_5276">
<rect width="27.76" height="27.76" fill="white" transform="translate(0.265625 0.57251)"/>
</clipPath>
</defs>
</svg>
