<svg width="33" height="33" viewBox="0 0 33 33" fill="none" xmlns="http://www.w3.org/2000/svg">
<path d="M10.6904 16.8507C10.6904 18.2652 11.2523 19.6217 12.2525 20.6219C13.2527 21.6221 14.6093 22.184 16.0238 22.184C17.4383 22.184 18.7948 21.6221 19.795 20.6219C20.7952 19.6217 21.3571 18.2652 21.3571 16.8507C21.3571 15.4362 20.7952 14.0796 19.795 13.0794C18.7948 12.0792 17.4383 11.5173 16.0238 11.5173C14.6093 11.5173 13.2527 12.0792 12.2525 13.0794C11.2523 14.0796 10.6904 15.4362 10.6904 16.8507Z" stroke="white" stroke-width="1.5" stroke-linecap="round" stroke-linejoin="round"/>
<path d="M4.02344 16.8506H5.35677M16.0234 4.85059V6.18392M26.6901 16.8506H28.0234M16.0234 27.5173V28.8506M7.4901 8.31725L8.42344 9.25059M24.5568 8.31725L23.6234 9.25059M23.6234 24.4506L24.5568 25.3839M8.42344 24.4506L7.4901 25.3839" stroke="white" stroke-width="1.5" stroke-linecap="round" stroke-linejoin="round"/>
</svg>
