<svg width="41" height="41" viewBox="0 0 41 41" fill="none" xmlns="http://www.w3.org/2000/svg">
<g clip-path="url(#clip0_743_2277)">
<path d="M20.7065 20.6249C19.792 22.4002 18.5658 23.9967 17.0865 25.3383C16.1542 26.2708 14.9663 26.9059 13.6731 27.1633C12.3798 27.4207 11.0393 27.2888 9.82099 26.7843C8.6027 26.2798 7.56139 25.4253 6.82875 24.3289C6.09612 23.2326 5.70508 21.9435 5.70508 20.6249C5.70508 19.3063 6.09612 18.0173 6.82875 16.9209C7.56139 15.8245 8.6027 14.9701 9.82099 14.4655C11.0393 13.961 12.3798 13.8291 13.6731 14.0865C14.9663 14.3439 16.1542 14.979 17.0865 15.9116C18.5658 17.2531 19.792 18.8496 20.7065 20.6249ZM20.7065 20.6249C21.621 18.8496 22.8472 17.2531 24.3265 15.9116C25.2588 14.979 26.4467 14.3439 27.7399 14.0865C29.0332 13.8291 30.3737 13.961 31.592 14.4655C32.8103 14.9701 33.8516 15.8245 34.5843 16.9209C35.3169 18.0173 35.7079 19.3063 35.7079 20.6249C35.7079 21.9435 35.3169 23.2326 34.5843 24.3289C33.8516 25.4253 32.8103 26.2798 31.592 26.7843C30.3737 27.2888 29.0332 27.4207 27.7399 27.1633C26.4467 26.9059 25.2588 26.2708 24.3265 25.3383C22.8472 23.9967 21.621 22.4002 20.7065 20.6249Z" stroke="#E31D23" stroke-width="2.5" stroke-linecap="round" stroke-linejoin="round"/>
</g>
<defs>
<clipPath id="clip0_743_2277">
<rect width="40" height="40" fill="white" transform="translate(0.707031 0.625)"/>
</clipPath>
</defs>
</svg>
