<svg width="28" height="29" viewBox="0 0 28 29" fill="none" xmlns="http://www.w3.org/2000/svg">
<g clip-path="url(#clip0_743_1997)">
<path d="M4.71094 15.5384C6.77338 15.7835 8.69338 16.7153 10.162 18.184C11.6306 19.6526 12.5625 21.5726 12.8076 23.635C13.83 23.0456 14.6852 22.2052 15.2924 21.1932C15.8995 20.1813 16.2386 19.0312 16.2776 17.8517C18.2197 17.1685 19.9157 15.9247 21.151 14.2776C22.3863 12.6306 23.1055 10.6542 23.2175 8.59841C23.2175 7.67811 22.852 6.7955 22.2012 6.14475C21.5505 5.49401 20.6679 5.12842 19.7476 5.12842C17.6918 5.24051 15.7154 5.95967 14.0683 7.19497C12.4213 8.43027 11.1775 10.1262 10.4943 12.0684C9.31476 12.1073 8.16468 12.4464 7.15273 13.0536C6.14077 13.6608 5.30036 14.516 4.71094 15.5384Z" stroke="#2A2A2A" stroke-width="1.73499" stroke-linecap="round" stroke-linejoin="round"/>
<path d="M8.1805 16.6946C6.97668 17.3742 6.00326 18.3979 5.38502 19.6343C4.76679 20.8708 4.53191 22.2637 4.71051 23.6346C6.08134 23.8132 7.47427 23.5783 8.71074 22.96C9.9472 22.3418 10.9709 21.3684 11.6505 20.1646" stroke="#2A2A2A" stroke-width="1.73499" stroke-linecap="round" stroke-linejoin="round"/>
<path d="M16.2812 10.912C16.2812 11.2189 16.4032 11.5132 16.6202 11.7302C16.8372 11.9472 17.1315 12.0691 17.4384 12.0691C17.7453 12.0691 18.0396 11.9472 18.2566 11.7302C18.4736 11.5132 18.5955 11.2189 18.5955 10.912C18.5955 10.6051 18.4736 10.3108 18.2566 10.0938C18.0396 9.87679 17.7453 9.75488 17.4384 9.75488C17.1315 9.75488 16.8372 9.87679 16.6202 10.0938C16.4032 10.3108 16.2812 10.6051 16.2812 10.912Z" stroke="#2A2A2A" stroke-width="1.73499" stroke-linecap="round" stroke-linejoin="round"/>
</g>
<defs>
<clipPath id="clip0_743_1997">
<rect width="27.7599" height="27.7599" fill="white" transform="translate(0.0898438 0.501953)"/>
</clipPath>
</defs>
</svg>
