<svg width="29" height="29" viewBox="0 0 29 29" fill="none" xmlns="http://www.w3.org/2000/svg">
<g clip-path="url(#clip0_743_2163)">
<path d="M7.32227 6.05673C7.32227 5.4432 7.56599 4.8548 7.99982 4.42097C8.43366 3.98713 9.02206 3.74341 9.63559 3.74341H18.8889C19.5024 3.74341 20.0908 3.98713 20.5247 4.42097C20.9585 4.8548 21.2022 5.4432 21.2022 6.05673V22.25C21.2022 22.8635 20.9585 23.452 20.5247 23.8858C20.0908 24.3196 19.5024 24.5633 18.8889 24.5633H9.63559C9.02206 24.5633 8.43366 24.3196 7.99982 23.8858C7.56599 23.452 7.32227 22.8635 7.32227 22.25V6.05673Z" stroke="#2A2A2A" stroke-width="1.73499" stroke-linecap="round" stroke-linejoin="round"/>
<path d="M13.1074 4.8999H15.4217" stroke="#2A2A2A" stroke-width="1.73499" stroke-linecap="round" stroke-linejoin="round"/>
<path d="M14.2637 19.9368V19.949" stroke="#2A2A2A" stroke-width="1.73499" stroke-linecap="round" stroke-linejoin="round"/>
</g>
<defs>
<clipPath id="clip0_743_2163">
<rect width="27.7599" height="27.7599" fill="white" transform="translate(0.386719 0.273438)"/>
</clipPath>
</defs>
</svg>
