<svg width="19" height="19" viewBox="0 0 19 19" fill="none" xmlns="http://www.w3.org/2000/svg">
<g clip-path="url(#clip0_562_15377)">
<path d="M4.20508 3.3042H7.20508L8.70508 7.0542L6.83008 8.1792C7.6333 9.80785 8.95143 11.126 10.5801 11.9292L11.7051 10.0542L15.4551 11.5542V14.5542C15.4551 14.952 15.297 15.3336 15.0157 15.6149C14.7344 15.8962 14.3529 16.0542 13.9551 16.0542C11.0295 15.8764 8.27019 14.6341 6.1977 12.5616C4.12521 10.4891 2.88287 7.72975 2.70508 4.8042C2.70508 4.40637 2.86311 4.02484 3.14442 3.74354C3.42572 3.46223 3.80725 3.3042 4.20508 3.3042Z" stroke="#CDCDCD" stroke-width="1.2" stroke-linecap="round" stroke-linejoin="round"/>
<path d="M11.7051 5.5542C12.1029 5.5542 12.4844 5.71223 12.7657 5.99354C13.047 6.27484 13.2051 6.65637 13.2051 7.0542" stroke="#CDCDCD" stroke-width="1.2" stroke-linecap="round" stroke-linejoin="round"/>
<path d="M11.7051 2.5542C12.8986 2.5542 14.0431 3.02831 14.8871 3.87222C15.731 4.71613 16.2051 5.86073 16.2051 7.0542" stroke="#CDCDCD" stroke-width="1.2" stroke-linecap="round" stroke-linejoin="round"/>
</g>
<defs>
<clipPath id="clip0_562_15377">
<rect width="18" height="18" fill="white" transform="translate(0.455078 0.304199)"/>
</clipPath>
</defs>
</svg>
