<svg width="29" height="29" viewBox="0 0 29 29" fill="none" xmlns="http://www.w3.org/2000/svg">
<g clip-path="url(#clip0_562_15195)">
<path d="M5.46484 15.8865C7.52728 16.1316 9.44729 17.0635 10.9159 18.5321C12.3845 20.0007 13.3164 21.9207 13.5615 23.9832C14.5839 23.3937 15.4391 22.5533 16.0463 21.5414C16.6534 20.5294 16.9925 19.3793 17.0315 18.1999C18.9736 17.5166 20.6696 16.2728 21.9049 14.6258C23.1402 12.9787 23.8594 11.0023 23.9715 8.94655C23.9715 8.02625 23.6059 7.14365 22.9551 6.4929C22.3044 5.84215 21.4218 5.47656 20.5015 5.47656C18.4457 5.58865 16.4693 6.30782 14.8222 7.54312C13.1752 8.77842 11.9314 10.4744 11.2482 12.4165C10.0687 12.4555 8.91859 12.7946 7.90663 13.4018C6.89468 14.0089 6.05427 14.8641 5.46484 15.8865Z" stroke="#CDCDCD" stroke-width="1.73499" stroke-linecap="round" stroke-linejoin="round"/>
<path d="M8.9344 17.0427C7.73058 17.7223 6.75716 18.746 6.13893 19.9825C5.52069 21.2189 5.28582 22.6119 5.46441 23.9827C6.83524 24.1613 8.22817 23.9264 9.46464 23.3082C10.7011 22.69 11.7248 21.7165 12.4044 20.5127" stroke="#CDCDCD" stroke-width="1.73499" stroke-linecap="round" stroke-linejoin="round"/>
<path d="M17.0352 11.2601C17.0352 11.567 17.1571 11.8613 17.3741 12.0784C17.5911 12.2954 17.8854 12.4173 18.1923 12.4173C18.4992 12.4173 18.7935 12.2954 19.0105 12.0784C19.2275 11.8613 19.3494 11.567 19.3494 11.2601C19.3494 10.9533 19.2275 10.6589 19.0105 10.4419C18.7935 10.2249 18.4992 10.103 18.1923 10.103C17.8854 10.103 17.5911 10.2249 17.3741 10.4419C17.1571 10.6589 17.0352 10.9533 17.0352 11.2601Z" stroke="#CDCDCD" stroke-width="1.73499" stroke-linecap="round" stroke-linejoin="round"/>
</g>
<defs>
<clipPath id="clip0_562_15195">
<rect width="27.7599" height="27.7599" fill="white" transform="translate(0.84375 0.850098)"/>
</clipPath>
</defs>
</svg>
