<svg width="19" height="19" viewBox="0 0 19 19" fill="none" xmlns="http://www.w3.org/2000/svg">
<g clip-path="url(#clip0_562_15399)">
<path d="M13.9551 3.14502C14.5518 3.14502 15.1241 3.38207 15.5461 3.80403C15.968 4.22599 16.2051 4.79828 16.2051 5.39502V11.395C16.2051 11.9918 15.968 12.5641 15.5461 12.986C15.1241 13.408 14.5518 13.645 13.9551 13.645H10.2051L6.45508 15.895V13.645H4.95508C4.35834 13.645 3.78604 13.408 3.36409 12.986C2.94213 12.5641 2.70508 11.9918 2.70508 11.395V5.39502C2.70508 4.79828 2.94213 4.22599 3.36409 3.80403C3.78604 3.38207 4.35834 3.14502 4.95508 3.14502H13.9551Z" stroke="#CDCDCD" stroke-width="1.2" stroke-linecap="round" stroke-linejoin="round"/>
<path d="M6.21662 9.73313C5.94278 9.73313 5.71311 9.69338 5.5276 9.61388C5.34504 9.53143 5.20517 9.42543 5.108 9.29587C5.01378 9.16336 4.96372 9.02497 4.95783 8.88069C4.95783 8.85419 4.96667 8.8321 4.98433 8.81444C5.002 8.79677 5.02409 8.78794 5.05059 8.78794H5.44368C5.48196 8.78794 5.50993 8.79677 5.5276 8.81444C5.54821 8.82916 5.56588 8.8483 5.5806 8.87185C5.59827 8.9278 5.63213 8.98375 5.68219 9.03969C5.73225 9.0927 5.79997 9.13686 5.88536 9.1722C5.9737 9.20753 6.08412 9.2252 6.21662 9.2252C6.42863 9.2252 6.58616 9.18987 6.68922 9.1192C6.79523 9.04853 6.84823 8.95283 6.84823 8.8321C6.84823 8.74671 6.82025 8.67899 6.76431 8.62893C6.70836 8.57593 6.6215 8.52882 6.50372 8.48759C6.38888 8.44342 6.23576 8.39778 6.04437 8.35067C5.82353 8.29767 5.63802 8.23436 5.48785 8.16075C5.34062 8.08419 5.22873 7.98849 5.15217 7.87366C5.07856 7.75882 5.04175 7.61306 5.04175 7.43639C5.04175 7.26561 5.08739 7.11396 5.17867 6.98146C5.2729 6.84896 5.4054 6.74442 5.57619 6.66787C5.74991 6.59131 5.95603 6.55303 6.19454 6.55303C6.38594 6.55303 6.55525 6.57953 6.70247 6.63253C6.8497 6.68259 6.9719 6.75031 7.06907 6.83571C7.16624 6.91815 7.23985 7.00796 7.28991 7.10513C7.34291 7.19936 7.37088 7.29211 7.37383 7.38339C7.37383 7.40695 7.36499 7.42903 7.34733 7.44964C7.3326 7.46731 7.31052 7.47614 7.28108 7.47614H6.87031C6.84676 7.47614 6.8232 7.47025 6.79964 7.45848C6.77609 7.4467 6.75695 7.42461 6.74222 7.39222C6.72456 7.30094 6.66714 7.22291 6.56997 7.15813C6.4728 7.09335 6.34766 7.06096 6.19454 7.06096C6.03554 7.06096 5.90745 7.09041 5.81028 7.1493C5.71311 7.20819 5.66452 7.29947 5.66452 7.42314C5.66452 7.50559 5.68808 7.57479 5.73519 7.63073C5.78525 7.68373 5.86328 7.73085 5.96928 7.77207C6.07823 7.81329 6.22104 7.85746 6.39771 7.90457C6.648 7.96052 6.85264 8.0253 7.01165 8.09891C7.17066 8.17253 7.28696 8.26675 7.36058 8.38159C7.43419 8.49348 7.471 8.63629 7.471 8.81002C7.471 9.00436 7.418 9.17073 7.31199 9.30912C7.20893 9.44457 7.06318 9.5491 6.87473 9.62271C6.68628 9.69633 6.46691 9.73313 6.21662 9.73313ZM8.17593 9.68896C8.14354 9.68896 8.11704 9.67866 8.09643 9.65805C8.07581 9.63744 8.06551 9.61241 8.06551 9.58296V6.70762C8.06551 6.67523 8.07581 6.64873 8.09643 6.62812C8.11704 6.6075 8.14354 6.5972 8.17593 6.5972H8.52486C8.56608 6.5972 8.597 6.60898 8.61761 6.63253C8.63822 6.65314 8.65147 6.66934 8.65736 6.68112L9.5098 8.27117L10.3711 6.68112C10.377 6.66934 10.3902 6.65314 10.4108 6.63253C10.4314 6.60898 10.4624 6.5972 10.5036 6.5972H10.8481C10.8805 6.5972 10.907 6.6075 10.9276 6.62812C10.9482 6.64873 10.9585 6.67523 10.9585 6.70762V9.58296C10.9585 9.61241 10.9482 9.63744 10.9276 9.65805C10.907 9.67866 10.8805 9.68896 10.8481 9.68896H10.4771C10.4447 9.68896 10.4182 9.67866 10.3976 9.65805C10.3799 9.63744 10.3711 9.61241 10.3711 9.58296V7.67048L9.75273 8.84977C9.73801 8.87627 9.71887 8.89983 9.69531 8.92044C9.67175 8.93811 9.64084 8.94694 9.60256 8.94694H9.42147C9.38025 8.94694 9.34786 8.93811 9.3243 8.92044C9.30369 8.89983 9.28602 8.87627 9.2713 8.84977L8.65294 7.67048V9.58296C8.65294 9.61241 8.64264 9.63744 8.62203 9.65805C8.60141 9.67866 8.57639 9.68896 8.54694 9.68896H8.17593ZM12.8072 9.73313C12.5333 9.73313 12.3036 9.69338 12.1181 9.61388C11.9356 9.53143 11.7957 9.42543 11.6985 9.29587C11.6043 9.16336 11.5543 9.02497 11.5484 8.88069C11.5484 8.85419 11.5572 8.8321 11.5749 8.81444C11.5925 8.79677 11.6146 8.78794 11.6411 8.78794H12.0342C12.0725 8.78794 12.1005 8.79677 12.1181 8.81444C12.1387 8.82916 12.1564 8.8483 12.1711 8.87185C12.1888 8.9278 12.2227 8.98375 12.2727 9.03969C12.3228 9.0927 12.3905 9.13686 12.4759 9.1722C12.5642 9.20753 12.6747 9.2252 12.8072 9.2252C13.0192 9.2252 13.1767 9.18987 13.2798 9.1192C13.3858 9.04853 13.4388 8.95283 13.4388 8.8321C13.4388 8.74671 13.4108 8.67899 13.3548 8.62893C13.2989 8.57593 13.212 8.52882 13.0943 8.48759C12.9794 8.44342 12.8263 8.39778 12.6349 8.35067C12.4141 8.29767 12.2286 8.23436 12.0784 8.16075C11.9312 8.08419 11.8193 7.98849 11.7427 7.87366C11.6691 7.75882 11.6323 7.61306 11.6323 7.43639C11.6323 7.26561 11.6779 7.11396 11.7692 6.98146C11.8634 6.84896 11.9959 6.74442 12.1667 6.66787C12.3405 6.59131 12.5466 6.55303 12.7851 6.55303C12.9765 6.55303 13.1458 6.57953 13.293 6.63253C13.4402 6.68259 13.5624 6.75031 13.6596 6.83571C13.7568 6.91815 13.8304 7.00796 13.8804 7.10513C13.9334 7.19936 13.9614 7.29211 13.9644 7.38339C13.9644 7.40695 13.9555 7.42903 13.9379 7.44964C13.9231 7.46731 13.9011 7.47614 13.8716 7.47614H13.4608C13.4373 7.47614 13.4137 7.47025 13.3902 7.45848C13.3666 7.4467 13.3475 7.42461 13.3328 7.39222C13.3151 7.30094 13.2577 7.22291 13.1605 7.15813C13.0633 7.09335 12.9382 7.06096 12.7851 7.06096C12.6261 7.06096 12.498 7.09041 12.4008 7.1493C12.3036 7.20819 12.2551 7.29947 12.2551 7.42314C12.2551 7.50559 12.2786 7.57479 12.3257 7.63073C12.3758 7.68373 12.4538 7.73085 12.5598 7.77207C12.6688 7.81329 12.8116 7.85746 12.9882 7.90457C13.2385 7.96052 13.4432 8.0253 13.6022 8.09891C13.7612 8.17253 13.8775 8.26675 13.9511 8.38159C14.0247 8.49348 14.0615 8.63629 14.0615 8.81002C14.0615 9.00436 14.0085 9.17073 13.9025 9.30912C13.7995 9.44457 13.6537 9.5491 13.4653 9.62271C13.2768 9.69633 13.0574 9.73313 12.8072 9.73313Z" fill="#CDCDCD"/>
</g>
<defs>
<clipPath id="clip0_562_15399">
<rect width="18" height="18" fill="white" transform="translate(0.455078 0.14502)"/>
</clipPath>
</defs>
</svg>
