<svg width="77" height="40" viewBox="0 0 77 40" fill="none" xmlns="http://www.w3.org/2000/svg">
<g clip-path="url(#clip0_743_1246)">
<path d="M49.9598 9.45863C51.0769 9.93531 52.8449 10.6658 54.0839 11.2976C52.1135 10.9928 49.9944 10.7035 48.4793 10.6926C47.8034 10.9223 45.8712 11.8293 43.6629 12.7895C27.2698 20.2681 18.7587 22.0433 5.01456 22.2589C3.59044 22.1812 2.45923 22.0879 1.05876 21.9697L0.941406 21.8582C13.0781 21.9451 23.757 19.8728 43.0366 11.1211C44.1378 10.6203 44.9329 10.2528 45.9044 9.85844C46.5603 9.71561 48.1978 9.54459 49.1256 9.53458L46.1705 8.84731C51.9321 6.56216 55.1351 5.38411 59.3192 4.92789C60.2931 3.79851 61.2451 2.77237 61.8968 2.16379C62.6833 1.67392 64.1615 0.897949 64.1615 0.897949C62.9785 2.63547 62.187 4.48442 61.6449 5.91309C57.7859 6.17645 53.554 7.72793 49.9594 9.45908L49.9598 9.45863Z" fill="#EC1C24"/>
<path d="M74.4644 7.29014C72.9038 6.9258 69.7386 6.40955 68.3217 6.47141C67.9938 6.87623 67.5162 7.40476 67.3129 7.5403C67.0973 7.69222 66.3031 7.77091 65.3798 7.78637C66.8848 6.73113 68.1598 6.13164 68.1598 6.13164C66.2894 5.80142 63.6604 5.68134 61.957 5.87147L63.3607 4.68022C65.1551 4.67613 67.4766 4.9313 69.1959 5.37432C68.9894 5.64041 68.4309 6.31222 68.4309 6.31222C68.4309 6.31222 69.8818 5.98154 70.6037 5.81416C71.8973 5.95198 73.2955 6.59422 74.247 7.02132C74.343 7.11229 74.4239 7.21782 74.4644 7.28968V7.29014Z" fill="#EC1C24"/>
<path d="M34.5805 35.6648C34.5805 33.3432 33.1719 32.0373 31.3088 32.0373C29.2934 32.0373 27.8242 33.4415 27.8242 35.5415C27.8242 37.6415 29.368 39.0438 31.5995 39.0438C32.2513 39.0438 32.8608 38.9296 33.3807 38.7136L34.3322 37.1275L34.2057 37.0598C33.3879 37.4878 32.5278 37.7084 31.75 37.7084C30.5993 37.7084 29.6045 37.1234 29.4926 36.1237H34.5805V35.6643V35.6648ZM29.4926 34.8738C29.6182 33.9131 30.2299 33.2886 31.2169 33.2886C32.2599 33.2886 32.8999 33.9004 32.9131 34.8738H29.4926ZM65.9723 32.0373C63.9536 32.0373 62.4863 33.4415 62.4863 35.5415C62.4863 37.6415 64.0305 39.0438 66.262 39.0438C66.9133 39.0438 67.5228 38.9296 68.0409 38.7136L68.9938 37.1275L68.8678 37.0598C68.0505 37.4878 67.1894 37.7084 66.4112 37.7084C65.2609 37.7084 64.2679 37.1234 64.1556 36.1237H69.2421C69.4637 33.5088 68.0582 32.0369 65.9718 32.0369L65.9723 32.0373ZM64.1561 34.8738C64.2789 33.9131 64.8929 33.2886 65.8781 33.2886C66.922 33.2886 67.562 33.9004 67.5756 34.8738H64.1561ZM42.6582 32.0373C40.6432 32.0373 39.1745 33.4415 39.1745 35.5415C39.1745 37.6415 40.7182 39.0438 42.9493 39.0438C43.602 39.0438 44.211 38.9296 44.7314 38.7136L45.6806 37.1275L45.5546 37.0598C44.7373 37.4878 43.8776 37.7084 43.0998 37.7084C41.9495 37.7084 40.9548 37.1234 40.8429 36.1237H45.9317C46.1523 33.5088 44.7464 32.0369 42.6582 32.0369V32.0373ZM40.8429 34.8738C40.968 33.9131 41.5797 33.2886 42.5658 33.2886C43.6093 33.2886 44.2501 33.9004 44.2624 34.8738H40.8429ZM8.18576 33.6916V33.6634C9.20144 33.3578 9.89553 32.6218 9.89553 31.5088C9.89553 29.7158 8.36497 29.0344 6.88081 29.0344H3.28342V29.0331H1.85156V29.18L2.35599 29.6089C2.96275 30.1029 3.04053 30.1989 3.04053 30.6455V38.8782H6.58788C8.44912 38.8782 10.3135 38.211 10.3135 36.0687C10.3135 34.8051 9.42158 33.8304 8.18531 33.6921L8.18576 33.6916ZM4.79442 30.5359H6.23902C7.21739 30.5359 7.51896 30.6705 7.81552 30.9521C8.04112 31.1654 8.14392 31.4588 8.14437 31.8008C8.14437 32.1188 8.03566 32.403 7.80415 32.6236C7.51486 32.9011 7.11733 33.0376 6.39139 33.0376H4.79442V30.5359ZM6.40595 37.3759H4.79442V34.5399H6.47599C7.89375 34.5399 8.56147 34.9006 8.56147 35.9304C8.56147 37.224 7.30882 37.3759 6.40595 37.3759ZM13.6257 29.9382C13.6257 30.5077 13.1518 30.9393 12.5409 30.9393C11.9301 30.9393 11.4843 30.4658 11.4843 29.9382C11.4843 29.4106 11.9282 28.9357 12.5409 28.9357C13.1536 28.9357 13.6257 29.3674 13.6257 29.9382ZM10.8225 32.2047H13.3888V38.8778H11.719V33.627H11.7176C11.7176 33.0753 11.6876 32.9871 11.0886 32.5245L10.8225 32.3139V32.2043V32.2047ZM24.1031 28.6214V28.7438L24.6253 29.0808C25.102 29.3838 25.1743 29.5289 25.1743 29.9532V33.0521H25.1329C24.7859 32.6214 24.1172 32.0373 22.8664 32.0373C20.9615 32.0373 19.6406 33.5661 19.6406 35.5415C19.6406 37.5169 20.8787 39.0438 22.9365 39.0438C23.8675 39.0438 24.744 38.6827 25.2307 37.878H25.258L25.4327 38.8778H26.8431V28.621H24.1031V28.6214ZM23.2699 37.5424C22.0463 37.5424 21.3081 36.584 21.3081 35.5419C21.3081 34.4999 22.0463 33.5392 23.2699 33.5392C24.4934 33.5392 25.2312 34.4985 25.2312 35.5419C25.2312 36.5854 24.4943 37.5424 23.2699 37.5424ZM58.7097 28.6214V28.7438L58.9421 28.8984C59.7463 29.4065 59.8455 29.5539 59.8455 30.4235V33.0517H59.8041C59.4548 32.6209 58.7884 32.0369 57.538 32.0369C55.6331 32.0369 54.3118 33.5656 54.3118 35.541C54.3118 37.5164 55.5494 39.0434 57.6058 39.0434C58.5382 39.0434 59.4147 38.6822 59.9 37.8776H59.9273L60.1043 38.8773H61.5125V28.6205H58.7097V28.6214ZM57.9397 37.5424C56.717 37.5424 55.9793 36.584 55.9793 35.5419C55.9793 34.4999 56.717 33.5392 57.9397 33.5392C59.1623 33.5392 59.9 34.4985 59.9 35.5419C59.9 36.5854 59.1632 37.5424 57.9397 37.5424ZM74.5912 32.1342V33.7476C74.3128 33.6771 74.0503 33.6216 73.7843 33.6216C72.2141 33.6216 71.9917 34.9434 71.9917 35.3054V38.8782H70.3233V33.9463C70.3233 33.1071 70.2787 32.9812 69.6001 32.5518L69.1817 32.2743L69.1767 32.2011H71.9917V33.2609H72.0208C72.3806 32.4963 73.1175 32.0373 73.9939 32.0373C74.2023 32.0373 74.3969 32.0787 74.5912 32.1338V32.1342ZM37.5448 32.177H39.0944V33.5997H37.5448V38.8778H35.8705V34.176C35.8705 33.6166 35.7581 33.4933 35.0941 32.9689L34.2435 32.2775V32.1765H35.8705V30.9584C35.8705 29.1468 37.0508 27.9983 39.6089 28.5082L39.9955 29.9209L39.915 29.9864C38.5791 29.4615 37.5448 29.7972 37.5448 30.9635V32.1765V32.177ZM53.358 34.6636V38.8782H51.6887V35.1653C51.6887 34.4298 51.5022 33.5392 50.3342 33.5392C49.2357 33.5392 48.8045 34.3452 48.8045 35.2354V38.8787H47.138V33.9468C47.138 33.1076 47.0929 32.9816 46.4134 32.5522L45.9954 32.2748V32.2015H47.2994V32.2056H48.7217V33.2222H48.749C49.2985 32.4044 50.1336 32.0383 50.8727 32.0383C52.4487 32.0383 53.3584 33.1176 53.3584 34.6645L53.358 34.6636ZM19.1235 37.5374L19.1785 37.5715C19.1785 37.5715 18.3493 38.8987 18.3507 38.8987C16.9907 39.2662 15.462 38.8751 15.462 36.6932V33.6216L15.4597 33.9886C15.4597 33.5588 15.3905 33.5802 14.4545 32.8088L13.8486 32.2852V32.2056H15.4692L16.0778 30.2716H17.1372V32.2056H18.9211V33.622H17.1372V36.6477C17.1372 37.853 17.9609 37.8808 19.123 37.5383L19.1235 37.5374Z" fill="#231F20"/>
<path d="M74.9645 28.8803H74.5547V30.1416H74.5988V29.5508H74.9645C74.9727 29.5508 74.98 29.5499 74.9868 29.5476L74.9923 29.5467L74.9954 29.5512L75.3752 30.1416H75.4307L75.04 29.5431L75.0532 29.5421C75.0969 29.538 75.1392 29.5285 75.1787 29.5139C75.2174 29.4998 75.2515 29.4794 75.2815 29.453C75.312 29.4266 75.3357 29.3934 75.352 29.3543C75.3698 29.3152 75.3784 29.2706 75.3784 29.2165C75.3784 29.1109 75.3452 29.0273 75.2788 28.9681C75.2124 28.9094 75.1064 28.8799 74.9645 28.8799V28.8803ZM75.3352 29.2165C75.3352 29.2806 75.3211 29.3329 75.2934 29.3725C75.2665 29.4111 75.2315 29.4403 75.1897 29.4594C75.1483 29.4785 75.1037 29.4912 75.0541 29.4971C75.0077 29.5026 74.9622 29.5058 74.9154 29.5058H74.5988V28.9231H74.9595C75.0059 28.9231 75.0527 28.9272 75.0982 28.9354C75.1442 28.9436 75.1833 28.9581 75.2188 28.9795C75.2538 29.0018 75.282 29.0318 75.3029 29.0691C75.3238 29.1069 75.3352 29.1564 75.3352 29.2165Z" fill="#231F20"/>
<path d="M75.9304 29.9205C75.9882 29.7881 76.0173 29.6435 76.0173 29.4897C76.0173 29.336 75.9877 29.1913 75.9304 29.059C75.8731 28.9266 75.7939 28.8088 75.6948 28.7092C75.597 28.611 75.4801 28.5323 75.3459 28.4736C75.2131 28.4158 75.0685 28.3867 74.9156 28.3867C74.7628 28.3867 74.6182 28.4163 74.4858 28.4736C74.3525 28.5318 74.2352 28.6114 74.1374 28.7092C74.0378 28.8102 73.9582 28.9266 73.9013 29.059C73.8436 29.1913 73.8145 29.3364 73.8145 29.4897C73.8145 29.643 73.844 29.7876 73.9013 29.9205C73.9586 30.0524 74.0378 30.1706 74.1374 30.2698C74.2356 30.3685 74.353 30.4472 74.4858 30.5045C74.6186 30.5613 74.7633 30.59 74.9156 30.59C75.068 30.59 75.2131 30.5613 75.3459 30.5045C75.4801 30.4467 75.5975 30.368 75.6948 30.2698C75.7939 30.1706 75.8735 30.0533 75.9304 29.9205ZM75.3273 30.4663C75.1986 30.5209 75.0607 30.5486 74.9156 30.5486C74.7705 30.5486 74.63 30.5213 74.5022 30.4663C74.3735 30.4117 74.2607 30.3357 74.1656 30.2407C74.0701 30.1447 73.9941 30.031 73.94 29.9041C73.8854 29.7754 73.8581 29.6357 73.8581 29.4897C73.8581 29.3437 73.8854 29.2068 73.94 29.079C73.9946 28.9503 74.0705 28.837 74.1656 28.742C74.2602 28.6473 74.373 28.5709 74.5022 28.5145C74.6295 28.459 74.7687 28.4308 74.9156 28.4308C75.0626 28.4308 75.199 28.4586 75.3273 28.5145C75.4551 28.5705 75.5679 28.6469 75.6625 28.742C75.7576 28.8375 75.834 28.9507 75.8895 29.0785C75.945 29.2073 75.9736 29.3451 75.9736 29.4897C75.9736 29.6344 75.9454 29.7754 75.8895 29.9041C75.8349 30.0305 75.7585 30.1438 75.6625 30.2407C75.567 30.3357 75.4542 30.4117 75.3273 30.4663Z" fill="#231F20"/>
</g>
<defs>
<clipPath id="clip0_743_1246">
<rect width="75.0766" height="38.147" fill="white" transform="translate(0.943359 0.896484)"/>
</clipPath>
</defs>
</svg>
