<svg width="44" height="43" viewBox="0 0 44 43" fill="none" xmlns="http://www.w3.org/2000/svg">
<g clip-path="url(#clip0_562_6323)">
<path d="M9.18555 33.0708H19.2822" stroke="white" stroke-width="2.94278" stroke-linecap="round" stroke-linejoin="round"/>
<path d="M25.0488 33.0708H35.1455" stroke="white" stroke-width="2.94278" stroke-linecap="round" stroke-linejoin="round"/>
<path d="M19.2793 33.0713C19.2793 33.8364 19.5832 34.5701 20.1242 35.1111C20.6652 35.6521 21.399 35.9561 22.1641 35.9561C22.9291 35.9561 23.6629 35.6521 24.2039 35.1111C24.7449 34.5701 25.0488 33.8364 25.0488 33.0713C25.0488 32.3062 24.7449 31.5725 24.2039 31.0315C23.6629 30.4905 22.9291 30.1865 22.1641 30.1865C21.399 30.1865 20.6652 30.4905 20.1242 31.0315C19.5832 31.5725 19.2793 32.3062 19.2793 33.0713Z" stroke="white" stroke-width="2.94278" stroke-linecap="round" stroke-linejoin="round"/>
<path d="M22.168 27.3022V30.187" stroke="white" stroke-width="2.94278" stroke-linecap="round" stroke-linejoin="round"/>
<path d="M16.3906 27.3074H14.4535C10.7437 27.3016 7.73633 24.4067 7.73633 20.8354C7.73633 17.2655 10.7437 14.3706 14.4535 14.3706C15.0204 11.8291 17.0411 9.755 19.7543 8.92852C22.4659 8.10348 25.4603 8.65014 27.6066 10.3709C29.7528 12.0873 30.725 14.7081 30.1596 17.2496H31.5876C34.3468 17.2496 36.584 19.4997 36.584 22.2778C36.584 25.0572 34.3468 27.3074 31.5861 27.3074H27.9297" stroke="white" stroke-width="2.94278" stroke-linecap="round" stroke-linejoin="round"/>
</g>
<defs>
<clipPath id="clip0_562_6323">
<rect width="34.6172" height="34.6172" fill="white" transform="translate(4.85742 4.22363)"/>
</clipPath>
</defs>
</svg>
