<svg width="44" height="43" viewBox="0 0 44 43" fill="none" xmlns="http://www.w3.org/2000/svg">
<g clip-path="url(#clip0_562_6308)">
<g clip-path="url(#clip1_562_6308)">
<path d="M18.2305 23.5248C18.2305 24.4629 18.6031 25.3625 19.2664 26.0258C19.9297 26.6891 20.8294 27.0618 21.7675 27.0618C22.7055 27.0618 23.6052 26.6891 24.2685 26.0258C24.9318 25.3625 25.3045 24.4629 25.3045 23.5248C25.3045 22.5867 24.9318 21.6871 24.2685 21.0238C23.6052 20.3604 22.7055 19.9878 21.7675 19.9878C20.8294 19.9878 19.9297 20.3604 19.2664 21.0238C18.6031 21.6871 18.2305 22.5867 18.2305 23.5248Z" stroke="white" stroke-width="2.94278" stroke-linecap="round" stroke-linejoin="round"/>
<path d="M14.6895 37.6727V35.9042C14.6895 34.9661 15.0621 34.0665 15.7254 33.4032C16.3887 32.7398 17.2884 32.3672 18.2265 32.3672H25.3005C26.2385 32.3672 27.1382 32.7398 27.8015 33.4032C28.4648 34.0665 28.8374 34.9661 28.8374 35.9042V37.6727" stroke="white" stroke-width="2.94278" stroke-linecap="round" stroke-linejoin="round"/>
<path d="M27.0742 9.37635C27.0742 10.3144 27.4469 11.2141 28.1102 11.8774C28.7735 12.5407 29.6731 12.9134 30.6112 12.9134C31.5493 12.9134 32.4489 12.5407 33.1123 11.8774C33.7756 11.2141 34.1482 10.3144 34.1482 9.37635C34.1482 8.43828 33.7756 7.53863 33.1123 6.87532C32.4489 6.212 31.5493 5.83936 30.6112 5.83936C29.6731 5.83936 28.7735 6.212 28.1102 6.87532C27.4469 7.53863 27.0742 8.43828 27.0742 9.37635Z" stroke="white" stroke-width="2.94278" stroke-linecap="round" stroke-linejoin="round"/>
<path d="M30.6074 18.2197H34.1444C35.0825 18.2197 35.9821 18.5924 36.6455 19.2557C37.3088 19.919 37.6814 20.8187 37.6814 21.7567V23.5252" stroke="white" stroke-width="2.94278" stroke-linecap="round" stroke-linejoin="round"/>
<path d="M9.38672 9.37635C9.38672 10.3144 9.75937 11.2141 10.4227 11.8774C11.086 12.5407 11.9856 12.9134 12.9237 12.9134C13.8618 12.9134 14.7614 12.5407 15.4248 11.8774C16.0881 11.2141 16.4607 10.3144 16.4607 9.37635C16.4607 8.43828 16.0881 7.53863 15.4248 6.87532C14.7614 6.212 13.8618 5.83936 12.9237 5.83936C11.9856 5.83936 11.086 6.212 10.4227 6.87532C9.75937 7.53863 9.38672 8.43828 9.38672 9.37635Z" stroke="white" stroke-width="2.94278" stroke-linecap="round" stroke-linejoin="round"/>
<path d="M5.8457 23.5252V21.7567C5.8457 20.8187 6.21835 19.919 6.88167 19.2557C7.54498 18.5924 8.44463 18.2197 9.3827 18.2197H12.9197" stroke="white" stroke-width="2.94278" stroke-linecap="round" stroke-linejoin="round"/>
</g>
</g>
<defs>
<clipPath id="clip0_562_6308">
<rect width="42.6899" height="42.6899" fill="white" transform="translate(0.546875 0.186523)"/>
</clipPath>
<clipPath id="clip1_562_6308">
<rect width="42.444" height="42.444" fill="white" transform="translate(0.544922 0.533691)"/>
</clipPath>
</defs>
</svg>
