<svg width="43" height="43" viewBox="0 0 43 43" fill="none" xmlns="http://www.w3.org/2000/svg">
<g clip-path="url(#clip0_562_6317)">
<g clip-path="url(#clip1_562_6317)">
<path d="M21.6199 5.52393C25.7746 9.19968 31.1971 11.1135 36.7386 10.8599C37.5454 13.6044 37.7922 16.4831 37.4645 19.3249C37.1368 22.1667 36.2411 24.9137 34.8308 27.4025C33.4205 29.8913 31.5242 32.0712 29.2547 33.8127C26.9853 35.5542 24.3889 36.8217 21.6199 37.5399C18.8509 36.8217 16.2545 35.5542 13.985 33.8127C11.7156 32.0712 9.81935 29.8913 8.40901 27.4025C6.99868 24.9137 6.10304 22.1667 5.77531 19.3249C5.44757 16.4831 5.69443 13.6044 6.50122 10.8599C12.0427 11.1135 17.4652 9.19968 21.6199 5.52393Z" stroke="white" stroke-width="2.94278" stroke-linecap="round" stroke-linejoin="round"/>
<path d="M19.834 19.7538C19.834 20.2255 20.0214 20.6779 20.3549 21.0115C20.6885 21.345 21.1409 21.5324 21.6127 21.5324C22.0844 21.5324 22.5368 21.345 22.8704 21.0115C23.2039 20.6779 23.3913 20.2255 23.3913 19.7538C23.3913 19.282 23.2039 18.8296 22.8704 18.4961C22.5368 18.1625 22.0844 17.9751 21.6127 17.9751C21.1409 17.9751 20.6885 18.1625 20.3549 18.4961C20.0214 18.8296 19.834 19.282 19.834 19.7538Z" stroke="white" stroke-width="2.94278" stroke-linecap="round" stroke-linejoin="round"/>
<path d="M21.6133 21.5322V25.9789" stroke="white" stroke-width="2.94278" stroke-linecap="round" stroke-linejoin="round"/>
</g>
</g>
<defs>
<clipPath id="clip0_562_6317">
<rect width="42.6899" height="42.6899" fill="white" transform="translate(0.273438 0.186523)"/>
</clipPath>
<clipPath id="clip1_562_6317">
<rect width="42.688" height="42.688" fill="white" transform="translate(0.271484 0.187988)"/>
</clipPath>
</defs>
</svg>
