<svg width="79" height="33" viewBox="0 0 79 33" fill="none" xmlns="http://www.w3.org/2000/svg">
<mask id="mask0_201_504" style="mask-type:luminance" maskUnits="userSpaceOnUse" x="0" y="0" width="79" height="33">
<path d="M78.0543 0.830078H0.775757V33H78.0543V0.830078Z" fill="white"/>
</mask>
<g mask="url(#mask0_201_504)">
<path d="M61.0157 0.832275H41.6158C41.6158 0.832275 41.6118 0.832275 41.6077 0.832275H3.81977C2.14148 0.832275 0.780151 2.1936 0.780151 3.87189V7.46213C0.780151 7.48854 0.802501 7.51089 0.828915 7.51089H10.3541C10.3805 7.51089 10.4029 7.53324 10.4029 7.55966V32.9514C10.4029 32.9778 10.4252 33.0002 10.4516 33.0002H17.5529C17.5793 33.0002 17.6017 32.9778 17.6017 32.9514V7.55966C17.6017 7.53324 17.624 7.51089 17.6504 7.51089H26.0358C24.8512 9.15667 23.9755 11.0402 23.4838 13.0883C23.4818 13.1005 23.4777 13.1126 23.4757 13.1269C23.4513 13.2325 23.4269 13.3382 23.4025 13.4459C23.3985 13.4682 23.3924 13.4926 23.3883 13.517C23.368 13.6145 23.3477 13.7141 23.3294 13.8136C23.3233 13.8461 23.3172 13.8786 23.3111 13.9111C23.2948 14.0026 23.2765 14.096 23.2623 14.1875C23.2562 14.2281 23.2481 14.2688 23.242 14.3094C23.2278 14.3947 23.2156 14.4821 23.2014 14.5695C23.1953 14.6162 23.1871 14.665 23.181 14.7117C23.1709 14.793 23.1587 14.8742 23.1485 14.9555C23.1424 15.0104 23.1364 15.0652 23.1303 15.1181C23.1221 15.1932 23.114 15.2704 23.1059 15.3477C23.0998 15.4086 23.0957 15.4716 23.0896 15.5325C23.0835 15.6037 23.0774 15.6727 23.0713 15.7439C23.0673 15.8129 23.0632 15.8841 23.0591 15.9531C23.0551 16.0161 23.051 16.0811 23.0469 16.1441C23.0429 16.2274 23.0409 16.3107 23.0368 16.394C23.0368 16.4469 23.0327 16.4977 23.0307 16.5505C23.0266 16.6846 23.0266 16.8187 23.0266 16.9528C23.0266 16.9548 23.0266 16.9569 23.0266 16.9609C23.0266 18.2085 23.1567 19.4133 23.4045 20.5654C24.9711 27.8596 31.2555 33.0042 39.2365 33.0042C48.3737 33.0042 55.5298 25.9213 55.5298 16.8776C55.5298 13.3219 54.4753 10.1076 52.6446 7.5048L61.0096 7.51496C66.7658 7.51496 70.6323 11.2779 70.6323 16.8776C70.6323 22.4773 66.7658 26.3256 61.0096 26.3256C58.4414 26.3256 56.3588 28.4082 56.3588 30.9765V33.0042H61.0096C70.8823 33.0042 78.0485 26.2586 78.0485 16.963C78.0485 7.66735 70.8823 0.834309 61.0096 0.834309M39.4214 26.3256H39.4011C39.4011 26.3256 39.395 26.3256 39.393 26.3256C39.3686 26.3256 39.3442 26.3256 39.3178 26.3256C34.2139 26.3256 30.3636 22.262 30.3636 16.8756C30.3636 11.9565 33.6003 8.15092 38.0642 7.58201C38.1312 7.57388 38.2003 7.56575 38.2674 7.55966C38.5762 7.52715 38.8911 7.51089 39.2101 7.50886H39.2772C39.3625 7.50886 39.4458 7.51089 39.5312 7.51293C39.6571 7.51902 39.8278 7.52715 39.9883 7.53731C40.1021 7.54746 40.2159 7.55762 40.3297 7.57185C40.3825 7.57794 40.4678 7.59014 40.5207 7.59623C40.5247 7.59623 40.5268 7.59623 40.5308 7.59623C44.9785 8.22 48.1908 12.0358 48.1908 16.9569C48.1908 22.2599 44.4279 26.2687 39.4235 26.3236" fill="#FFBC00"/>
<g style="mix-blend-mode:multiply">
<mask id="mask1_201_504" style="mask-type:luminance" maskUnits="userSpaceOnUse" x="38" y="7" width="18" height="26">
<path d="M55.5335 7.50061H38.6775V33H55.5335V7.50061Z" fill="white"/>
</mask>
<g mask="url(#mask1_201_504)">
<mask id="mask2_201_504" style="mask-type:luminance" maskUnits="userSpaceOnUse" x="38" y="7" width="18" height="26">
<path d="M39.2161 7.50642H39.2832C39.3685 7.50642 39.4518 7.50845 39.5372 7.51048C39.6632 7.51658 39.8338 7.52471 39.9943 7.53487C40.1081 7.54502 40.2219 7.55518 40.3357 7.56941C40.3885 7.5755 40.4739 7.58769 40.5267 7.59379C40.5287 7.59379 40.5328 7.59379 40.5368 7.59379C44.9845 8.21756 48.1968 12.0333 48.1968 16.9544C48.1968 22.2575 44.4339 26.2663 39.4295 26.3211H39.4092C39.4092 26.3211 39.4031 26.3211 39.401 26.3211C39.3767 26.3211 39.3523 26.3211 39.3259 26.3211C39.1085 26.3211 38.8931 26.313 38.6797 26.2988C38.6797 28.9483 38.6797 31.3296 38.6797 32.9876C38.8667 32.9937 39.0516 32.9977 39.2405 32.9977C48.3777 32.9977 55.5338 25.9148 55.5338 16.8711C55.5338 13.3154 54.4792 10.1011 52.6486 7.49829" fill="white"/>
</mask>
<g mask="url(#mask2_201_504)">
<path d="M55.5335 7.50061H38.6774V33H55.5335V7.50061Z" fill="url(#paint0_linear_201_504)"/>
</g>
</g>
</g>
<g style="mix-blend-mode:multiply">
<mask id="mask3_201_504" style="mask-type:luminance" maskUnits="userSpaceOnUse" x="0" y="0" width="39" height="8">
<path d="M38.3585 0.830078H0.775757V7.51073H38.3585V0.830078Z" fill="white"/>
</mask>
<g mask="url(#mask3_201_504)">
<mask id="mask4_201_504" style="mask-type:luminance" maskUnits="userSpaceOnUse" x="0" y="0" width="39" height="8">
<path d="M38.3585 0.829667H3.81537C2.13708 0.829667 0.775757 2.19099 0.775757 3.86928V7.45952C0.775757 7.48593 8.93354 7.50828 8.96199 7.50828H26.0375C28.7906 3.66407 33.22 1.11819 38.3585 0.827637" fill="white"/>
</mask>
<g mask="url(#mask4_201_504)">
<path d="M18.7653 -17.941L-2.56213 4.31458L20.3668 26.2873L41.6943 4.03168L18.7653 -17.941Z" fill="url(#paint1_linear_201_504)"/>
</g>
</g>
</g>
</g>
<defs>
<linearGradient id="paint0_linear_201_504" x1="47.5124" y1="31.1436" x2="47.5124" y2="5.11541" gradientUnits="userSpaceOnUse">
<stop stop-color="white"/>
<stop offset="0.09" stop-color="#F5F5F5"/>
<stop offset="0.25" stop-color="#DBDADA"/>
<stop offset="0.46" stop-color="#B0AEAF"/>
<stop offset="0.7" stop-color="#757273"/>
<stop offset="0.97" stop-color="#2A2627"/>
<stop offset="1" stop-color="#231F20"/>
</linearGradient>
<linearGradient id="paint1_linear_201_504" x1="12.7042" y1="-2.99903" x2="27.6814" y2="11.3535" gradientUnits="userSpaceOnUse">
<stop stop-color="white"/>
<stop offset="0.54" stop-color="white"/>
<stop offset="0.59" stop-color="#E0E0E0"/>
<stop offset="0.74" stop-color="#908E8E"/>
<stop offset="0.86" stop-color="#555252"/>
<stop offset="0.95" stop-color="#302D2E"/>
<stop offset="1" stop-color="#231F20"/>
</linearGradient>
</defs>
</svg>
